<svg xmlns="http://www.w3.org/2000/svg" viewBox="0 0 44.79 45.58"><style>.st0{display:none}.st1{fill:#9e2065}.st2{fill:#bd7894}</style><g id="Type"><path id="Path_409" class="st1" d="M22.22 43.52c-11.62 0-21.03-9.42-21.03-21.03S10.6 1.46 22.22 1.46s21.03 9.42 21.03 21.03c-.01 11.61-9.42 21.02-21.03 21.03zm0-40.43c-10.72 0-19.4 8.69-19.4 19.4s8.69 19.4 19.4 19.4 19.4-8.69 19.4-19.4c-.01-10.71-8.69-19.39-19.4-19.4z"/><path class="st2" d="M18.82 21.88h9.28v1.02h-9.28zM18.82 17.94h9.28v1.02h-9.28zM18.82 25.82h9.28v1.02h-9.28zM14.89 29.76H28.1v1.02H14.89z"/><path d="M14.67 9.79h.01l13.82.07c1.21.01 2.2 1 2.2 2.21v20.26c0 1.21-.99 2.2-2.2 2.2H14.68c-1.21 0-2.2-.99-2.2-2.2V11.97a2.2 2.2 0 0 1 2.19-2.18m0-1.22c-1.88 0-3.41 1.53-3.41 3.41v20.36c0 1.89 1.53 3.42 3.42 3.42H28.5c1.89 0 3.42-1.53 3.42-3.42V12.07c0-1.88-1.53-3.42-3.41-3.43l-13.82-.07h-.02z" fill="#c1819b"/><path class="st1" d="M17.92 17.77l-.66-.67-1.38 1.39-.82-.82-.66.66 1.48 1.48zM17.92 21.44l-.66-.67-1.38 1.39-.82-.82-.66.66 1.48 1.48zM17.92 25.09l-.66-.67-1.38 1.39-.82-.82-.66.66 1.48 1.48z"/><circle class="st1" cx="30.05" cy="31.45" r="5.63"/><path fill="none" stroke="#fff" stroke-width="1.096" stroke-linecap="round" stroke-miterlimit="10" d="M33.02 29.52l-3.87 3.86-2.06-2.06"/><g><path class="st1" d="M20.91 11.37h1.36v5.46h-1.36z"/><path class="st1" d="M18.86 13.41h5.46v1.36h-5.46z"/></g></g></svg>