<svg id="Layer_1" xmlns="http://www.w3.org/2000/svg" xmlns:xlink="http://www.w3.org/1999/xlink" viewBox="0 0 651.9 94.5"><style>.st0{fill:#ff6b00}.st2{fill:#20223e}</style><path class="st0" d="M87.2 8.9h.6v71.9h-.6z"/><defs><path id="SVGID_1_" d="M10.8 8.9h50.9v41.5H10.8z"/></defs><clipPath id="SVGID_00000166675971179357423740000013085655925730428558_"><use xlink:href="#SVGID_1_" overflow="visible"/></clipPath><path d="M11.7 29.5c.1-5.6 4.7-10.2 10.3-10.1l28.6.2c5.6.1 10.2 4.7 10.1 10.3.1 5.6-4.6 10.1-10.2 10.1l-28.6-.2c-5.7-.1-10.2-4.7-10.2-10.3z" clip-path="url(#SVGID_00000166675971179357423740000013085655925730428558_)" fill="none" stroke="#e01669" stroke-width="1.835" stroke-linecap="round" stroke-miterlimit="10"/><path d="M33.1 39.9c2.3 0 4.1-4.6 4.2-10.2 0-5.6-1.8-10.2-4-10.3M47 23.6h3.7c2.7 0 5.1 1.8 5.8 4.4" clip-path="url(#SVGID_00000166675971179357423740000013085655925730428558_)" fill="none" stroke="#e01669" stroke-width="1.835" stroke-linecap="round" stroke-miterlimit="10"/><path class="st2" d="M12.6 67.7c-1.7 0-3.1-1.3-3.1-3.2 0-1.9 1.3-3.3 3.1-3.3 1.7 0 3.1 1.3 3.1 3.2-.1 2-1.3 3.3-3.1 3.3zm0-5.9c-1.4 0-2.4 1.1-2.4 2.7s1 2.7 2.4 2.7 2.4-1.1 2.4-2.7-1-2.7-2.4-2.7zM19.8 67.6v-2.9c0-.8-.3-1.2-1-1.2-.5 0-1 .3-1.4.6v3.5h-.6V63l.6-.1v.7c.5-.5 1.1-.7 1.6-.7.9 0 1.5.6 1.5 1.6v3.1h-.7zM22.2 65.4c0 1 .6 1.8 1.6 1.8.5 0 1-.1 1.3-.4l.1.6c-.4.2-.9.4-1.5.4-1.3 0-2.2-1-2.2-2.4s.9-2.5 2.2-2.5c1 0 1.7.7 1.7 1.7 0 .2 0 .5-.1.7l-3.1.1zm2.6-.6v-.2c0-.7-.4-1.2-1.1-1.2-.8 0-1.3.6-1.4 1.4h2.5zM30.7 67.7c-1.4 0-2.2-1-2.2-2.4s.9-2.4 2.2-2.4c.6 0 1 .1 1.4.4l-.1.6c-.3-.2-.8-.4-1.3-.4-1 0-1.6.7-1.6 1.8s.6 1.8 1.6 1.8c.5 0 .9-.1 1.3-.4l.1.6c-.3.3-.8.4-1.4.4zM35.7 67c-.3.4-.8.7-1.3.7-.8 0-1.4-.5-1.4-1.3s.6-1.5 2.8-1.6v-.3c0-.7-.3-1.1-1.1-1.1-.5 0-1.1.3-1.5.5l-.2-.4c.4-.3 1.1-.5 1.7-.5 1.1 0 1.6.5 1.6 1.6v2.2c0 .3.1.5.5.5v.5c-.7-.1-1-.3-1.1-.8zm0-1.7c-1.6.2-2.1.5-2.1 1.1 0 .5.4.8.9.8s.9-.3 1.2-.6v-1.3zM39.6 62.9c1.2 0 2 1 2 2.4s-.9 2.4-2.3 2.4c-.4 0-.8-.1-1.1-.2v2.4h-.6V63l.6-.1v.6c.4-.3.9-.6 1.4-.6zm-1.3 3.9c.3.2.7.4 1.1.4 1 0 1.6-.8 1.6-1.9 0-1.1-.6-1.8-1.5-1.8-.5 0-.9.2-1.2.5v2.8zM43.9 67.7c-.5 0-1.1-.2-1.5-.4l.2-.6c.4.3.9.4 1.3.4.5 0 1-.3 1-.8s-.6-.7-1.1-.9c-.6-.2-1.3-.5-1.3-1.3s.7-1.3 1.5-1.3c.5 0 1 .1 1.4.3l-.2.6c-.4-.2-.8-.3-1.2-.3-.6 0-.9.3-.9.7 0 .5.5.7 1.1.9.6.2 1.3.5 1.3 1.3.1.9-.7 1.4-1.6 1.4zM47.2 63v3c0 .8.3 1.2 1 1.2.5 0 1-.3 1.4-.6V63h.6v4.6l-.6.1V67c-.5.5-1.1.7-1.6.7-.9 0-1.4-.6-1.4-1.6V63h.6zM51.7 67.6v-6.7l.6-.1v6.8h-.6zM54.1 65.4c0 1 .6 1.8 1.6 1.8.5 0 1-.1 1.3-.4l.1.6c-.4.2-.9.4-1.5.4-1.3 0-2.2-1-2.2-2.4s.9-2.5 2.2-2.5c1 0 1.7.7 1.7 1.7 0 .2 0 .5-.1.7l-3.1.1zm2.5-.6v-.2c0-.7-.4-1.2-1.1-1.2-.8 0-1.3.6-1.4 1.4h2.5zM58.6 66.7c.4 0 .7.3.7.8 0 .7-.6 1.3-1.2 1.7l-.3-.3c.6-.4.9-.8.9-1.2 0-.3-.2-.4-.6-.6 0-.2.2-.4.5-.4z"/><g><path class="st2" d="M17.6 78.8c-1.3 0-2.2-.9-2.2-2.4s1-2.4 2.3-2.4 2.2.9 2.2 2.4c-.1 1.4-1.1 2.4-2.3 2.4zm0-4.3c-1 0-1.6.8-1.6 1.8 0 1.1.6 1.9 1.6 1.9s1.6-.8 1.6-1.8c0-1.1-.6-1.9-1.6-1.9zM24 78.7v-2.9c0-.8-.3-1.2-1-1.2-.5 0-1 .3-1.4.6v3.5H21v-4.6l.6-.1v.7c.5-.5 1.1-.7 1.6-.7.9 0 1.5.6 1.5 1.6v3.1H24zM27.9 78.8c-1.4 0-2.2-1-2.2-2.4s.9-2.4 2.2-2.4c.6 0 1 .1 1.4.4l-.2.6c-.3-.2-.8-.4-1.3-.4-1 0-1.6.7-1.6 1.8s.6 1.8 1.6 1.8c.5 0 .9-.1 1.3-.4l.1.6c-.2.2-.7.4-1.3.4zM30.8 76.5c0 1 .6 1.8 1.6 1.8.5 0 1-.1 1.3-.4l.1.6c-.4.2-.9.4-1.5.4-1.3 0-2.2-1-2.2-2.4S31 74 32.3 74c1 0 1.7.7 1.7 1.7 0 .2 0 .5-.1.7l-3.1.1zm2.5-.6v-.2c0-.7-.4-1.2-1.1-1.2-.8 0-1.3.6-1.4 1.4h2.5zM40.5 72l.6-.1v6.8h-.6v-.4c-.3.3-.8.6-1.3.6-1.2 0-2-1-2-2.4s.9-2.4 2.3-2.4c.4 0 .8.1 1.1.2V72zm-1.2 2.6c-1 0-1.6.8-1.6 1.9 0 1.1.6 1.8 1.5 1.8.5 0 .9-.2 1.2-.5V75c-.2-.3-.6-.4-1.1-.4zM44.9 78.1c-.3.4-.8.7-1.3.7-.8 0-1.4-.5-1.4-1.3s.6-1.5 2.8-1.6v-.3c0-.7-.3-1.1-1.1-1.1-.5 0-1.1.3-1.5.5l-.1-.6c.4-.3 1.1-.5 1.7-.5 1.1 0 1.6.5 1.6 1.6v2.2c0 .3.1.5.5.5v.5c-.8.1-1.1-.1-1.2-.6zm0-1.8c-1.6.2-2.1.5-2.1 1.1 0 .5.4.8.9.8s.9-.3 1.2-.6v-1.3zM47.2 73.1c-.3 0-.4-.2-.4-.5 0-.2.1-.4.4-.4.3 0 .4.2.4.4s-.1.5-.4.5zm-.3 5.6v-4.6l.6-.1v4.7h-.6zM49 78.7V72l.6-.1v6.8H49zM52.7 78.6l-.4 1c-.4 1.1-.9 1.4-1.5 1.4-.3 0-.6-.1-.9-.2l.2-.6c.2.1.4.2.7.2.3 0 .6-.2.9-1.1l.3-.8-1.8-4.5h.8l1.4 3.8 1.4-3.8h.6l-1.7 4.6z"/></g><path class="st0" d="M206.2 8.9h.6v71.9h-.6z"/><g><defs><path id="SVGID_00000070102326307015790010000003737299355615942070_" d="M138.7 15.6h18.7v28.2h-18.7z"/></defs><clipPath id="SVGID_00000135672608354617535800000008642587045641550510_"><use xlink:href="#SVGID_00000070102326307015790010000003737299355615942070_" overflow="visible"/></clipPath><g clip-path="url(#SVGID_00000135672608354617535800000008642587045641550510_)"><defs><path id="SVGID_00000070114420127090806320000013078798962140651422_" d="M138.1 15h20v29h-20z"/></defs><clipPath id="SVGID_00000139291548844026870060000012594038547696016283_"><use xlink:href="#SVGID_00000070114420127090806320000013078798962140651422_" overflow="visible"/></clipPath><g clip-path="url(#SVGID_00000139291548844026870060000012594038547696016283_)"><defs><path id="SVGID_00000134943176234214954360000017211289008882526372_" d="M138.7 15.6h18.7v28.2h-18.7z"/></defs><clipPath id="SVGID_00000178171168350965427770000017517669018321386126_"><use xlink:href="#SVGID_00000134943176234214954360000017211289008882526372_" overflow="visible"/></clipPath><g clip-path="url(#SVGID_00000178171168350965427770000017517669018321386126_)"><defs><path id="SVGID_00000172416282940960898370000000561314788837503123_" d="M138.1 15h20v29h-20z"/></defs><clipPath id="SVGID_00000114770296309792673060000015706104263674501251_"><use xlink:href="#SVGID_00000172416282940960898370000000561314788837503123_" overflow="visible"/></clipPath><g clip-path="url(#SVGID_00000114770296309792673060000015706104263674501251_)"><defs><path id="SVGID_00000103955122248019254470000007037145482579817374_" d="M138.7 15.6h18.8v28.2h-18.8z"/></defs><clipPath id="SVGID_00000013152584391776817790000002983268109480490680_"><use xlink:href="#SVGID_00000103955122248019254470000007037145482579817374_" overflow="visible"/></clipPath><path d="M157.4 35.3c0 5.3-4.8 8.5-10.7 8.5-2.8 0-5.6-.6-8.1-1.9l.7-5.1c2.1 1.2 4.4 1.9 6.8 2 2.9.1 4.7-1.1 4.7-3.4 0-2.1-1.5-3.2-4.7-3.3-1.1 0-2.3.1-3.4.2v-4.6c3.6-.7 7-1.5 7-4.2 0-1.7-1.3-2.7-3.8-2.7-1.9 0-4 1-5.8 2.2l-1.4-4.6c2.6-1.9 5.7-2.8 8.8-2.8 5.2 0 9.1 2.7 9.1 6.8 0 3.1-2.4 5.4-5.3 6.4 4.1.7 6.1 3.5 6.1 6.5z" clip-path="url(#SVGID_00000013152584391776817790000002983268109480490680_)" fill="#e01669"/></g></g></g></g></g><g><path class="st2" d="M117.5 67.6v-6.2h3.8v.6h-3.1v2.2h2.6v.6h-2.6V67h3.1v.6h-3.8zM123.2 67.6h-.6v-4h-.7v-.4l.7-.2v-.6c0-1.2.6-1.6 1.4-1.6.3 0 .6.1.8.2l-.1.6c-.2-.1-.4-.2-.7-.2-.5 0-.8.3-.8 1.1v.7h2.4v-.7c0-1.2.6-1.6 1.4-1.6.3 0 .6.1.8.2l-.1.6c-.2-.1-.4-.2-.7-.2-.5 0-.7.3-.7 1.1v.8h1.4v.6h-1.4v4h-.6v-4h-2.4v3.6zM128.8 65.4c0 1 .6 1.8 1.6 1.8.5 0 1-.1 1.3-.4l.1.6c-.4.2-.9.4-1.5.4-1.3 0-2.2-1-2.2-2.4s.9-2.5 2.2-2.5c1 0 1.7.7 1.7 1.7 0 .2 0 .5-.1.7l-3.1.1zm2.5-.6v-.2c0-.7-.4-1.2-1.1-1.2-.8 0-1.3.6-1.4 1.4h2.5zM135.1 67.7c-1.4 0-2.2-1-2.2-2.4s.9-2.4 2.2-2.4c.6 0 1 .1 1.4.4l-.2.6c-.3-.2-.8-.4-1.3-.4-1 0-1.6.7-1.6 1.8s.6 1.8 1.6 1.8c.5 0 .9-.1 1.3-.4l.1.6c-.3.3-.8.4-1.3.4zM138.9 67.7c-.9 0-1.3-.5-1.2-1.4l.1-2.7h-.7v-.4l.7-.2v-1h.6v1.1h1.5v.5h-1.5l-.1 2.7c0 .6.2.9.7.9.3 0 .6-.1.9-.2l.1.5c-.4.2-.8.2-1.1.2zM141.2 62c-.3 0-.4-.2-.4-.5 0-.2.1-.4.4-.4.3 0 .4.2.4.4 0 .3-.1.5-.4.5zm-.3 5.6V63l.6-.1v4.7h-.6zM144.7 67.6h-.6l-1.8-4.6h.7l1.4 3.8 1.4-3.8h.6l-1.7 4.6zM147.5 65.4c0 1 .6 1.8 1.6 1.8.5 0 1-.1 1.3-.4l.1.6c-.4.2-.9.4-1.5.4-1.3 0-2.2-1-2.2-2.4s.9-2.5 2.2-2.5c1 0 1.7.7 1.7 1.7 0 .2 0 .5-.1.7l-3.1.1zm2.6-.6v-.2c0-.7-.4-1.2-1.1-1.2-.8 0-1.3.6-1.4 1.4h2.5zM157.2 60.9l.6-.1v6.8h-.6v-.4c-.3.3-.8.6-1.3.6-1.2 0-2-1-2-2.4s.9-2.4 2.3-2.4c.4 0 .8.1 1.1.2v-2.3zm-1.1 2.6c-1 0-1.6.8-1.6 1.9 0 1.1.6 1.8 1.5 1.8.5 0 .9-.2 1.2-.5v-2.8c-.3-.3-.7-.4-1.1-.4zM161.1 67.7c-1.3 0-2.2-.9-2.2-2.4s1-2.4 2.3-2.4 2.2.9 2.2 2.4-1 2.4-2.3 2.4zm.1-4.2c-1 0-1.6.8-1.6 1.8 0 1.1.6 1.9 1.6 1.9s1.6-.8 1.6-1.8c0-1.2-.7-1.9-1.6-1.9zM165.6 67.7c-.5 0-1.1-.2-1.5-.4l.2-.6c.4.3.9.4 1.3.4.5 0 1-.3 1-.8s-.6-.7-1.1-.9c-.6-.2-1.3-.5-1.3-1.3s.7-1.3 1.5-1.3c.5 0 1 .1 1.4.3l-.2.6c-.4-.2-.8-.3-1.2-.3-.6 0-.9.3-.9.7 0 .5.5.7 1.1.9.6.2 1.3.5 1.3 1.3.1.9-.6 1.4-1.6 1.4zM168.7 62c-.3 0-.4-.2-.4-.5 0-.2.1-.4.4-.4.3 0 .4.2.4.4 0 .3-.1.5-.4.5zm-.3 5.6V63l.6-.1v4.7h-.6zM173.5 67.6v-2.9c0-.8-.3-1.2-1-1.2-.5 0-1 .3-1.4.6v3.5h-.6V63l.6-.1v.7c.5-.5 1.1-.7 1.6-.7.9 0 1.5.6 1.5 1.6v3.1h-.7zM175.2 66.9c0-.4.3-.7.7-.9-.4-.3-.7-.8-.7-1.4 0-1 .7-1.7 1.8-1.7.5 0 .8.1 1.1.3l1.3-.1v.6l-1-.1c.2.2.4.7.4 1 0 1-.8 1.7-1.8 1.7-.2 0-.4 0-.7-.1-.2.1-.5.3-.5.5 0 .3.2.5 1 .5h.6c1.3 0 1.9.4 1.9 1.2 0 1-1.1 1.7-2.4 1.7-1.2 0-2.1-.5-2.1-1.3 0-.5.4-1 1-1.1-.3-.2-.6-.5-.6-.8zm.3 1.7c0 .5.6.9 1.6.9.9 0 1.7-.5 1.7-1.1 0-.5-.5-.7-1.4-.7h-1c-.6.2-.9.5-.9.9zm1.5-2.8c.7 0 1.1-.5 1.1-1.2s-.4-1.2-1.2-1.2c-.7 0-1.1.5-1.1 1.2s.5 1.2 1.2 1.2zM135.7 79.7c-1.3 0-2.2-.9-2.2-2.4s1-2.4 2.3-2.4 2.2.9 2.2 2.4c-.1 1.4-1 2.4-2.3 2.4zm0-4.3c-1 0-1.6.8-1.6 1.8 0 1.1.6 1.9 1.6 1.9s1.6-.8 1.6-1.8c0-1.1-.6-1.9-1.6-1.9zM141 74.9c1.2 0 2 1 2 2.4s-.9 2.4-2.3 2.4c-.4 0-.8-.1-1.1-.2v2.4h-.6V75l.6-.1v.6c.4-.3.9-.6 1.4-.6zm-1.3 3.9c.3.2.7.4 1.1.4 1 0 1.6-.8 1.6-1.9 0-1.1-.6-1.8-1.5-1.8-.5 0-.9.2-1.2.5v2.8zM145.5 79.7c-.9 0-1.3-.5-1.2-1.4l.1-2.7h-.7v-.4l.7-.2v-1h.6v1.1h1.5v.5H145l-.1 2.7c0 .6.2.9.7.9.3 0 .6-.1.9-.2l.1.5c-.4.1-.8.2-1.1.2zM147.8 73.9c-.3 0-.4-.2-.4-.5 0-.2.1-.4.4-.4.3 0 .4.2.4.4 0 .3-.1.5-.4.5zm-.3 5.7V75l.6-.1v4.7h-.6zM151.5 79.7c-1.3 0-2.2-.9-2.2-2.4s1-2.4 2.3-2.4 2.2.9 2.2 2.4c-.1 1.4-1 2.4-2.3 2.4zm0-4.3c-1 0-1.6.8-1.6 1.8 0 1.1.6 1.9 1.6 1.9s1.6-.8 1.6-1.8c0-1.1-.6-1.9-1.6-1.9zM157.9 79.6v-2.9c0-.8-.3-1.2-1-1.2-.5 0-1 .3-1.4.6v3.5h-.6V75l.6-.1v.7c.5-.5 1.1-.7 1.6-.7.9 0 1.5.6 1.5 1.6v3.1h-.7zM161 79.7c-.5 0-1.1-.2-1.5-.4l.2-.6c.4.3.9.4 1.3.4.5 0 1-.3 1-.8s-.6-.7-1.1-.9c-.6-.2-1.3-.5-1.3-1.3s.7-1.3 1.5-1.3c.5 0 1 .1 1.4.3l-.2.6c-.4-.2-.8-.3-1.2-.3-.6 0-.9.3-.9.7 0 .5.5.7 1.1.9.6.2 1.3.5 1.3 1.3s-.7 1.4-1.6 1.4z"/><path class="st0" d="M306.3 8.9h.6v71.9h-.6z"/></g><g><defs><path id="SVGID_00000168116400199618271610000007600633345079129990_" d="M238.8 10.6H277v38.2h-38.2z"/></defs><clipPath id="SVGID_00000155867456199066515020000003032165128371481989_"><use xlink:href="#SVGID_00000168116400199618271610000007600633345079129990_" overflow="visible"/></clipPath><path clip-path="url(#SVGID_00000155867456199066515020000003032165128371481989_)" fill="none" stroke="#e01669" stroke-width="1.163" stroke-linecap="round" stroke-miterlimit="10" d="M246.3 26.3h23.6M264.1 41.3h-12.2c-3.2 0-5.7-2.6-5.7-5.7V25.4c0-3.2 2.6-5.7 5.7-5.7h12.2c3.2 0 5.7 2.6 5.7 5.7v10.2c0 3.2-2.5 5.7-5.7 5.7zM253.6 18v3M257.8 18v3M262.4 18v3"/><path d="M252.5 31.3c0 .5-.4 1-1 1-.5 0-1-.4-1-1 0-.5.4-1 1-1 .6.1 1 .5 1 1z" clip-path="url(#SVGID_00000155867456199066515020000003032165128371481989_)" fill="#e01669"/><path d="M252.5 31.3c0 .5-.4 1-1 1s-1-.4-1-1c0-.5.4-1 1-1s1 .5 1 1z" clip-path="url(#SVGID_00000155867456199066515020000003032165128371481989_)" fill="none" stroke="#e01669" stroke-width=".931" stroke-miterlimit="10"/><path d="M256.8 31.3c0 .5-.4 1-1 1-.5 0-1-.4-1-1 0-.5.4-1 1-1 .6.1 1 .5 1 1z" clip-path="url(#SVGID_00000155867456199066515020000003032165128371481989_)" fill="#e01669"/><path d="M256.8 31.3c0 .5-.4 1-1 1-.5 0-1-.4-1-1 0-.5.4-1 1-1 .6.1 1 .5 1 1z" clip-path="url(#SVGID_00000155867456199066515020000003032165128371481989_)" fill="none" stroke="#e01669" stroke-width=".931" stroke-miterlimit="10"/><circle cx="260.2" cy="31.3" r="1" clip-path="url(#SVGID_00000155867456199066515020000003032165128371481989_)" fill="#e01669"/><path d="M261.2 31.3c0 .5-.4 1-1 1s-1-.4-1-1c0-.5.4-1 1-1s1 .5 1 1z" clip-path="url(#SVGID_00000155867456199066515020000003032165128371481989_)" fill="none" stroke="#e01669" stroke-width=".931" stroke-miterlimit="10"/><circle cx="264.6" cy="31.3" r="1" clip-path="url(#SVGID_00000155867456199066515020000003032165128371481989_)" fill="#e01669"/><path d="M265.5 31.3c0 .5-.4 1-1 1s-1-.4-1-1c0-.5.4-1 1-1s1 .5 1 1z" clip-path="url(#SVGID_00000155867456199066515020000003032165128371481989_)" fill="none" stroke="#e01669" stroke-width=".931" stroke-miterlimit="10"/><path d="M252.5 35.7c0 .5-.4 1-1 1-.5 0-1-.4-1-1 0-.5.4-1 1-1s1 .4 1 1z" clip-path="url(#SVGID_00000155867456199066515020000003032165128371481989_)" fill="#e01669"/><path d="M252.5 35.7c0 .5-.4 1-1 1s-1-.4-1-1c0-.5.4-1 1-1s1 .4 1 1z" clip-path="url(#SVGID_00000155867456199066515020000003032165128371481989_)" fill="none" stroke="#e01669" stroke-width=".931" stroke-miterlimit="10"/><path d="M256.8 35.7c0 .5-.4 1-1 1-.5 0-1-.4-1-1 0-.5.4-1 1-1s1 .4 1 1z" clip-path="url(#SVGID_00000155867456199066515020000003032165128371481989_)" fill="#e01669"/><path d="M256.8 35.7c0 .5-.4 1-1 1-.5 0-1-.4-1-1 0-.5.4-1 1-1s1 .4 1 1z" clip-path="url(#SVGID_00000155867456199066515020000003032165128371481989_)" fill="none" stroke="#e01669" stroke-width=".931" stroke-miterlimit="10"/><circle cx="260.2" cy="35.7" r="1" clip-path="url(#SVGID_00000155867456199066515020000003032165128371481989_)" fill="#e01669"/><path d="M261.2 35.7c0 .5-.4 1-1 1s-1-.4-1-1c0-.5.4-1 1-1s1 .4 1 1z" clip-path="url(#SVGID_00000155867456199066515020000003032165128371481989_)" fill="none" stroke="#e01669" stroke-width=".931" stroke-miterlimit="10"/><circle cx="264.6" cy="35.7" r="1" clip-path="url(#SVGID_00000155867456199066515020000003032165128371481989_)" fill="#e01669"/><path d="M265.5 35.7c0 .5-.4 1-1 1s-1-.4-1-1c0-.5.4-1 1-1s1 .4 1 1z" clip-path="url(#SVGID_00000155867456199066515020000003032165128371481989_)" fill="none" stroke="#e01669" stroke-width=".931" stroke-miterlimit="10"/><circle cx="257.9" cy="29.7" r="18.6" clip-path="url(#SVGID_00000155867456199066515020000003032165128371481989_)" fill="none" stroke="#9e2065" stroke-width=".931" stroke-miterlimit="10"/><path clip-path="url(#SVGID_00000155867456199066515020000003032165128371481989_)" fill="none" stroke="#9e2065" stroke-width=".931" stroke-miterlimit="10" d="M244.7 42.9l26.4-26.4"/></g><g><path class="st2" d="M238.1 61.4h.6v6.3h-.7l-3.6-5.4v5.3h-.6v-6.2h.7l3.5 5.3v-5.3zM242.1 67.7c-1.3 0-2.2-.9-2.2-2.4s1-2.4 2.3-2.4 2.2.9 2.2 2.4-1 2.4-2.3 2.4zm.1-4.2c-1 0-1.6.8-1.6 1.8 0 1.1.6 1.9 1.6 1.9s1.6-.8 1.6-1.8c0-1.2-.7-1.9-1.6-1.9zM249.1 67.7c-.9 0-1.3-.5-1.2-1.4l.1-2.7h-.7v-.4l.7-.2v-1h.6v1.1h1.5v.5h-1.5l-.1 2.7c0 .6.2.9.7.9.3 0 .6-.1.9-.2l.1.5c-.4.2-.8.2-1.1.2zM251.4 62c-.3 0-.4-.2-.4-.5 0-.2.1-.4.4-.4.3 0 .4.2.4.4 0 .3-.1.5-.4.5zm-.3 5.6V63l.6-.1v4.7h-.6zM254.4 67.7c-.9 0-1.3-.5-1.2-1.4l.1-2.7h-.7v-.4l.7-.2v-1h.6v1.1h1.5v.5h-1.5l-.1 2.7c0 .6.2.9.7.9.3 0 .6-.1.9-.2l.1.5c-.4.2-.8.2-1.1.2zM257.1 67.6h-.6V63l.6-.1v1c.3-.6.7-1 1.3-1 .3 0 .6.1.8.2l-.2.6c-.2-.1-.4-.2-.7-.2-.5 0-.9.4-1.3 1.2v2.9zM262.3 67c-.3.4-.8.7-1.3.7-.8 0-1.4-.5-1.4-1.3s.6-1.5 2.8-1.6v-.3c0-.7-.3-1.1-1.1-1.1-.5 0-1.1.3-1.5.5l-.1-.6c.4-.3 1.1-.5 1.7-.5 1.1 0 1.6.5 1.6 1.6v2.2c0 .3.1.5.5.5v.5c-.7.1-1.1-.1-1.2-.6zm0-1.7c-1.6.2-2.1.5-2.1 1.1 0 .5.4.8.9.8s.9-.3 1.2-.6v-1.3zM265.6 67.7c-.9 0-1.3-.5-1.2-1.4l.1-2.7h-.7v-.4l.7-.2v-1h.6v1.1h1.5v.5H265l-.1 2.7c0 .6.2.9.7.9.3 0 .6-.1.9-.2l.1.5c-.3.2-.7.2-1 .2zM267.9 62c-.3 0-.4-.2-.4-.5 0-.2.1-.4.4-.4.3 0 .4.2.4.4 0 .3-.1.5-.4.5zm-.3 5.6V63l.6-.1v4.7h-.6zM271.6 67.7c-1.3 0-2.2-.9-2.2-2.4s1-2.4 2.3-2.4 2.2.9 2.2 2.4c-.1 1.5-1.1 2.4-2.3 2.4zm0-4.2c-1 0-1.6.8-1.6 1.8 0 1.1.6 1.9 1.6 1.9s1.6-.8 1.6-1.8c0-1.2-.6-1.9-1.6-1.9zM278 67.6v-2.9c0-.8-.3-1.2-1-1.2-.5 0-1 .3-1.4.6v3.5h-.6V63l.6-.1v.7c.5-.5 1.1-.7 1.6-.7.9 0 1.5.6 1.5 1.6v3.1h-.7z"/><g><path class="st2" d="M241 78.7h-.6v-4.6l.6-.1v1c.3-.6.7-1 1.3-1 .3 0 .6.1.8.2l-.2.6c-.2-.1-.4-.2-.7-.2-.5 0-.9.4-1.3 1.2v2.9zM244.2 76.5c0 1 .6 1.8 1.6 1.8.5 0 1-.1 1.3-.4l.1.6c-.4.2-.9.4-1.5.4-1.3 0-2.2-1-2.2-2.4s.9-2.5 2.2-2.5c1 0 1.7.7 1.7 1.7 0 .2 0 .5-.1.7l-3.1.1zm2.6-.6v-.2c0-.7-.4-1.2-1.1-1.2-.8 0-1.3.6-1.4 1.4h2.5zM251.6 81v-2.8c-.3.3-.8.6-1.3.6-1.2 0-2-1-2-2.4s.9-2.4 2.3-2.4c.4 0 .9.1 1.2.3l.5-.3v7h-.7zm-1.1-6.4c-1 0-1.6.8-1.6 1.9 0 1.1.6 1.8 1.5 1.8.5 0 .9-.2 1.2-.5V75c-.2-.3-.7-.4-1.1-.4zM254.3 74.1V77c0 .8.3 1.2 1 1.2.5 0 1-.3 1.4-.6v-3.5h.6v4.6l-.6.1v-.7c-.5.5-1.1.7-1.6.7-.9 0-1.4-.6-1.4-1.6v-3.1h.6zM259 73.1c-.3 0-.4-.2-.4-.5 0-.2.1-.4.4-.4.3 0 .4.2.4.4s-.1.5-.4.5zm-.3 5.6v-4.6l.6-.1v4.7h-.6zM261.4 78.7h-.6v-4.6l.6-.1v1c.3-.6.7-1 1.3-1 .3 0 .6.1.8.2l-.2.6c-.2-.1-.4-.2-.7-.2-.5 0-.9.4-1.3 1.2v2.9zM264.6 76.5c0 1 .6 1.8 1.6 1.8.5 0 1-.1 1.3-.4l.1.6c-.4.2-.9.4-1.5.4-1.3 0-2.2-1-2.2-2.4s.9-2.5 2.2-2.5c1 0 1.7.7 1.7 1.7 0 .2 0 .5-.1.7l-3.1.1zm2.6-.6v-.2c0-.7-.4-1.2-1.1-1.2-.8 0-1.3.6-1.4 1.4h2.5zM272 72l.6-.1v6.8h-.6v-.4c-.3.3-.8.6-1.3.6-1.2 0-2-1-2-2.4s.9-2.4 2.3-2.4c.4 0 .8.1 1.1.2V72zm-1.1 2.6c-1 0-1.6.8-1.6 1.9 0 1.1.6 1.8 1.5 1.8.5 0 .9-.2 1.2-.5V75c-.2-.3-.7-.4-1.1-.4z"/></g><path class="st0" d="M420.9 8.9h.6v71.9h-.6z"/></g><g><defs><path id="SVGID_00000062183511067866446300000013343054710539704986_" d="M345.1 12.8h39.8V46h-39.8z"/></defs><clipPath id="SVGID_00000046326893653562971020000002776428574649762449_"><use xlink:href="#SVGID_00000062183511067866446300000013343054710539704986_" overflow="visible"/></clipPath><path clip-path="url(#SVGID_00000046326893653562971020000002776428574649762449_)" fill="none" stroke="#e01669" stroke-width="1.584" stroke-linecap="round" stroke-miterlimit="10" d="M349.6 15.8l27.9 27.8"/><circle cx="375.6" cy="22.1" r="3.4" clip-path="url(#SVGID_00000046326893653562971020000002776428574649762449_)" fill="none" stroke="#e01669" stroke-width="1.32" stroke-linecap="round" stroke-miterlimit="10"/><path clip-path="url(#SVGID_00000046326893653562971020000002776428574649762449_)" fill="none" stroke="#e01669" stroke-width="1.32" stroke-linecap="round" stroke-miterlimit="10" d="M375.6 16.3v-2.8M379.5 18.2l2.3-2.3M380.7 22.1h3.6M379 26.1l2.7 2.6M375.6 27.4V31M371.7 26.1l-2.5 2.6M370.4 22.1h-3.8M371.7 18.2l-2.5-2.5M355.9 29.5s3.5 11.1-9.7 11.1c0 0 5.4 9.2 12.9 1.8.1 0 7-6.8-3.2-12.9z"/></g><g><path class="st2" d="M336.6 62v5.6h-.6V62h-2.2v-.6h5v.6h-2.2zM341.3 67c-.3.4-.8.7-1.3.7-.8 0-1.4-.5-1.4-1.3s.6-1.5 2.8-1.6v-.3c0-.7-.3-1.1-1.1-1.1-.5 0-1.1.3-1.5.5l-.1-.6c.4-.3 1.1-.5 1.7-.5 1.1 0 1.6.5 1.6 1.6v2.2c0 .3.1.5.5.5v.5c-.8.1-1.1-.1-1.2-.6zm0-1.7c-1.6.2-2.1.5-2.1 1.1 0 .5.4.8.9.8s.9-.3 1.2-.6v-1.3zM343.9 65.3v2.3h-.6v-6.7l.6-.1v4.4L346 63h.8l-2.2 2.2 2.2 2.4h-.8l-2.1-2.3zM347.9 65.4c0 1 .6 1.8 1.6 1.8.5 0 1-.1 1.3-.4l.1.6c-.4.2-.9.4-1.5.4-1.3 0-2.2-1-2.2-2.4s.9-2.5 2.2-2.5c1 0 1.7.7 1.7 1.7 0 .2 0 .5-.1.7l-3.1.1zm2.5-.6v-.2c0-.7-.4-1.2-1.1-1.2-.8 0-1.3.6-1.4 1.4h2.5zM355.2 67.6v-2.9c0-.8-.3-1.2-1-1.2-.5 0-1 .3-1.4.6v3.5h-.6V63l.6-.1v.7c.5-.5 1.1-.7 1.6-.7.9 0 1.5.6 1.5 1.6v3.1h-.7zM361.9 67c-.3.4-.8.7-1.3.7-.8 0-1.4-.5-1.4-1.3s.6-1.5 2.8-1.6v-.3c0-.7-.3-1.1-1.1-1.1-.5 0-1.1.3-1.5.5l-.1-.6c.4-.3 1.1-.5 1.7-.5 1.1 0 1.6.5 1.6 1.6v2.2c0 .3.1.5.5.5v.5c-.8.1-1.1-.1-1.2-.6zm0-1.7c-1.6.2-2.1.5-2.1 1.1 0 .5.4.8.9.8s.9-.3 1.2-.6v-1.3zM366.9 67.6v-2.9c0-.8-.3-1.2-1-1.2-.5 0-1 .3-1.4.6v3.5h-.6V63l.6-.1v.7c.5-.5 1.1-.7 1.6-.7.9 0 1.5.6 1.5 1.6v3.1h-.7zM370.6 67.5l-.4 1c-.4 1.1-.9 1.4-1.5 1.4-.3 0-.6-.1-.9-.2l.2-.6c.2.1.4.2.7.2.3 0 .6-.2.9-1.1l.3-.8-1.8-4.5h.7l1.4 3.8 1.4-3.8h.6l-1.6 4.6zM376.6 67.7c-.9 0-1.3-.5-1.2-1.4l.1-2.7h-.7v-.4l.7-.2v-1h.6v1.1h1.5v.5H376l-.1 2.7c0 .6.2.9.7.9.3 0 .6-.1.9-.2l.1.5c-.3.2-.7.2-1 .2zM379 62c-.3 0-.4-.2-.4-.5 0-.2.1-.4.4-.4s.4.2.4.4c0 .3-.2.5-.4.5zm-.4 5.6V63l.6-.1v4.7h-.6zM386.4 67.6v-2.9c0-.8-.3-1.2-1-1.2-.5 0-.9.3-1.3.6v3.5h-.6v-2.9c0-.8-.3-1.2-1-1.2-.5 0-.9.2-1.3.5v3.6h-.6V63l.6-.1v.6c.5-.4 1-.6 1.4-.6.6 0 1 .2 1.2.8.5-.5 1.1-.8 1.6-.8.9 0 1.4.6 1.4 1.6v3.1h-.4zM388.8 65.4c0 1 .6 1.8 1.6 1.8.5 0 1-.1 1.3-.4l.1.6c-.4.2-.9.4-1.5.4-1.3 0-2.2-1-2.2-2.4s.9-2.5 2.2-2.5c1 0 1.7.7 1.7 1.7 0 .2 0 .5-.1.7l-3.1.1zm2.5-.6v-.2c0-.7-.4-1.2-1.1-1.2-.8 0-1.3.6-1.4 1.4h2.5z"/><g><path class="st2" d="M354.9 78.8c-1.3 0-2.2-.9-2.2-2.4s1-2.4 2.3-2.4 2.2.9 2.2 2.4c-.1 1.4-1.1 2.4-2.3 2.4zm0-4.3c-1 0-1.6.8-1.6 1.8 0 1.1.6 1.9 1.6 1.9s1.6-.8 1.6-1.8c0-1.1-.6-1.9-1.6-1.9zM360.4 72.5c-.2-.1-.4-.2-.7-.2-.5 0-.8.3-.8 1.1v.8h1.4v.5H359v4h-.6v-4h-.7v-.4l.7-.2v-.7c0-1.2.6-1.6 1.4-1.6.3 0 .6.1.8.2 0-.1-.2.5-.2.5zM366.6 72l.6-.1v6.8h-.6v-.4c-.3.3-.8.6-1.3.6-1.2 0-2-1-2-2.4s.9-2.4 2.3-2.4c.4 0 .8.1 1.1.2V72zm-1.2 2.6c-1 0-1.6.8-1.6 1.9 0 1.1.6 1.8 1.5 1.8.5 0 .9-.2 1.2-.5V75c-.2-.3-.6-.4-1.1-.4zM371 78.1c-.3.4-.8.7-1.3.7-.8 0-1.4-.5-1.4-1.3s.6-1.5 2.8-1.6v-.3c0-.7-.3-1.1-1.1-1.1-.5 0-1.1.3-1.5.5l-.1-.6c.4-.3 1.1-.5 1.7-.5 1.1 0 1.6.5 1.6 1.6v2.2c0 .3.1.5.5.5v.5c-.8.1-1.1-.1-1.2-.6zm0-1.8c-1.6.2-2.1.5-2.1 1.1 0 .5.4.8.9.8s.9-.3 1.2-.6v-1.3z"/><path class="st2" d="M374.6 78.6l-.4 1c-.4 1.1-.9 1.4-1.5 1.4-.3 0-.6-.1-.9-.2l.2-.6c.2.1.4.2.7.2.3 0 .6-.2.9-1.1l.3-.8-1.8-4.5h.7l1.4 3.8 1.4-3.8h.6l-1.6 4.6z"/></g><path class="st0" d="M529.4 8.9h.6v71.9h-.6z"/></g><g><defs><path id="SVGID_00000091738074134774466750000002748889582936491915_" d="M451.4 8.9h50.9v41.5h-50.9z"/></defs><clipPath id="SVGID_00000090294003118658438020000014787845154868088236_"><use xlink:href="#SVGID_00000091738074134774466750000002748889582936491915_" overflow="visible"/></clipPath><path d="M476.9 14.3c8.6 0 15.6 7 15.6 15.6s-7 15.6-15.6 15.6" clip-path="url(#SVGID_00000090294003118658438020000014787845154868088236_)" fill="none" stroke="#e01669" stroke-width=".945" stroke-miterlimit="10" stroke-dasharray="2.1593,1.6195"/><path d="M477.1 45.4c-8.6 0-15.6-7-15.6-15.6s7-15.6 15.6-15.6" clip-path="url(#SVGID_00000090294003118658438020000014787845154868088236_)" fill="none" stroke="#e01669" stroke-width="1.08" stroke-linecap="round" stroke-miterlimit="10"/><path d="M501.8 13.9v28.5c.1.4-.1.9-.4 1.2-.3.3-.7.5-1.2.4-.9 0-1.6-.7-1.6-1.6l.8-10.1h-2.7c0-.1-.6-19.9 5.1-18.4z" clip-path="url(#SVGID_00000090294003118658438020000014787845154868088236_)" fill="none" stroke="#e01669" stroke-width=".945" stroke-miterlimit="10" stroke-dasharray="2.1593,1.6195"/><path d="M451.9 14.9v8.9s.1 3.6 2.4 3.6v14.3s-.2 2.2.9 2.2c0 0 1.4.4 1.4-2V27.3s2.3.1 2.3-3.6v-8.9M455.4 14.9v8.9M451.9 23.8h6.9" clip-path="url(#SVGID_00000090294003118658438020000014787845154868088236_)" fill="none" stroke="#e01669" stroke-width="1.08" stroke-linecap="round" stroke-miterlimit="10"/><path d="M477 21.2c4.7 0 8.6 3.8 8.6 8.6 0 4.7-3.8 8.6-8.6 8.6" clip-path="url(#SVGID_00000090294003118658438020000014787845154868088236_)" fill="none" stroke="#e01669" stroke-width=".945" stroke-miterlimit="10" stroke-dasharray="2.1593,1.6195"/><path d="M477 38.4c-4.7 0-8.6-3.9-8.6-8.6 0-4.7 3.8-8.6 8.6-8.6" clip-path="url(#SVGID_00000090294003118658438020000014787845154868088236_)" fill="none" stroke="#e01669" stroke-width="1.08" stroke-linecap="round" stroke-miterlimit="10"/><path clip-path="url(#SVGID_00000090294003118658438020000014787845154868088236_)" fill="none" stroke="#e01669" stroke-width="1.619" stroke-miterlimit="10" d="M476.9 9.7v39.9"/></g><g><path class="st2" d="M451 62v5.6h-.6V62h-2.2v-.6h5v.6H451zM455.7 67c-.3.4-.8.7-1.3.7-.8 0-1.4-.5-1.4-1.3s.6-1.5 2.8-1.6v-.3c0-.7-.3-1.1-1.1-1.1-.5 0-1.1.3-1.5.5l-.1-.6c.4-.3 1.1-.5 1.7-.5 1.1 0 1.6.5 1.6 1.6v2.2c0 .3.1.5.5.5v.5c-.8.1-1.1-.1-1.2-.6zm0-1.7c-1.6.2-2.1.5-2.1 1.1 0 .5.4.8.9.8s.9-.3 1.2-.6v-1.3zM458.3 65.3v2.3h-.6v-6.7l.6-.1v4.4l2.1-2.1h.8l-2.2 2.2 2.2 2.4h-.8l-2.1-2.4zM462.3 65.4c0 1 .6 1.8 1.6 1.8.5 0 1-.1 1.3-.4l.1.6c-.4.2-.9.4-1.5.4-1.3 0-2.2-1-2.2-2.4s.9-2.5 2.2-2.5c1 0 1.7.7 1.7 1.7 0 .2 0 .5-.1.7l-3.1.1zm2.5-.6v-.2c0-.7-.4-1.2-1.1-1.2-.8 0-1.3.6-1.4 1.4h2.5zM469.6 67.6v-2.9c0-.8-.3-1.2-1-1.2-.5 0-1 .3-1.4.6v3.5h-.6V63l.6-.1v.7c.5-.5 1.1-.7 1.6-.7.9 0 1.5.6 1.5 1.6v3.1h-.7zM474.7 67.6l-1.4-4.6h.7l1.1 3.6 1.2-3.6h.6l1.2 3.6.9-3.6h.7l-1.4 4.6h-.5l-1.2-3.7-1.2 3.7h-.7zM480.8 62c-.3 0-.4-.2-.4-.5 0-.2.1-.4.4-.4s.4.2.4.4c0 .3-.1.5-.4.5zm-.3 5.6V63l.6-.1v4.7h-.6zM483.8 67.7c-.9 0-1.3-.5-1.2-1.4l.1-2.7h-.7v-.4l.7-.2v-1h.6v1.1h1.5v.5h-1.5l-.1 2.7c0 .6.2.9.7.9.3 0 .6-.1.9-.2l.1.5c-.4.2-.7.2-1.1.2zM488.9 67.6v-2.9c0-.8-.3-1.2-1-1.2-.5 0-1 .3-1.4.6v3.5h-.6v-6.7l.6-.1v2.9c.5-.5 1.1-.7 1.6-.7.9 0 1.4.6 1.4 1.6v3.1h-.6zM495.1 67.7c-1.3 0-2.2-.9-2.2-2.4s1-2.4 2.3-2.4 2.2.9 2.2 2.4c-.1 1.5-1.1 2.4-2.3 2.4zm0-4.2c-1 0-1.6.8-1.6 1.8 0 1.1.6 1.9 1.6 1.9s1.6-.8 1.6-1.8c0-1.2-.6-1.9-1.6-1.9zM499.1 67.6h-.6V63l.6-.1v1c.3-.6.7-1 1.3-1 .3 0 .6.1.8.2l-.2.6c-.2-.1-.4-.2-.7-.2-.5 0-.9.4-1.3 1.2v2.9z"/><g><path class="st2" d="M450.7 78.7l-1.4-4.6h.7l1.1 3.6 1.2-3.6h.6l1.2 3.6.9-3.7h.7l-1.4 4.6h-.5l-1.2-3.7-1.2 3.7h-.7zM456.8 73.1c-.3 0-.4-.2-.4-.5 0-.2.1-.4.4-.4s.4.2.4.4-.1.5-.4.5zm-.3 5.6v-4.6l.6-.1v4.7h-.6zM459.8 78.8c-.9 0-1.3-.5-1.2-1.4l.1-2.7h-.7v-.4l.7-.2v-1h.6v1.1h1.5v.5h-1.5l-.1 2.7c0 .6.2.9.7.9.3 0 .6-.1.9-.2l.1.5c-.4.1-.8.2-1.1.2zM464.8 78.7v-2.9c0-.8-.3-1.2-1-1.2-.5 0-1 .3-1.4.6v3.5h-.6V72l.6-.1v2.9c.5-.5 1.1-.7 1.6-.7.9 0 1.4.6 1.4 1.6v3.1h-.6zM468.8 78.8c-1.3 0-2.2-.9-2.2-2.4s1-2.4 2.3-2.4 2.2.9 2.2 2.4c-.1 1.4-1.1 2.4-2.3 2.4zm0-4.3c-1 0-1.6.8-1.6 1.8 0 1.1.6 1.9 1.6 1.9s1.6-.8 1.6-1.8c0-1.1-.7-1.9-1.6-1.9zM472.7 74.1V77c0 .8.3 1.2 1 1.2.5 0 1-.3 1.4-.6v-3.5h.6v4.6l-.6.1v-.7c-.5.5-1.1.7-1.6.7-.9 0-1.4-.6-1.4-1.6v-3.1h.6zM478.4 78.8c-.9 0-1.3-.5-1.2-1.4l.1-2.7h-.7v-.4l.7-.2v-1h.6v1.1h1.5v.5h-1.5l-.1 2.7c0 .6.2.9.7.9.3 0 .6-.1.9-.2l.1.5c-.4.1-.7.2-1.1.2zM484.9 72.5c-.2-.1-.4-.2-.7-.2-.5 0-.8.3-.8 1.1v.8h1.4v.5h-1.4v4h-.6v-4h-.7v-.4l.7-.2v-.7c0-1.2.6-1.6 1.4-1.6.3 0 .6.1.8.2.1-.1-.1.5-.1.5zM487.6 78.8c-1.3 0-2.2-.9-2.2-2.4s1-2.4 2.3-2.4 2.2.9 2.2 2.4c0 1.4-1 2.4-2.3 2.4zm0-4.3c-1 0-1.6.8-1.6 1.8 0 1.1.6 1.9 1.6 1.9s1.6-.8 1.6-1.8c.1-1.1-.6-1.9-1.6-1.9zM492.9 78.8c-1.3 0-2.2-.9-2.2-2.4s1-2.4 2.3-2.4 2.2.9 2.2 2.4c-.1 1.4-1 2.4-2.3 2.4zm0-4.3c-1 0-1.6.8-1.6 1.8 0 1.1.6 1.9 1.6 1.9s1.6-.8 1.6-1.8c0-1.1-.6-1.9-1.6-1.9zM499.4 72l.6-.1v6.8h-.6v-.4c-.3.3-.8.6-1.3.6-1.2 0-2-1-2-2.4s.9-2.4 2.3-2.4c.4 0 .8.1 1.1.2V72zm-1.2 2.6c-1 0-1.6.8-1.6 1.9 0 1.1.6 1.8 1.5 1.8.5 0 .9-.2 1.2-.5V75c-.2-.3-.6-.4-1.1-.4z"/></g></g><g><defs><path id="SVGID_00000109710992305625964230000014993376679028185226_" d="M586.4 12.8h33.2V46h-33.2z"/></defs><clipPath id="SVGID_00000180332346139883053520000007454603707925355939_"><use xlink:href="#SVGID_00000109710992305625964230000014993376679028185226_" overflow="visible"/></clipPath><circle cx="603" cy="29.4" r="15.7" clip-path="url(#SVGID_00000180332346139883053520000007454603707925355939_)" fill="none" stroke="#e01669" stroke-width="1.845" stroke-linecap="round" stroke-miterlimit="10"/><path clip-path="url(#SVGID_00000180332346139883053520000007454603707925355939_)" fill="none" stroke="#e01669" stroke-width="1.845" stroke-linecap="round" stroke-miterlimit="10" d="M603.1 37V21.7M610.8 29.3h-15.3"/></g><g><path class="st2" d="M577.1 67.6h-.6l-.7-1.8H573l-.7 1.8h-.6l2.4-6.2h.7l2.3 6.2zm-2.7-5.6l-1.2 3.2h2.4l-1.2-3.2zM581 60.9l.6-.1v6.8h-.6v-.4c-.3.3-.8.6-1.3.6-1.2 0-2-1-2-2.4s.9-2.4 2.3-2.4c.4 0 .8.1 1.1.2v-2.3zm-1.1 2.6c-1 0-1.6.8-1.6 1.9 0 1.1.6 1.8 1.5 1.8.5 0 .9-.2 1.2-.5v-2.8c-.3-.3-.7-.4-1.1-.4zM586.1 60.9l.6-.1v6.8h-.6v-.4c-.3.3-.8.6-1.3.6-1.2 0-2-1-2-2.4s.9-2.4 2.3-2.4c.4 0 .8.1 1.1.2v-2.3zm-1.1 2.6c-1 0-1.6.8-1.6 1.9 0 1.1.6 1.8 1.5 1.8.5 0 .9-.2 1.2-.5v-2.8c-.2-.3-.7-.4-1.1-.4zM588.5 65.4c0 1 .6 1.8 1.6 1.8.5 0 1-.1 1.3-.4l.1.6c-.4.2-.9.4-1.5.4-1.3 0-2.2-1-2.2-2.4s.9-2.5 2.2-2.5c1 0 1.7.7 1.7 1.7 0 .2 0 .5-.1.7l-3.1.1zm2.6-.6v-.2c0-.7-.4-1.2-1.1-1.2-.8 0-1.3.6-1.4 1.4h2.5zM595.9 60.9l.6-.1v6.8h-.6v-.4c-.3.3-.8.6-1.3.6-1.2 0-2-1-2-2.4s.9-2.4 2.3-2.4c.4 0 .8.1 1.1.2v-2.3zm-1.1 2.6c-1 0-1.6.8-1.6 1.9 0 1.1.6 1.8 1.5 1.8.5 0 .9-.2 1.2-.5v-2.8c-.2-.3-.7-.4-1.1-.4zM601.5 67.7c-.9 0-1.3-.5-1.2-1.4l.1-2.7h-.7v-.4l.7-.2v-1h.6v1.1h1.5v.5H601l-.1 2.7c0 .6.2.9.7.9.3 0 .6-.1.9-.2l.1.5c-.4.2-.8.2-1.1.2zM605.4 67.7c-1.3 0-2.2-.9-2.2-2.4s1-2.4 2.3-2.4 2.2.9 2.2 2.4c-.1 1.5-1 2.4-2.3 2.4zm0-4.2c-1 0-1.6.8-1.6 1.8 0 1.1.6 1.9 1.6 1.9s1.6-.8 1.6-1.8c0-1.2-.6-1.9-1.6-1.9zM612.2 67.7c-.5 0-1.1-.2-1.5-.4l.2-.6c.4.3.9.4 1.3.4.5 0 1-.3 1-.8s-.6-.7-1.1-.9c-.6-.2-1.3-.5-1.3-1.3s.7-1.3 1.5-1.3c.5 0 1 .1 1.4.3l-.2.6c-.4-.2-.8-.3-1.2-.3-.6 0-.9.3-.9.7 0 .5.5.7 1.1.9.6.2 1.3.5 1.3 1.3 0 .9-.7 1.4-1.6 1.4zM616.2 67.7c-.9 0-1.3-.5-1.2-1.4l.1-2.7h-.7v-.4l.6-.2v-1h.6v1.1h1.5v.5h-1.5l-.1 2.7c0 .6.2.9.7.9.3 0 .6-.1.9-.2l.1.5c-.3.2-.7.2-1 .2zM620.6 67c-.3.4-.8.7-1.3.7-.8 0-1.4-.5-1.4-1.3s.6-1.5 2.8-1.6v-.3c0-.7-.3-1.1-1.1-1.1-.5 0-1.1.3-1.5.5l-.1-.6c.4-.3 1.1-.5 1.7-.5 1.1 0 1.6.5 1.6 1.6v2.2c0 .3.1.5.5.5v.5c-.8.1-1.1-.1-1.2-.6zm0-1.7c-1.6.2-2.1.5-2.1 1.1 0 .5.4.8.9.8s.9-.3 1.2-.6v-1.3zM624.3 67.7c-.4 0-.8-.1-1.1-.2l-.6.3v-6.9l.6-.1v2.8c.3-.3.8-.6 1.4-.6 1.2 0 2 1 2 2.3 0 1.4-1 2.4-2.3 2.4zm.1-4.2c-.5 0-.9.2-1.3.5v2.8c.3.2.7.4 1.1.4 1 0 1.6-.8 1.6-1.9.1-1.1-.5-1.8-1.4-1.8zM627.7 67.6v-6.7l.6-.1v6.8h-.6zM630 65.4c0 1 .6 1.8 1.6 1.8.5 0 1-.1 1.3-.4l.1.6c-.4.2-.9.4-1.5.4-1.3 0-2.2-1-2.2-2.4s.9-2.5 2.2-2.5c1 0 1.7.7 1.7 1.7 0 .2 0 .5-.1.7l-3.1.1zm2.6-.6v-.2c0-.7-.4-1.2-1.1-1.2-.8 0-1.3.6-1.4 1.4h2.5z"/><g><path class="st2" d="M562.4 78.1c-.3.4-.8.7-1.3.7-.8 0-1.4-.5-1.4-1.3s.6-1.5 2.8-1.6v-.3c0-.7-.3-1.1-1.1-1.1-.5 0-1.1.3-1.5.5l-.1-.6c.4-.3 1.1-.5 1.7-.5 1.1 0 1.6.5 1.6 1.6v2.2c0 .3.1.5.5.5v.5c-.8.1-1.1-.1-1.2-.6zm0-1.8c-1.6.2-2.1.5-2.1 1.1 0 .5.4.8.9.8s.9-.3 1.2-.6v-1.3zM567.4 78.7v-2.9c0-.8-.3-1.2-1-1.2-.5 0-1 .3-1.4.6v3.5h-.6v-4.6l.6-.1v.7c.5-.5 1.1-.7 1.6-.7.9 0 1.5.6 1.5 1.6v3.1h-.7zM570.7 78.8c-.9 0-1.3-.5-1.2-1.4l.1-2.7h-.7v-.4l.7-.2v-1h.6v1.1h1.5v.5h-1.5l-.1 2.7c0 .6.2.9.7.9.3 0 .6-.1.9-.2l.1.5c-.4.1-.8.2-1.1.2zM573 73.1c-.3 0-.4-.2-.4-.5 0-.2.1-.4.4-.4s.4.2.4.4-.1.5-.4.5zm-.3 5.6v-4.6l.6-.1v4.7h-.6zM576.7 74c1.2 0 2 1 2 2.4s-.9 2.4-2.3 2.4c-.4 0-.8-.1-1.1-.2V81h-.6v-6.9l.6-.1v.6c.4-.3.9-.6 1.4-.6zm-1.3 3.9c.3.2.7.4 1.1.4 1 0 1.6-.8 1.6-1.9 0-1.1-.6-1.8-1.5-1.8-.5 0-.9.2-1.2.5v2.8zM581 78.8c-.5 0-1.1-.2-1.5-.4l.2-.6c.4.3.9.4 1.3.4.5 0 1-.3 1-.8s-.6-.7-1.1-.9c-.6-.2-1.3-.5-1.3-1.3s.7-1.3 1.5-1.3c.5 0 1 .1 1.4.3l-.2.6c-.4-.2-.8-.3-1.2-.3-.6 0-.9.3-.9.7 0 .5.5.7 1.1.9.6.2 1.3.5 1.3 1.3.1.9-.7 1.4-1.6 1.4zM585.5 78.6l-.4 1c-.4 1.1-.9 1.4-1.5 1.4-.3 0-.6-.1-.9-.2l.2-.6c.2.1.4.2.7.2.3 0 .6-.2.9-1.1l.3-.8L583 74h.7l1.4 3.8 1.4-3.8h.6l-1.6 4.6zM589.9 78.8c-1.4 0-2.2-1-2.2-2.4s.9-2.4 2.2-2.4c.6 0 1 .1 1.4.4l-.2.6c-.3-.2-.8-.4-1.3-.4-1 0-1.6.7-1.6 1.8s.6 1.8 1.6 1.8c.5 0 .9-.1 1.3-.4l.1.6c-.3.2-.8.4-1.3.4zM595.4 78.7v-2.9c0-.8-.3-1.2-1-1.2-.5 0-1 .3-1.4.6v3.5h-.6V72l.6-.1v2.9c.5-.5 1.1-.7 1.6-.7.9 0 1.4.6 1.4 1.6v3.1h-.6zM599.4 78.8c-1.3 0-2.2-.9-2.2-2.4s1-2.4 2.3-2.4 2.2.9 2.2 2.4c-.1 1.4-1.1 2.4-2.3 2.4zm0-4.3c-1 0-1.6.8-1.6 1.8 0 1.1.6 1.9 1.6 1.9s1.6-.8 1.6-1.8c0-1.1-.6-1.9-1.6-1.9zM604 78.8c-.9 0-1.3-.5-1.2-1.4l.1-2.7h-.7v-.4l.7-.2v-1h.6v1.1h1.5v.5h-1.5l-.1 2.7c0 .6.2.9.7.9.3 0 .6-.1.9-.2l.1.5c-.4.1-.8.2-1.1.2zM606.4 73.1c-.3 0-.4-.2-.4-.5 0-.2.1-.4.4-.4s.4.2.4.4-.2.5-.4.5zm-.4 5.6v-4.6l.6-.1v4.7h-.6zM610 78.8c-1.4 0-2.2-1-2.2-2.4s.9-2.4 2.2-2.4c.6 0 1 .1 1.4.4l-.2.6c-.3-.2-.8-.4-1.3-.4-1 0-1.6.7-1.6 1.8s.6 1.8 1.6 1.8c.5 0 .9-.1 1.3-.4l.1.6c-.2.2-.7.4-1.3.4zM615.5 78.7h-.6v-4.6l.6-.1v1c.3-.6.7-1 1.3-1 .3 0 .6.1.8.2l-.2.6c-.2-.1-.4-.2-.7-.2-.5 0-.9.4-1.3 1.2v2.9zM618.7 76.5c0 1 .6 1.8 1.6 1.8.5 0 1-.1 1.3-.4l.1.6c-.4.2-.9.4-1.5.4-1.3 0-2.2-1-2.2-2.4s.9-2.5 2.2-2.5c1 0 1.7.7 1.7 1.7 0 .2 0 .5-.1.7l-3.1.1zm2.6-.6v-.2c0-.7-.4-1.2-1.1-1.2-.8 0-1.3.6-1.4 1.4h2.5zM622.8 77.9c0-.4.3-.7.7-.9-.4-.3-.7-.8-.7-1.4 0-1 .7-1.7 1.8-1.7.5 0 .8.1 1.1.3l1.3-.1v.6l-1-.1c.2.2.4.7.4 1 0 1-.8 1.7-1.8 1.7-.2 0-.4 0-.7-.1-.2.1-.5.3-.5.5 0 .3.2.5 1 .5h.6c1.3 0 1.9.4 1.9 1.2 0 1-1.1 1.7-2.4 1.7-1.2 0-2.1-.5-2.1-1.3 0-.5.4-1 1-1.1-.4-.2-.6-.4-.6-.8zm.2 1.8c0 .5.6.9 1.6.9.9 0 1.7-.5 1.7-1.1 0-.5-.5-.7-1.4-.7h-1c-.5.1-.9.5-.9.9zm1.6-2.8c.7 0 1.1-.5 1.1-1.2s-.4-1.2-1.2-1.2c-.7 0-1.1.5-1.1 1.2s.4 1.2 1.2 1.2zM628 73.1c-.3 0-.4-.2-.4-.5 0-.2.1-.4.4-.4s.4.2.4.4c.1.2-.1.5-.4.5zm-.3 5.6v-4.6l.6-.1v4.7h-.6zM635.5 78.7v-2.9c0-.8-.3-1.2-1-1.2-.5 0-.9.3-1.3.6v3.5h-.6v-2.9c0-.8-.3-1.2-1-1.2-.5 0-.9.2-1.3.5v3.6h-.6v-4.6l.6-.1v.6c.5-.4 1-.6 1.4-.6.6 0 1 .2 1.2.8.5-.5 1.1-.8 1.6-.8.9 0 1.4.6 1.4 1.6v3.1h-.4zM637.8 76.5c0 1 .6 1.8 1.6 1.8.5 0 1-.1 1.3-.4l.1.6c-.4.2-.9.4-1.5.4-1.3 0-2.2-1-2.2-2.4s.9-2.5 2.2-2.5c1 0 1.7.7 1.7 1.7 0 .2 0 .5-.1.7l-3.1.1zm2.6-.6v-.2c0-.7-.4-1.2-1.1-1.2-.8 0-1.3.6-1.4 1.4h2.5zM645.2 78.7v-2.9c0-.8-.3-1.2-1-1.2-.5 0-1 .3-1.4.6v3.5h-.6v-4.6l.6-.1v.7c.5-.5 1.1-.7 1.6-.7.9 0 1.5.6 1.5 1.6v3.1h-.7z"/></g></g></svg>