<svg xmlns="http://www.w3.org/2000/svg" viewBox="0 0 299.1 218.4"><style>.st1{fill:#9e2065}.st2{fill:#f9b990}.st3{fill:#bbccd2}.st4{fill:#231f20}.st9{fill:none}.st10{fill:#fff}.st12{enable-background:new}</style><path fill="#f6f8f9" d="M8.6.4h281.6v173.1H8.6z" id="Background"/><g id="Type"><path transform="rotate(90 98.578 20.416)" class="st1" d="M90.5-67.2h16.2V108H90.5z"/><path transform="rotate(90 198.357 20.416)" class="st2" d="M190.3 7.6h16.2v25.6h-16.2z"/><path transform="rotate(90 249.773 20.416)" class="st3" d="M241.7-19h16.2v78.8h-16.2z"/><path transform="rotate(90 69.266 53.019)" class="st1" d="M61.2-5.3h16.2v116.6H61.2z"/><path transform="rotate(90 155.447 53.019)" class="st2" d="M147.4 25.1h16.2V81h-16.2z"/><path transform="rotate(90 236.023 53.019)" class="st3" d="M227.9-.1h16.2v106.3h-16.2z"/><path transform="rotate(90 97.112 86.252)" class="st1" d="M89 .1h16.2v172.3H89z"/><path transform="rotate(90 201.383 86.252)" class="st2" d="M193.3 68.2h16.2v36.1h-16.2z"/><path transform="rotate(90 254.396 86.252)" class="st3" d="M246.3 51.5h16.2v69.6h-16.2z"/><path transform="rotate(90 65.166 119.557)" class="st1" d="M57.1 65.4h16.2v108.4H57.1z"/><path transform="rotate(90 137.41 119.557)" class="st2" d="M129.3 101.6h16.2v35.8h-16.2z"/><path transform="rotate(90 222.108 119.557)" class="st3" d="M214 52.5h16.2v134.2H214z"/><path transform="rotate(90 80.174 152.8)" class="st1" d="M72.1 83.6h16.2V222H72.1z"/><path transform="rotate(90 160.537 152.8)" class="st2" d="M152.4 141.6h16.2v22.3h-16.2z"/><path transform="rotate(90 230.485 152.8)" class="st3" d="M222.4 94.1h16.2v117.4h-16.2z"/><path class="st4" d="M121 181v1h-.4v-1h-1.7l-.1-.3 1.7-2.5h.5v2.4h.6v.4h-.6zm-.5-2.2l-1.2 1.8h1.2v-1.8zM123.4 182.1c-.8 0-1.3-.7-1.3-2 0-1.2.5-2 1.3-2s1.3.7 1.3 2c0 1.2-.5 2-1.3 2zm0-3.5c-.4 0-.8.4-.8 1.5s.4 1.5.8 1.5.8-.5.8-1.5c0-1.1-.4-1.5-.8-1.5zM259.7 182l-.1-.4c.9-.2 1.5-.7 1.7-1.5-.2.2-.6.4-1 .4-.6 0-1-.5-1-1.2s.5-1.2 1.2-1.2c.9 0 1.3.7 1.3 1.6-.1 1-.8 2-2.1 2.3zm.7-3.4c-.4 0-.7.3-.7.8s.3.7.7.7c.3 0 .7-.2.8-.3v-.2c0-.6-.3-1-.8-1zM263.6 182.1c-.8 0-1.3-.7-1.3-2 0-1.2.5-2 1.3-2s1.3.7 1.3 2c0 1.2-.5 2-1.3 2zm0-3.5c-.4 0-.8.4-.8 1.5s.4 1.5.8 1.5c.5 0 .8-.5.8-1.5 0-1.1-.3-1.5-.8-1.5zM93.2 180.9c0 .7-.6 1.2-1.3 1.2-.4 0-.8-.1-1.1-.3l.1-.5c.2.1.6.3 1 .3s.8-.2.8-.7c0-.4-.3-.7-.9-.7-.2 0-.4 0-.6.1v-.4c.7-.2 1.3-.4 1.3-.8 0-.3-.2-.5-.7-.5-.3 0-.7.1-.9.4l-.2-.4c.3-.2.7-.4 1.1-.4.7 0 1.2.3 1.2.9 0 .4-.3.8-1 .9.9 0 1.2.4 1.2.9zM95.2 182.1c-.8 0-1.3-.7-1.3-2 0-1.2.5-2 1.3-2s1.3.7 1.3 2c0 1.2-.5 2-1.3 2zm0-3.5c-.4 0-.8.4-.8 1.5s.4 1.5.8 1.5.8-.5.8-1.5c0-1.1-.4-1.5-.8-1.5zM9.4 182.1c-.8 0-1.3-.7-1.3-2 0-1.2.5-2 1.3-2s1.3.7 1.3 2c0 1.2-.5 2-1.3 2zm0-3.5c-.4 0-.8.4-.8 1.5s.4 1.5.8 1.5.8-.5.8-1.5c0-1.1-.3-1.5-.8-1.5zM203.1 178.7v-.5h2.4l.1.4-1.7 3.3h-.5l1.7-3.3h-2zM207.4 182.1c-.8 0-1.3-.7-1.3-2 0-1.2.5-2 1.3-2s1.3.7 1.3 2c0 1.2-.5 2-1.3 2zm0-3.5c-.4 0-.8.4-.8 1.5s.4 1.5.8 1.5c.5 0 .8-.5.8-1.5 0-1.1-.3-1.5-.8-1.5zM286.9 178.8l-.9.2v-.5l1.4-.4v3.8h-.5v-3.1zM289.8 182.1c-.8 0-1.3-.7-1.3-2 0-1.2.5-2 1.3-2s1.3.7 1.3 2c0 1.2-.5 2-1.3 2zm0-3.5c-.4 0-.8.4-.8 1.5s.4 1.5.8 1.5c.5 0 .8-.5.8-1.5 0-1.1-.3-1.5-.8-1.5zM293 182.1c-.8 0-1.3-.7-1.3-2 0-1.2.5-2 1.3-2s1.3.7 1.3 2c0 1.2-.5 2-1.3 2zm0-3.5c-.4 0-.8.4-.8 1.5s.4 1.5.8 1.5.8-.5.8-1.5c0-1.1-.3-1.5-.8-1.5zM177 178.1l.1.4c-.9.2-1.5.7-1.7 1.5.2-.2.6-.4 1-.4.6 0 1.1.5 1.1 1.2s-.5 1.2-1.2 1.2c-.9 0-1.3-.7-1.3-1.6 0-.9.7-1.9 2-2.3zm-.7 3.5c.4 0 .7-.3.7-.8s-.3-.7-.7-.7c-.3 0-.7.2-.8.3v.2c0 .6.3 1 .8 1zM179.4 182.1c-.8 0-1.3-.7-1.3-2 0-1.2.5-2 1.3-2s1.3.7 1.3 2c0 1.2-.5 2-1.3 2zm0-3.5c-.4 0-.8.4-.8 1.5s.4 1.5.8 1.5c.5 0 .8-.5.8-1.5 0-1.1-.3-1.5-.8-1.5zM148 179.7c.7 0 1.3.4 1.3 1.1 0 .7-.5 1.2-1.3 1.2-.4 0-.8-.1-1-.3l.1-.5c.2.1.6.3.9.3.5 0 .8-.3.8-.8 0-.4-.3-.7-.8-.7-.3 0-.6.1-.8.2l-.1-.1.3-2h1.9v.5h-1.5l-.1 1.1h.3zM151.3 182.1c-.8 0-1.3-.7-1.3-2 0-1.2.5-2 1.3-2s1.3.7 1.3 2c0 1.2-.5 2-1.3 2zm0-3.5c-.4 0-.8.4-.8 1.5s.4 1.5.8 1.5.8-.5.8-1.5c0-1.1-.4-1.5-.8-1.5zM232.4 182.1c-.9 0-1.3-.5-1.3-1s.4-.8.7-1c-.4-.2-.7-.4-.7-.9 0-.6.5-1.1 1.2-1.1.8 0 1.2.5 1.2 1s-.3.8-.6.9c.4.2.7.4.7.9.1.7-.4 1.2-1.2 1.2zm-.2-1.9c-.3.1-.6.4-.6.8s.3.7.8.7.8-.2.8-.6c0-.5-.5-.7-1-.9zm.2-1.7c-.5 0-.7.3-.7.6 0 .4.4.6.9.8.3-.1.5-.4.5-.7 0-.4-.3-.7-.7-.7zM235.6 182.1c-.8 0-1.3-.7-1.3-2 0-1.2.5-2 1.3-2s1.3.7 1.3 2c0 1.2-.6 2-1.3 2zm0-3.5c-.4 0-.8.4-.8 1.5s.4 1.5.8 1.5c.5 0 .8-.5.8-1.5 0-1.1-.4-1.5-.8-1.5zM62.8 182v-.5c1.1-1.1 1.8-1.6 1.8-2.2 0-.4-.3-.7-.7-.7-.3 0-.7.2-.9.4l-.2-.4c.2-.2.7-.4 1.1-.4.7 0 1.2.4 1.2 1.1 0 .7-.6 1.2-1.8 2.3h1.9v.4h-2.4zM67.1 182.1c-.8 0-1.3-.7-1.3-2 0-1.2.5-2 1.3-2s1.3.7 1.3 2c0 1.2-.5 2-1.3 2zm0-3.5c-.4 0-.8.4-.8 1.5s.4 1.5.8 1.5c.5 0 .8-.5.8-1.5 0-1.1-.4-1.5-.8-1.5zM35.9 178.8l-.9.2v-.5l1.4-.4v3.8h-.5v-3.1zM38.8 182.1c-.8 0-1.3-.7-1.3-2 0-1.2.5-2 1.3-2s1.3.7 1.3 2c0 1.2-.5 2-1.3 2zm0-3.5c-.4 0-.8.4-.8 1.5s.4 1.5.8 1.5c.5 0 .8-.5.8-1.5 0-1.1-.4-1.5-.8-1.5z"/><linearGradient id="SVGID_1_" gradientUnits="userSpaceOnUse" x1="11.514" y1="176.859" x2="11.514" y2="176.859"><stop offset="0" stop-color="#d8d8d9" stop-opacity=".25"/><stop offset=".164" stop-color="#dcdcdd" stop-opacity=".487"/><stop offset=".332" stop-color="#e8e8e9" stop-opacity=".731"/><stop offset=".502" stop-color="#fdfdfd" stop-opacity=".978"/><stop offset=".518" stop-color="#fff"/></linearGradient><path fill="url(#SVGID_1_)" d="M11.5 177.8V176"/><linearGradient id="SVGID_00000053518582689510795580000004820806207959616904_" gradientUnits="userSpaceOnUse" x1="24.296" y1="176.859" x2="24.296" y2="176.859"><stop offset="0" stop-color="#d8d8d9" stop-opacity=".25"/><stop offset=".164" stop-color="#dcdcdd" stop-opacity=".487"/><stop offset=".332" stop-color="#e8e8e9" stop-opacity=".731"/><stop offset=".502" stop-color="#fdfdfd" stop-opacity=".978"/><stop offset=".518" stop-color="#fff"/></linearGradient><path fill="url(#SVGID_00000053518582689510795580000004820806207959616904_)" d="M24.3 177.8V176"/><linearGradient id="SVGID_00000045621206773711257850000012702192718443766704_" gradientUnits="userSpaceOnUse" x1="37.078" y1="176.859" x2="37.078" y2="176.859"><stop offset="0" stop-color="#d8d8d9" stop-opacity=".25"/><stop offset=".164" stop-color="#dcdcdd" stop-opacity=".487"/><stop offset=".332" stop-color="#e8e8e9" stop-opacity=".731"/><stop offset=".502" stop-color="#fdfdfd" stop-opacity=".978"/><stop offset=".518" stop-color="#fff"/></linearGradient><path fill="url(#SVGID_00000045621206773711257850000012702192718443766704_)" d="M37.1 177.8V176"/><linearGradient id="SVGID_00000021820052012732734550000016018199915273579413_" gradientUnits="userSpaceOnUse" x1="49.86" y1="176.859" x2="49.86" y2="176.859"><stop offset="0" stop-color="#d8d8d9" stop-opacity=".25"/><stop offset=".164" stop-color="#dcdcdd" stop-opacity=".487"/><stop offset=".332" stop-color="#e8e8e9" stop-opacity=".731"/><stop offset=".502" stop-color="#fdfdfd" stop-opacity=".978"/><stop offset=".518" stop-color="#fff"/></linearGradient><path fill="url(#SVGID_00000021820052012732734550000016018199915273579413_)" d="M49.9 177.8V176"/><path class="st9" d="M12.3 3.5h105.3v6.4H12.3z"/><path class="st4" d="M14.6 7.4c0-.4-.3-.5-.9-.7-.5-.1-1.1-.4-1.1-1.1 0-.6.5-1.1 1.3-1.1.4 0 .8.1 1.2.3l-.2.4c-.3-.2-.7-.3-1-.3-.6.1-.9.3-.9.6 0 .4.4.5 1 .7.5.1 1.1.4 1.1 1.1 0 .6-.5 1.1-1.3 1.1-.4 0-.9-.1-1.3-.4l.2-.5c.3.3.6.5 1.1.5.4 0 .8-.3.8-.6zM18.6 5.3c-.3-.2-.6-.3-1-.3-.8 0-1.4.6-1.4 1.5S16.8 8 17.6 8c.4 0 .8-.2 1.1-.4l.1.5c-.3.2-.7.3-1.2.3-1.1 0-1.9-.8-1.9-2s.8-2 1.9-2c.4 0 .9.1 1.2.3l-.2.6zM22.2 8.4V6.7h-2.1v1.7h-.5V4.6h.5v1.6h2.1V4.6h.5v3.7h-.5zM23.8 8.4V4.6h.5v3.7h-.5zM25.1 8.4V8l2.1-2.9h-2.1v-.5h2.7V5l-2.1 2.9h2.1v.5h-2.7zM30.2 8.4c-1.1 0-1.9-.8-1.9-2 0-1.1.8-2 1.9-2 1.1 0 1.9.8 1.9 1.9-.1 1.3-.8 2.1-1.9 2.1zm0-3.4c-.8 0-1.4.6-1.4 1.5S29.4 8 30.2 8c.8 0 1.4-.6 1.4-1.5-.1-.9-.6-1.5-1.4-1.5zM34 7.1h-.5v1.2H33V4.6h1c1 0 1.5.5 1.5 1.2 0 .9-.6 1.3-1.5 1.3zm0-2h-.5v1.6h.5c.6 0 1-.3 1-.8 0-.6-.4-.8-1-.8zM38.8 8.4V6.7h-2.1v1.7h-.5V4.6h.5v1.6h2.1V4.6h.5v3.7h-.5zM41 8.4h-.5V4.6h1.1c.9 0 1.4.4 1.4 1.1 0 .6-.3.9-.8 1.1l1 1.6h-.6l-.9-1.5h-.6v1.5zm.6-2c.5 0 .9-.3.9-.7 0-.4-.4-.7-.9-.7H41v1.4h.6zM43.9 8.4V4.6h2.4v.5h-1.9v1.2H46v.5h-1.6V8h1.9v.5h-2.4zM49.7 4.6h.5v3.8h-.6l-2-3.1v3h-.5V4.6h.6l2 3v-3zM51.3 8.4V4.6h.5v3.7h-.5zM55.8 8.4h-.5l-.4-1h-1.6l-.4 1h-.5l1.4-3.7h.6l1.4 3.7zm-1.6-3.3l-.6 1.8h1.3l-.7-1.8zM58.1 7c0-1.5 1-2.5 1.7-2.9l.2.3c-.6.4-1.5 1.3-1.5 2.5 0 1.3.8 2.2 1.5 2.5l-.2.3c-.8-.2-1.7-1.2-1.7-2.7zM62 8.4V6.6c0-.4-.1-.6-.5-.6-.3 0-.6.1-.7.3v2.1h-.5V5.6l.5-.1v.4c.3-.3.6-.4.9-.4.6 0 .9.4.9.9v1.9H62zM63.4 6.6v-.4h2.4v.4h-2.4zm0 1.1v-.4h2.3v.4h-2.3zM67.3 5.2l-.9.3V5l1.4-.4v3.8h-.5V5.2zM68.8 5.1v-.5h2.4l.1.4-1.7 3.3h-.5L70.8 5h-2zM72 8.4v-.5c1.1-1.1 1.8-1.6 1.8-2.2 0-.4-.3-.7-.7-.7-.3 0-.7.2-.9.4L72 5c.2-.2.7-.4 1.1-.4.7 0 1.2.4 1.2 1.1 0 .7-.6 1.2-1.8 2.3h1.9v.4H72zM74.9 9.6c.7-.4 1.5-1.3 1.5-2.5 0-1.3-.8-2.2-1.5-2.5l.2-.3c.7.4 1.7 1.4 1.7 2.9s-1 2.5-1.7 2.9l-.2-.5z"/><g><path class="st10" d="M61.8 55.3v1.3h-.6v-1.3h-2.3l-.1-.4 2.3-3.3h.7v3.2h.8v.6h-.8zm-.6-2.9l-1.6 2.4h1.6v-2.4zM63.1 56.6V56c1.5-1.4 2.4-2.1 2.4-3 0-.5-.4-.9-.9-.9-.4 0-.9.2-1.2.5l-.2-.6c.3-.3.9-.6 1.5-.6.9 0 1.6.6 1.6 1.5 0 1-.8 1.6-2.4 3h2.5v.6h-3.3zM68.3 54.1c-.8 0-1.3-.6-1.3-1.3 0-.7.5-1.3 1.3-1.3s1.3.6 1.3 1.3c0 .7-.5 1.3-1.3 1.3zm0-2.3c-.6 0-.9.4-.9.9s.3.9.9.9c.6 0 .9-.4.9-.9s-.3-.9-.9-.9zm-.2 4.9h-.5l4-5.2h.5l-4 5.2zm3.2.1c-.8 0-1.3-.6-1.3-1.3 0-.7.5-1.3 1.3-1.3s1.3.6 1.3 1.3c.1.7-.4 1.3-1.3 1.3zm0-2.2c-.6 0-.9.4-.9.9s.3.9.9.9.9-.4.9-.9-.3-.9-.9-.9z"/></g><g><path class="st4" d="M147.3 56.6V56c1.5-1.4 2.4-2.1 2.4-3 0-.5-.4-.9-.9-.9-.4 0-.9.2-1.2.5l-.2-.6c.3-.3.9-.6 1.5-.6.9 0 1.6.6 1.6 1.5 0 1-.8 1.6-2.4 3h2.5v.6h-3.3zM152.9 56.7c-1.1 0-1.7-1-1.7-2.6s.7-2.6 1.7-2.6 1.7 1 1.7 2.6c.1 1.6-.6 2.6-1.7 2.6zm0-4.6c-.6 0-1 .6-1 2s.5 2 1.1 2 1-.6 1-2-.5-2-1.1-2zM156.6 54.1c-.8 0-1.3-.6-1.3-1.3 0-.7.5-1.3 1.3-1.3s1.3.6 1.3 1.3c0 .7-.5 1.3-1.3 1.3zm0-2.3c-.6 0-.9.4-.9.9s.3.9.9.9c.6 0 .9-.4.9-.9s-.3-.9-.9-.9zm-.2 4.9h-.5l4-5.2h.5l-4 5.2zm3.3.1c-.8 0-1.3-.6-1.3-1.3 0-.7.5-1.3 1.3-1.3s1.3.6 1.3 1.3c0 .7-.5 1.3-1.3 1.3zm0-2.2c-.6 0-.9.4-.9.9s.3.9.9.9.9-.4.9-.9-.4-.9-.9-.9z"/></g><g><path class="st4" d="M236.4 55.2c0 1-.8 1.6-1.8 1.6-.5 0-1.1-.2-1.4-.3l.1-.6c.3.2.8.4 1.3.4.6 0 1.1-.3 1.1-.9 0-.5-.4-.9-1.1-.9-.2 0-.5 0-.7.1v-.5c1-.2 1.7-.6 1.7-1.1 0-.4-.3-.7-.9-.7-.4 0-.9.2-1.2.5l-.2-.6c.4-.3.9-.5 1.5-.5.9 0 1.5.4 1.5 1.2 0 .6-.5 1-1.3 1.3 1-.2 1.4.4 1.4 1zM239 56.7c-1.2 0-1.7-.6-1.7-1.4 0-.7.6-1.1 1-1.3-.5-.2-.9-.6-.9-1.1 0-.8.6-1.4 1.6-1.4 1.1 0 1.6.6 1.6 1.4 0 .6-.5 1-.9 1.2.5.3.9.6.9 1.2 0 .8-.5 1.4-1.6 1.4zm-.3-2.4c-.5.2-.8.5-.8 1s.4.9 1.1.9c.7 0 1-.3 1-.8 0-.6-.6-.9-1.3-1.1zm.3-2.3c-.6 0-1 .4-1 .8 0 .5.6.8 1.2 1 .4-.2.7-.5.7-1 0-.4-.4-.8-.9-.8zM242.6 54.1c-.8 0-1.3-.6-1.3-1.3 0-.7.5-1.3 1.3-1.3s1.3.6 1.3 1.3c.1.7-.4 1.3-1.3 1.3zm0-2.3c-.6 0-.9.4-.9.9s.3.9.9.9c.6 0 .9-.4.9-.9s-.3-.9-.9-.9zm-.2 4.9h-.5l4-5.2h.5l-4 5.2zm3.3.1c-.8 0-1.3-.6-1.3-1.3 0-.7.5-1.3 1.3-1.3s1.3.6 1.3 1.3c0 .7-.5 1.3-1.3 1.3zm0-2.2c-.6 0-.9.4-.9.9s.3.9.9.9.9-.4.9-.9-.4-.9-.9-.9z"/></g><g><path class="st9" d="M12.3 35.8h105.3v6.4H12.3z"/><path class="st4" d="M15.4 39.6c0 .6-.4 1.1-1.4 1.1h-1.3V37H14c.9 0 1.3.4 1.3 1 0 .4-.2.7-.6.8.5 0 .7.4.7.8zM14 37.4h-.8v1.2h.7c.5 0 .8-.2.8-.6.1-.4-.2-.6-.7-.6zm0 1.6h-.7v1.2h.8c.6 0 .8-.2.8-.6 0-.5-.4-.6-.9-.6zM16.3 40.6v-3.7h.5v3.7h-.5zM18.9 39.4h-.5v1.2h-.5v-3.7h1c1 0 1.5.5 1.5 1.2.1.8-.5 1.3-1.5 1.3zm.1-2h-.5V39h.5c.6 0 1-.3 1-.8-.1-.6-.4-.8-1-.8zM23 40.7c-1.1 0-1.9-.8-1.9-2 0-1.1.8-2 1.9-2 1.1 0 1.9.8 1.9 1.9 0 1.3-.8 2.1-1.9 2.1zm0-3.4c-.8 0-1.4.6-1.4 1.5s.6 1.5 1.4 1.5c.8 0 1.4-.6 1.4-1.5 0-1-.6-1.5-1.4-1.5zM25.8 40.6v-3.7h.5v3.3h1.8v.5h-2.3zM32 40.6h-.5l-.4-1h-1.6l-.4 1h-.5l1.4-3.7h.6l1.4 3.7zm-1.7-3.2l-.6 1.8H31l-.7-1.8zM33.2 40.6h-.5v-3.7h1.1c.9 0 1.4.4 1.4 1.1 0 .6-.3.9-.8 1.1l1 1.6h-.6l-.9-1.5h-.6v1.4zm.6-1.9c.5 0 .9-.3.9-.7 0-.4-.4-.7-.9-.7h-.6v1.4h.6zM38.4 40.6h-1.1v-3.7h1.1c1.2 0 2 .7 2 1.8 0 1.2-.7 1.9-2 1.9zm0-3.2h-.6v2.8h.6c.9 0 1.5-.5 1.5-1.4 0-1-.5-1.4-1.5-1.4zM41.3 40.6v-3.7h.5v3.7h-.5zM44.8 39.6c0-.4-.3-.5-.9-.7-.5-.1-1.1-.4-1.1-1.1 0-.6.5-1.1 1.3-1.1.4 0 .8.1 1.2.3l-.3.6c-.3-.2-.7-.3-1-.3-.5 0-.8.2-.8.6 0 .4.3.5.9.7.5.1 1.1.4 1.1 1.1 0 .6-.5 1.1-1.3 1.1-.4 0-.9-.1-1.3-.4l.2-.5c.3.2.7.4 1.1.4.5 0 .9-.3.9-.7zM47.8 40.7c-1.1 0-1.9-.8-1.9-2 0-1.1.8-2 1.9-2 1.1 0 1.9.8 1.9 1.9 0 1.3-.8 2.1-1.9 2.1zm0-3.4c-.8 0-1.4.6-1.4 1.5s.6 1.5 1.4 1.5c.8 0 1.4-.6 1.4-1.5 0-1-.6-1.5-1.4-1.5zM51.1 40.6h-.5v-3.7h1.1c.9 0 1.4.4 1.4 1.1 0 .6-.3.9-.8 1.1l1 1.6h-.6l-.9-1.5h-.6v1.4zm.6-1.9c.5 0 .9-.3.9-.7 0-.4-.4-.7-.9-.7h-.6v1.4h.6zM55.1 40.6H54v-3.7h1.1c1.2 0 2 .7 2 1.8.1 1.2-.7 1.9-2 1.9zm0-3.2h-.6v2.8h.6c.9 0 1.5-.5 1.5-1.4 0-1-.5-1.4-1.5-1.4zM58.1 40.6v-3.7h2.4v.5h-1.9v1.2h1.6v.4h-1.6v1.2h1.9v.5h-2.4zM61.8 40.6h-.5v-3.7h1.1c.9 0 1.4.4 1.4 1.1 0 .6-.3.9-.8 1.1l1 1.6h-.6l-.9-1.5h-.6v1.4zm.6-1.9c.5 0 .9-.3.9-.7 0-.4-.4-.7-.9-.7h-.6v1.4h.6zM66.3 39.3c0-1.5 1-2.5 1.7-2.9l.2.3c-.6.4-1.5 1.3-1.5 2.5 0 1.3.8 2.2 1.5 2.5l-.2.3c-.8-.2-1.7-1.2-1.7-2.7zM70.3 40.6v-1.7c0-.5-.2-.6-.6-.6-.3 0-.6.1-.7.3v2.1h-.5v-2.8l.5-.1v.4c.3-.3.6-.4.9-.4.6 0 .9.4.9.9v1.9h-.5zM71.6 38.9v-.4H74v.4h-2.4zm0 1.1v-.4H74v.4h-2.4zM75.5 37.4l-.9.3v-.5l1.4-.4v3.8h-.5v-3.2zM78.2 38.4c.7 0 1.3.4 1.3 1.1 0 .7-.5 1.2-1.3 1.2-.4 0-.8-.1-1-.3l.1-.5c.2.1.6.3.9.3.5 0 .8-.3.8-.8 0-.4-.3-.7-.8-.7-.3 0-.6.1-.8.2l-.1-.1.3-2h1.9v.5H78l-.1 1.1h.3zM80.6 40.7l-.1-.4c.9-.2 1.5-.7 1.7-1.5-.2.2-.6.4-1 .4-.6 0-1-.5-1-1.2s.5-1.2 1.2-1.2c.9 0 1.3.7 1.3 1.6-.1 1-.8 2-2.1 2.3zm.7-3.5c-.4 0-.7.3-.7.8s.3.7.7.7c.3 0 .7-.2.8-.3v-.2c0-.5-.3-1-.8-1zM83 41.9c.7-.4 1.5-1.3 1.5-2.5 0-1.3-.8-2.2-1.5-2.5l.2-.3c.7.4 1.7 1.4 1.7 2.9s-1 2.5-1.7 2.9l-.2-.5z"/></g><g><path class="st10" d="M90.7 84.5l.2.5c-1.2.3-2 1-2.2 2 .3-.3.8-.5 1.3-.5.8 0 1.4.6 1.4 1.5s-.6 1.7-1.6 1.7c-1.2 0-1.7-1-1.7-2.1-.1-1.4.7-2.7 2.6-3.1zm-1 4.6c.6 0 1-.4 1-1s-.4-1-.9-1-.9.2-1.1.4v.3c-.1.7.3 1.3 1 1.3zM92.1 89.6V89c1.5-1.4 2.4-2.1 2.4-3 0-.5-.4-.9-.9-.9-.4 0-.9.2-1.2.5l-.3-.6c.3-.3.9-.6 1.5-.6.9 0 1.6.6 1.6 1.5 0 1-.8 1.6-2.4 3h2.5v.6h-3.2zM97.3 87c-.8 0-1.3-.6-1.3-1.3 0-.7.5-1.3 1.3-1.3s1.3.6 1.3 1.3c0 .7-.5 1.3-1.3 1.3zm0-2.2c-.6 0-.9.4-.9.9s.3.9.9.9c.6 0 .9-.4.9-.9s-.3-.9-.9-.9zm-.2 4.9h-.5l4-5.2h.5l-4 5.2zm3.2.1c-.8 0-1.3-.6-1.3-1.3 0-.7.5-1.3 1.3-1.3s1.3.6 1.3 1.3c.1.7-.4 1.3-1.3 1.3zm0-2.3c-.6 0-.9.4-.9.9s.3.9.9.9.9-.4.9-.9-.3-.9-.9-.9z"/></g><g><path class="st4" d="M195.4 85.3l-1.2.3V85l1.9-.5v5.1h-.6v-4.3zM200.6 88.1c0 1-.8 1.6-1.8 1.6-.5 0-1.1-.2-1.4-.3l.1-.6c.3.2.8.4 1.3.4.6 0 1.1-.3 1.1-.9 0-.5-.4-.9-1.1-.9-.2 0-.5 0-.7.1V87c1-.2 1.7-.6 1.7-1.1 0-.4-.3-.7-.9-.7-.4 0-.9.2-1.2.5l-.2-.6c.4-.3.9-.5 1.5-.5.9 0 1.5.4 1.5 1.2 0 .6-.5 1-1.3 1.3 1-.2 1.4.4 1.4 1zM202.6 87c-.8 0-1.3-.6-1.3-1.3 0-.7.5-1.3 1.3-1.3s1.3.6 1.3 1.3c.1.7-.4 1.3-1.3 1.3zm0-2.2c-.6 0-.9.4-.9.9s.3.9.9.9c.6 0 .9-.4.9-.9s-.3-.9-.9-.9zm-.2 4.9h-.5l4-5.2h.5l-4 5.2zm3.3.1c-.8 0-1.3-.6-1.3-1.3 0-.7.5-1.3 1.3-1.3s1.3.6 1.3 1.3c0 .7-.5 1.3-1.3 1.3zm0-2.3c-.6 0-.9.4-.9.9s.3.9.9.9.9-.4.9-.9-.4-.9-.9-.9z"/></g><g><path class="st4" d="M246.7 89.6V89c1.5-1.4 2.4-2.1 2.4-3 0-.5-.4-.9-.9-.9-.4 0-.9.2-1.2.5l-.2-.6c.3-.3.9-.6 1.5-.6.9 0 1.6.6 1.6 1.5 0 1-.8 1.6-2.4 3h2.5v.6h-3.3zM252.2 86.6c1 0 1.7.5 1.7 1.5s-.7 1.6-1.7 1.6c-.5 0-1.1-.2-1.4-.3l.1-.6c.3.2.8.4 1.3.4.6 0 1.1-.3 1.1-1 0-.6-.4-.9-1.1-.9-.4 0-.8.1-1.1.2l-.1-.1.3-2.7h2.6v.6h-2.1l-.2 1.4c.1-.1.3-.1.6-.1zM256 87c-.8 0-1.3-.6-1.3-1.3 0-.7.5-1.3 1.3-1.3s1.3.6 1.3 1.3c0 .7-.5 1.3-1.3 1.3zm0-2.2c-.6 0-.9.4-.9.9s.3.9.9.9c.6 0 .9-.4.9-.9s-.4-.9-.9-.9zm-.3 4.9h-.5l4-5.2h.5l-4 5.2zm3.3.1c-.8 0-1.3-.6-1.3-1.3 0-.7.5-1.3 1.3-1.3s1.3.6 1.3 1.3c0 .7-.5 1.3-1.3 1.3zm0-2.3c-.6 0-.9.4-.9.9s.3.9.9.9.9-.4.9-.9-.3-.9-.9-.9z"/></g><g><path class="st9" d="M12.3 68.9h105.3v6.4H12.3z"/><path class="st4" d="M14.6 72.7c0-.4-.3-.5-.9-.7-.5-.1-1.1-.4-1.1-1.1 0-.6.5-1.1 1.3-1.1.4 0 .8.1 1.2.3l-.2.4c-.3-.2-.7-.3-1-.3-.5 0-.8.2-.8.6 0 .4.3.5.9.7.5.1 1.1.4 1.1 1.1 0 .6-.5 1.1-1.3 1.1-.4 0-.9-.1-1.3-.4l.2-.5c.3.2.7.4 1.1.4.4.2.8-.1.8-.5zM18.6 70.7c-.3-.2-.6-.3-1-.3-.8 0-1.4.6-1.4 1.5s.6 1.5 1.4 1.5c.4 0 .8-.2 1.1-.4l.1.5c-.3.2-.7.3-1.2.3-1.1 0-1.9-.8-1.9-2s.8-2 1.9-2c.4 0 .9.1 1.2.3l-.2.6zM22.2 73.7V72h-2.1v1.7h-.5V70h.5v1.6h2.1V70h.5v3.7h-.5zM23.8 73.7V70h.5v3.7h-.5zM25.1 73.7v-.4l2.1-2.9h-2.1V70h2.7v.4l-2.1 2.9h2.1v.5h-2.7zM30.2 73.8c-1.1 0-1.9-.8-1.9-2 0-1.1.8-2 1.9-2 1.1 0 1.9.8 1.9 1.9-.1 1.3-.8 2.1-1.9 2.1zm0-3.5c-.8 0-1.4.6-1.4 1.5s.6 1.5 1.4 1.5c.8 0 1.4-.6 1.4-1.5-.1-.9-.6-1.5-1.4-1.5zM35.8 73.7h-.5l-.4-1h-1.6l-.4 1h-.5l1.4-3.7h.6l1.4 3.7zm-1.7-3.2l-.6 1.8h1.3l-.7-1.8zM36.4 70h2.3v.5H37v1.2h1.5v.5H37v1.6h-.5V70zM39.5 70h2.3v.5H40v1.2h1.5v.5H40v1.6h-.5V70zM42.6 73.7V70H45v.5h-1.9v1.2h1.6v.5h-1.6v1.2H45v.5h-2.4zM48.4 70.7c-.3-.2-.6-.3-1-.3-.8 0-1.4.6-1.4 1.5s.6 1.5 1.4 1.5c.4 0 .8-.2 1.1-.4l.1.5c-.3.2-.7.3-1.2.3-1.1 0-1.9-.8-1.9-2s.8-2 1.9-2c.4 0 .9.1 1.2.3l-.2.6zM51 70.5v3.3h-.5v-3.3h-1.3V70h3.1v.5H51zM53.1 73.7V70h.5v3.7h-.5zM56.2 73.7h-.6L54.2 70h.5l1.2 3.2 1.2-3.2h.5l-1.4 3.7zM58.3 73.7V70h2.4v.5h-1.9v1.2h1.6v.5h-1.6v1.2h1.9v.5h-2.4zM63.9 73.7h-1.1V70h1.1c1.2 0 2 .7 2 1.8 0 1.2-.7 1.9-2 1.9zm0-3.2h-.6v2.8h.6c.9 0 1.5-.5 1.5-1.4 0-1-.6-1.4-1.5-1.4zM66.8 73.7V70h.5v3.7h-.5zM70.3 72.7c0-.4-.3-.5-.9-.7-.5-.1-1.1-.4-1.1-1.1 0-.6.5-1.1 1.3-1.1.4 0 .8.1 1.2.3l-.2.4c-.3-.2-.7-.3-1-.3-.5 0-.8.2-.8.6 0 .4.3.5.9.7.5.1 1.1.4 1.1 1.1 0 .6-.5 1.1-1.3 1.1-.4 0-.9-.1-1.3-.4l.2-.5c.3.2.7.4 1.1.4.4.2.8-.1.8-.5zM73.3 73.8c-1.1 0-1.9-.8-1.9-2 0-1.1.8-2 1.9-2 1.1 0 1.9.8 1.9 1.9 0 1.3-.8 2.1-1.9 2.1zm0-3.5c-.8 0-1.4.6-1.4 1.5s.6 1.5 1.4 1.5c.8 0 1.4-.6 1.4-1.5s-.6-1.5-1.4-1.5zM76.6 73.7h-.5V70h1.1c.9 0 1.4.4 1.4 1.1 0 .6-.3.9-.8 1.1l1 1.6h-.6l-.9-1.5h-.6v1.4zm.6-1.9c.5 0 .9-.3.9-.7 0-.4-.4-.7-.9-.7h-.6v1.4h.6zM80.6 73.7h-1.1V70h1.1c1.2 0 2 .7 2 1.8 0 1.2-.7 1.9-2 1.9zm0-3.2H80v2.8h.6c.9 0 1.5-.5 1.5-1.4 0-1-.5-1.4-1.5-1.4zM83.5 73.7V70h2.4v.5H84v1.2h1.6v.5H84v1.2h1.9v.5h-2.4zM87.3 73.7h-.5V70h1.1c.9 0 1.4.4 1.4 1.1 0 .6-.3.9-.8 1.1l1 1.6h-.6l-.9-1.5h-.6v1.4zm.6-1.9c.5 0 .9-.3.9-.7 0-.4-.4-.7-.9-.7h-.6v1.4h.6zM91.7 72.4c0-1.5 1-2.5 1.7-2.9l.2.3c-.6.4-1.5 1.3-1.5 2.5 0 1.3.8 2.2 1.5 2.5l-.2.3c-.7-.2-1.7-1.2-1.7-2.7zM95.7 73.7V72c0-.5-.2-.6-.6-.6-.3 0-.6.1-.7.3v2.1h-.5V71l.5-.1v.4c.3-.3.6-.4.9-.4.6 0 .9.4.9.9v1.9h-.5zM97.1 72v-.4h2.4v.4h-2.4zm0 1.1v-.4h2.3v.4h-2.3zM101 70.5l-.9.3v-.5l1.4-.4v3.8h-.5v-3.2zM102.6 73.7v-.5c1.1-1.1 1.8-1.6 1.8-2.2 0-.4-.3-.7-.7-.7-.3 0-.7.2-.9.4l-.2-.4c.2-.2.7-.4 1.1-.4.7 0 1.2.4 1.2 1.1 0 .7-.6 1.2-1.8 2.3h1.9v.4h-2.4zM106.7 71.5c.7 0 1.3.4 1.3 1.1 0 .7-.5 1.2-1.3 1.2-.4 0-.8-.1-1-.3l.1-.5c.2.1.6.3.9.3.5 0 .8-.3.8-.8 0-.4-.3-.7-.8-.7-.3 0-.6.1-.8.2l-.1-.1.3-2h1.9v.5h-1.5l-.1 1.1h.3zM108.7 75c.7-.4 1.5-1.3 1.5-2.5 0-1.3-.8-2.2-1.5-2.5l.2-.3c.7.4 1.7 1.4 1.7 2.9s-1 2.5-1.7 2.9l-.2-.5z"/></g><g><path class="st10" d="M58.4 121.3c0 1-.8 1.6-1.8 1.6-.5 0-1.1-.2-1.4-.3l.1-.6c.3.2.8.4 1.3.4.6 0 1.1-.3 1.1-.9 0-.5-.4-.9-1.1-.9-.2 0-.5 0-.7.1v-.7c1-.2 1.7-.6 1.7-1.1 0-.4-.3-.7-.9-.7-.4 0-.9.2-1.2.5l-.2-.6c.4-.3.9-.5 1.5-.5.9 0 1.5.4 1.5 1.2 0 .6-.5 1-1.3 1.3 1 0 1.4.6 1.4 1.2zM59.8 122.9l-.2-.5c1.2-.3 2-1 2.2-2-.3.3-.8.5-1.3.5-.8 0-1.4-.6-1.4-1.5s.6-1.7 1.6-1.7c1.2 0 1.7 1 1.7 2.1.2 1.3-.7 2.6-2.6 3.1zm1-4.7c-.6 0-1 .4-1 1s.4 1 .9 1 .9-.2 1.1-.4v-.3c.1-.7-.3-1.3-1-1.3zM64.6 120.2c-.8 0-1.3-.6-1.3-1.3 0-.7.5-1.3 1.3-1.3s1.3.6 1.3 1.3c0 .7-.5 1.3-1.3 1.3zm0-2.2c-.6 0-.9.4-.9.9s.3.9.9.9c.6 0 .9-.4.9-.9s-.4-.9-.9-.9zm-.2 4.9h-.5l4-5.2h.5l-4 5.2zm3.2.1c-.8 0-1.3-.6-1.3-1.3 0-.7.5-1.3 1.3-1.3s1.3.6 1.3 1.3c0 .6-.5 1.3-1.3 1.3zm0-2.3c-.6 0-.9.4-.9.9s.3.9.9.9.9-.4.9-.9-.3-.9-.9-.9z"/></g><g><path class="st4" d="M130.8 118.5l-1.2.3v-.6l1.9-.5v5.1h-.6v-4.3zM136 121.3c0 1-.8 1.6-1.8 1.6-.5 0-1.1-.2-1.4-.3l.1-.6c.3.2.8.4 1.3.4.6 0 1.1-.3 1.1-.9 0-.5-.4-.9-1.1-.9-.2 0-.5 0-.7.1v-.7c1-.2 1.7-.6 1.7-1.1 0-.4-.3-.7-.9-.7-.4 0-.9.2-1.2.5l-.2-.6c.4-.3.9-.5 1.5-.5.9 0 1.5.4 1.5 1.2 0 .6-.5 1-1.3 1.3 1 0 1.4.6 1.4 1.2zM138 120.2c-.8 0-1.3-.6-1.3-1.3 0-.7.5-1.3 1.3-1.3s1.3.6 1.3 1.3c0 .7-.5 1.3-1.3 1.3zm0-2.2c-.6 0-.9.4-.9.9s.3.9.9.9c.6 0 .9-.4.9-.9s-.3-.9-.9-.9zm-.2 4.9h-.5l4-5.2h.5l-4 5.2zm3.2.1c-.8 0-1.3-.6-1.3-1.3 0-.7.5-1.3 1.3-1.3s1.3.6 1.3 1.3c.1.6-.4 1.3-1.3 1.3zm0-2.3c-.6 0-.9.4-.9.9s.3.9.9.9.9-.4.9-.9-.3-.9-.9-.9z"/></g><g><path class="st4" d="M217.5 121.5v1.3h-.6v-1.3h-2.3l-.1-.4 2.3-3.3h.7v3.2h.8v.6h-.8zm-.6-3l-1.6 2.4h1.6v-2.4zM220.6 122.9c-1.2 0-1.7-.6-1.7-1.4 0-.7.6-1.1 1-1.3-.5-.2-.9-.6-.9-1.1 0-.8.6-1.4 1.6-1.4 1.1 0 1.6.6 1.6 1.4 0 .6-.5 1-.9 1.2.5.3.9.6.9 1.2.1.7-.5 1.4-1.6 1.4zm-.2-2.5c-.5.2-.8.5-.8 1s.4.9 1.1.9c.7 0 1-.3 1-.8 0-.6-.6-.9-1.3-1.1zm.2-2.2c-.6 0-1 .4-1 .8 0 .5.6.8 1.2 1 .4-.2.7-.5.7-1 .1-.5-.3-.8-.9-.8zM224.3 120.2c-.8 0-1.3-.6-1.3-1.3 0-.7.5-1.3 1.3-1.3s1.3.6 1.3 1.3c0 .7-.5 1.3-1.3 1.3zm0-2.2c-.6 0-.9.4-.9.9s.3.9.9.9c.6 0 .9-.4.9-.9s-.3-.9-.9-.9zm-.2 4.9h-.5l4-5.2h.5l-4 5.2zm3.2.1c-.8 0-1.3-.6-1.3-1.3 0-.7.5-1.3 1.3-1.3s1.3.6 1.3 1.3c.1.6-.5 1.3-1.3 1.3zm0-2.3c-.6 0-.9.4-.9.9s.3.9.9.9.9-.4.9-.9-.3-.9-.9-.9z"/></g><g><path class="st9" d="M12.3 102.2h105.3v6.4H12.3z"/><path class="st4" d="M16 103.9l-1.1 3.1h-.5l-1.1-3.1v3.1h-.5l.1-3.7h.7l1.2 3.1 1.1-3.1h.7l.1 3.7H16v-3.1zM20.5 107.1H20l-.4-1H18l-.4 1h-.5l1.4-3.7h.6l1.4 3.7zm-1.6-3.3l-.6 1.8h1.3l-.7-1.8zM21.8 107.1c-.3 0-.6-.1-.8-.2l.1-.5c.2.2.5.3.7.3.4 0 .6-.3.6-.8v-2.6h.5v2.6c0 .8-.3 1.2-1.1 1.2zM25.7 107.1c-1.1 0-1.9-.8-1.9-2 0-1.1.8-2 1.9-2 1.1 0 1.9.8 1.9 1.9 0 1.3-.8 2.1-1.9 2.1zm0-3.4c-.8 0-1.4.6-1.4 1.5s.6 1.5 1.4 1.5c.8 0 1.4-.6 1.4-1.5s-.6-1.5-1.4-1.5zM29 107.1h-.5v-3.7h1.1c.9 0 1.4.4 1.4 1.1 0 .6-.3.9-.8 1.1l1 1.6h-.6l-.9-1.5h-.6v1.4zm.6-2c.5 0 .9-.3.9-.7 0-.4-.4-.7-.9-.7H29v1.4h.6zM34.3 107.1h-1.1v-3.7h1.1c1.2 0 2 .7 2 1.8s-.8 1.9-2 1.9zm0-3.3h-.6v2.8h.6c.9 0 1.5-.5 1.5-1.4-.1-.9-.6-1.4-1.5-1.4zM37.2 107.1v-3.7h2.4v.5h-1.9v1.2h1.6v.5h-1.6v1.2h1.9v.5h-2.4zM41.4 105.8h-.5v1.2h-.5v-3.7h1c1 0 1.5.5 1.5 1.2 0 .9-.6 1.3-1.5 1.3zm0-2h-.5v1.6h.5c.6 0 1-.3 1-.8 0-.6-.3-.8-1-.8zM44.2 107.1h-.5v-3.7h1.1c.9 0 1.4.4 1.4 1.1 0 .6-.3.9-.8 1.1l1 1.6h-.6l-.9-1.5h-.6v1.4zm.6-2c.5 0 .9-.3.9-.7 0-.4-.4-.7-.9-.7h-.6v1.4h.6zM47.1 107.1v-3.7h2.4v.5h-1.9v1.2h1.6v.5h-1.6v1.2h1.9v.5h-2.4zM52.3 106.1c0-.4-.3-.5-.9-.7-.5-.1-1.1-.4-1.1-1.1 0-.6.5-1.1 1.3-1.1.4 0 .8.1 1.2.3l-.2.4c-.3-.2-.7-.3-1-.3-.5 0-.8.2-.8.6 0 .4.3.5.9.7.5.1 1.1.4 1.1 1.1 0 .6-.5 1.1-1.3 1.1-.4 0-.9-.1-1.3-.4l.2-.5c.3.2.7.4 1.1.4.4.1.8-.2.8-.5zM55.4 106.1c0-.4-.3-.5-.9-.7-.5-.1-1.1-.4-1.1-1.1 0-.6.5-1.1 1.3-1.1.4 0 .8.1 1.2.3l-.2.4c-.3-.2-.7-.3-1-.3-.5 0-.8.2-.8.6 0 .4.3.5.9.7.5.1 1.1.4 1.1 1.1 0 .6-.5 1.1-1.3 1.1-.4 0-.9-.1-1.3-.4l.2-.5c.3.2.7.4 1.1.4.5.1.8-.2.8-.5zM56.8 107.1v-3.7h.5v3.7h-.5zM60 107.1h-.6l-1.4-3.7h.5l1.2 3.2 1.2-3.2h.5l-1.4 3.7zM62 107.1v-3.7h2.4v.5h-1.9v1.2h1.6v.5h-1.6v1.2h1.9v.5H62zM67.6 107.1h-1.1v-3.7h1.1c1.2 0 2 .7 2 1.8s-.7 1.9-2 1.9zm0-3.3H67v2.8h.6c.9 0 1.5-.5 1.5-1.4 0-.9-.5-1.4-1.5-1.4zM70.6 107.1v-3.7h.5v3.7h-.5zM74 106.1c0-.4-.3-.5-.9-.7-.5-.1-1.1-.4-1.1-1.1 0-.6.5-1.1 1.3-1.1.4 0 .8.1 1.2.3l-.2.4c-.3-.2-.7-.3-1-.3-.5 0-.8.2-.8.6 0 .4.3.5.9.7.5.1 1.1.4 1.1 1.1 0 .6-.5 1.1-1.3 1.1-.4 0-.9-.1-1.3-.4l.2-.5c.3.2.7.4 1.1.4.5.1.8-.2.8-.5zM77 107.1c-1.1 0-1.9-.8-1.9-2 0-1.1.8-2 1.9-2 1.1 0 1.9.8 1.9 1.9 0 1.3-.8 2.1-1.9 2.1zm0-3.4c-.8 0-1.4.6-1.4 1.5s.6 1.5 1.4 1.5c.8 0 1.4-.6 1.4-1.5s-.5-1.5-1.4-1.5zM80.3 107.1h-.5v-3.7h1.1c.9 0 1.4.4 1.4 1.1 0 .6-.3.9-.8 1.1l1 1.6h-.6l-.9-1.5h-.6v1.4zm.7-2c.5 0 .9-.3.9-.7 0-.4-.4-.7-.9-.7h-.6v1.4h.6zM84.4 107.1h-1.1v-3.7h1.1c1.2 0 2 .7 2 1.8s-.7 1.9-2 1.9zm0-3.3h-.6v2.8h.6c.9 0 1.5-.5 1.5-1.4 0-.9-.6-1.4-1.5-1.4zM87.3 107.1v-3.7h2.4v.5h-1.9v1.2h1.6v.5h-1.6v1.2h1.9v.5h-2.4zM91 107.1h-.5v-3.7h1.1c.9 0 1.4.4 1.4 1.1 0 .6-.3.9-.8 1.1l1 1.6h-.6l-.9-1.5h-.6v1.4zm.6-2c.5 0 .9-.3.9-.7 0-.4-.4-.7-.9-.7H91v1.4h.6zM95.5 105.7c0-1.5 1-2.5 1.7-2.9l.2.3c-.6.4-1.5 1.3-1.5 2.5 0 1.3.8 2.2 1.5 2.5l-.2.3c-.8-.2-1.7-1.2-1.7-2.7zM99.5 107.1v-1.7c0-.5-.2-.6-.6-.6-.3 0-.6.1-.7.3v2.1h-.5v-2.8l.5-.1v.4c.3-.3.6-.4.9-.4.6 0 .9.4.9.9v1.9h-.5zM100.9 105.3v-.4h2.4v.4h-2.4zm-.1 1.1v-.4h2.3v.4h-2.3zM106 103.2l.1.4c-.9.2-1.5.7-1.7 1.5.2-.2.6-.4 1-.4.6 0 1.1.5 1.1 1.2s-.5 1.2-1.2 1.2c-.9 0-1.3-.7-1.3-1.6 0-.9.7-1.9 2-2.3zm-.7 3.5c.4 0 .7-.3.7-.8s-.3-.7-.7-.7c-.3 0-.7.2-.8.3v.2c0 .6.3 1 .8 1zM108.1 103.9l-.9.3v-.5l1.4-.4v3.8h-.5v-3.2zM109.7 108.3c.7-.4 1.5-1.3 1.5-2.5 0-1.3-.8-2.2-1.5-2.5l.2-.3c.7.4 1.7 1.4 1.7 2.9s-1 2.5-1.7 2.9l-.2-.5z"/></g><g><path class="st10" d="M76.1 152.8c1 0 1.7.5 1.7 1.5s-.7 1.6-1.7 1.6c-.5 0-1.1-.2-1.4-.3l.1-.6c.3.2.8.4 1.3.4.6 0 1.1-.3 1.1-1 0-.6-.4-.9-1.1-.9-.4 0-.8.1-1.1.2l-.1-.1.3-2.7h2.6v.6h-2.1l-.2 1.4c.2 0 .3-.1.6-.1zM80.4 156c-1.1 0-1.7-1-1.7-2.6s.7-2.6 1.7-2.6c1.1 0 1.7 1 1.7 2.6 0 1.5-.6 2.6-1.7 2.6zm0-4.7c-.6 0-1 .6-1 2s.5 2 1.1 2c.6 0 1-.6 1-2s-.5-2-1.1-2zM84.1 153.3c-.8 0-1.3-.6-1.3-1.3 0-.7.5-1.3 1.3-1.3s1.3.6 1.3 1.3c0 .7-.5 1.3-1.3 1.3zm0-2.2c-.6 0-.9.4-.9.9s.3.9.9.9c.6 0 .9-.4.9-.9s-.3-.9-.9-.9zm-.2 4.9h-.5l4-5.2h.5l-4 5.2zm3.2 0c-.8 0-1.3-.6-1.3-1.3 0-.7.5-1.3 1.3-1.3s1.3.6 1.3 1.3c.1.7-.5 1.3-1.3 1.3zm0-2.2c-.6 0-.9.4-.9.9s.3.9.9.9.9-.4.9-.9-.3-.9-.9-.9z"/></g><g><path class="st4" d="M157.9 156c-1.2 0-1.7-.6-1.7-1.4 0-.7.6-1.1 1-1.3-.5-.2-.9-.6-.9-1.1 0-.8.6-1.4 1.6-1.4 1.1 0 1.6.6 1.6 1.4 0 .6-.5 1-.9 1.2.5.3.9.6.9 1.2.1.7-.5 1.4-1.6 1.4zm-.2-2.5c-.5.2-.8.5-.8 1s.4.9 1.1.9c.7 0 1-.3 1-.8 0-.6-.6-.9-1.3-1.1zm.2-2.2c-.6 0-1 .4-1 .8 0 .5.6.8 1.2 1 .4-.2.7-.5.7-1 .1-.5-.3-.8-.9-.8zM161.6 153.3c-.8 0-1.3-.6-1.3-1.3 0-.7.5-1.3 1.3-1.3s1.3.6 1.3 1.3c0 .7-.5 1.3-1.3 1.3zm0-2.2c-.6 0-.9.4-.9.9s.3.9.9.9c.6 0 .9-.4.9-.9s-.3-.9-.9-.9zm-.2 4.9h-.5l4-5.2h.5l-4 5.2zm3.2 0c-.8 0-1.3-.6-1.3-1.3 0-.7.5-1.3 1.3-1.3s1.3.6 1.3 1.3c.1.7-.4 1.3-1.3 1.3zm0-2.2c-.6 0-.9.4-.9.9s.3.9.9.9.9-.4.9-.9-.3-.9-.9-.9z"/></g><g><path class="st4" d="M224.6 154.6v1.3h-.6v-1.3h-2.3l-.1-.4 2.3-3.3h.7v3.2h.8v.6h-.8zm-.6-3l-1.6 2.4h1.6v-2.4zM225.9 155.8v-.6c1.5-1.4 2.4-2.1 2.4-3 0-.5-.4-.9-.9-.9-.4 0-.9.2-1.2.5l-.2-.6c.3-.3.9-.6 1.5-.6.9 0 1.6.6 1.6 1.5 0 1-.8 1.6-2.4 3h2.5v.6h-3.3zM231.1 153.3c-.8 0-1.3-.6-1.3-1.3 0-.7.5-1.3 1.3-1.3s1.3.6 1.3 1.3c0 .7-.5 1.3-1.3 1.3zm0-2.2c-.6 0-.9.4-.9.9s.3.9.9.9c.6 0 .9-.4.9-.9s-.3-.9-.9-.9zm-.2 4.9h-.5l4-5.2h.5l-4 5.2zm3.3 0c-.8 0-1.3-.6-1.3-1.3 0-.7.5-1.3 1.3-1.3s1.3.6 1.3 1.3c0 .7-.5 1.3-1.3 1.3zm0-2.2c-.6 0-.9.4-.9.9s.3.9.9.9.9-.4.9-.9-.4-.9-.9-.9z"/></g><g><path class="st9" d="M12.3 136.1h105.3v6.4H12.3z"/><path class="st4" d="M13.9 141h-1.1v-3.7h1.1c1.2 0 2 .7 2 1.8s-.8 1.9-2 1.9zm0-3.3h-.6v2.8h.6c.9 0 1.5-.5 1.5-1.4-.1-.9-.6-1.4-1.5-1.4zM16.8 141v-3.7h2.4v.5h-1.9v1.2h1.6v.5h-1.6v1.2h1.9v.5h-2.4zM23.2 137.8l-1.1 3.1h-.5l-1.1-3.1v3.1H20l.1-3.7h.7l1.2 3.1 1.1-3.1h.7l.1 3.7h-.5l-.2-3.1zM24.8 141v-3.7h2.4v.5h-1.9v1.2h1.6v.5h-1.6v1.2h1.9v.5h-2.4zM30.6 137.2h.5v3.8h-.6l-2-3.1v3H28v-3.7h.6l2 3v-3zM33.6 137.7v3.3h-.5v-3.3h-1.3v-.5H35v.5h-1.4zM35.7 141v-3.7h.5v3.7h-.5zM40.2 141h-.5l-.4-1h-1.6l-.4 1h-.5l1.4-3.7h.6l1.4 3.7zm-1.6-3.3l-.6 1.8h1.3l-.7-1.8zM40.7 142.2h-.4l1.5-5.4h.4l-1.5 5.4zM45.5 141H45l-.4-1H43l-.4 1h-.5l1.4-3.7h.6l1.4 3.7zm-1.7-3.3l-.6 1.8h1.3l-.7-1.8zM46.1 141v-3.7h.5v3.3h1.8v.5h-2.3zM49 141v-.4l2.1-2.9H49v-.5h2.7v.4l-2.1 2.9h2.1v.5H49zM55.1 141v-1.7H53v1.7h-.5v-3.7h.5v1.6h2.1v-1.6h.5v3.7h-.5zM56.7 141v-3.7h2.4v.5h-1.9v1.2h1.6v.5h-1.6v1.2h1.9v.5h-2.4zM60 141v-3.7h.5v3.7H60zM64.9 137.8l-1.1 3.1h-.5l-1.1-3.1v3.1h-.5l.1-3.7h.7l1.2 3.1 1.1-3.1h.7l.1 3.7h-.5l-.2-3.1zM66.5 141v-3.7h2.4v.5H67v1.2h1.6v.5H67v1.2h1.9v.5h-2.4zM70.2 141h-.5v-3.7h1.1c.9 0 1.4.4 1.4 1.1 0 .6-.3.9-.8 1.1l1 1.6h-.6l-.9-1.5h-.6v1.4zm.6-2c.5 0 .9-.3.9-.7 0-.4-.4-.7-.9-.7h-.6v1.4h.6zM73.4 137c.2 0 .5.2.5.5 0 .5-.4.9-.9 1.2l-.2-.2c.4-.3.6-.6.6-.8 0-.1-.1-.2-.4-.4 0-.2.1-.3.4-.3zM76.6 140c0-.4-.3-.5-.9-.7-.5-.1-1.1-.4-1.1-1.1 0-.6.5-1.1 1.3-1.1.4 0 .8.1 1.2.3l-.2.4c-.3-.2-.7-.3-1-.3-.5 0-.8.2-.8.6 0 .4.3.5.9.7.5.1 1.1.4 1.1 1.1 0 .6-.5 1.1-1.3 1.1-.4 0-.9-.1-1.3-.4l.2-.5c.3.2.7.4 1.1.4.4.1.8-.2.8-.5zM77.5 142.2h-.4l1.5-5.4h.4l-1.5 5.4zM82.3 141h-.5l-.4-1h-1.6l-.4 1h-.5l1.4-3.7h.6l1.4 3.7zm-1.7-3.3l-.6 1.8h1.3l-.7-1.8zM84.5 141c-1.1 0-1.9-.8-1.9-2s.8-2 1.9-2c.4 0 .9.1 1.2.3l-.2.5c-.3-.2-.7-.3-1.1-.3-.8 0-1.4.6-1.4 1.5s.6 1.5 1.4 1.5c.3 0 .6-.1.8-.2v-.9h-1v-.4h1.5v1.6c-.2.3-.8.4-1.2.4zM86.9 141v-3.7h.5v3.7h-.5zM89.9 137.7v3.3h-.5v-3.3h-1.3v-.5h3.1v.5h-1.3zM94.5 141H94l-.4-1H92l-.4 1h-.5l1.4-3.7h.6l1.4 3.7zm-1.6-3.3l-.6 1.8h1.3l-.7-1.8zM96.3 137.7v3.3h-.5v-3.3h-1.3v-.5h3.1v.5h-1.3zM98.4 141v-3.7h.5v3.7h-.5zM101.7 141c-1.1 0-1.9-.8-1.9-2 0-1.1.8-2 1.9-2 1.1 0 1.9.8 1.9 1.9-.1 1.3-.8 2.1-1.9 2.1zm-.1-3.4c-.8 0-1.4.6-1.4 1.5s.6 1.5 1.4 1.5c.8 0 1.4-.6 1.4-1.5s-.5-1.5-1.4-1.5zM107 137.2h.5v3.8h-.5l-2-3.1v3h-.5v-3.7h.6l2 3v-3z"/></g><path d="M294 215.4H.8c-.3 0-.5-.2-.5-.5v-17.7c0-.3.2-.5.5-.5H294c.3 0 .5.2.5.5v17.7c0 .3-.2.5-.5.5z" fill="#fff" stroke="#231f20" stroke-width=".477" stroke-miterlimit="10"/><g><path class="st9" d="M19.9 188h251.5v8H19.9z"/><path class="st4" d="M105.7 190.8h-.5v1.3h-.4v-3.7h.9c1 0 1.5.5 1.5 1.2 0 .8-.6 1.2-1.5 1.2zm0-2.1h-.5v1.7h.5c.7 0 1.1-.3 1.1-.9 0-.5-.4-.8-1.1-.8zM108 192.1v-3.7h2.3v.4h-1.9v1.3h1.6v.3h-1.6v1.3h1.9v.4H108zM111.5 192.1h-.4v-3.7h1c.9 0 1.4.4 1.4 1.1 0 .6-.4.9-.9 1.1l1 1.6h-.4l-1-1.5h-.8v1.4zm.6-1.9c.5 0 .9-.3.9-.8s-.4-.7-1-.7h-.6v1.6l.7-.1zM117 188.9c-.3-.2-.6-.3-1-.3-.8 0-1.4.6-1.4 1.6s.6 1.6 1.4 1.6c.4 0 .8-.1 1-.3l.1.4c-.3.2-.7.3-1.1.3-1.1 0-1.8-.8-1.8-1.9 0-1.2.8-2 1.8-2 .5 0 .9.1 1.2.3l-.2.3zM118 192.1v-3.7h2.3v.4h-1.9v1.3h1.6v.3h-1.6v1.3h1.9v.4H118zM123.6 188.4h.4v3.8h-.4l-2.1-3.2v3.2h-.5v-3.7h.4l2.1 3.2v-3.3zM126.4 188.7v3.4h-.4v-3.4h-1.3v-.4h3v.4h-1.3zM131 192.1h-.4l-.4-1.1h-1.7l-.4 1.1h-.4l1.4-3.7h.4l1.5 3.7zm-1.6-3.4l-.7 1.9h1.4l-.7-1.9zM133.2 192.2c-1.1 0-1.8-.8-1.8-1.9 0-1.2.8-2 1.8-2 .5 0 .9.1 1.2.3l-.1.3c-.3-.2-.7-.3-1.1-.3-.8 0-1.4.6-1.4 1.6s.6 1.6 1.4 1.6c.4 0 .7-.1.9-.2v-1H133v-.3h1.5v1.6c-.4.2-.9.3-1.3.3zM135.5 192.1v-3.7h2.3v.4h-1.9v1.3h1.6v.3h-1.6v1.3h1.9v.4h-2.3zM141.5 192.2c-1 0-1.8-.8-1.8-1.9 0-1.1.8-2 1.8-2s1.8.8 1.8 1.9c.1 1.2-.7 2-1.8 2zm0-3.6c-.8 0-1.4.6-1.4 1.6s.6 1.6 1.5 1.6c.8 0 1.4-.7 1.4-1.6 0-.9-.6-1.6-1.5-1.6zM144.3 188.4h2.2v.4h-1.8v1.4h1.5v.4h-1.5v1.6h-.4v-3.8zM148.6 192.1v-3.7h.4v3.7h-.4zM153.3 188.8l-1.2 3.3h-.4l-1.2-3.3-.1 3.3h-.4l.1-3.7h.5l1.3 3.3 1.2-3.3h.5l.1 3.7h-.4v-3.3zM155.7 190.8h-.5v1.3h-.4v-3.7h.9c1 0 1.5.5 1.5 1.2 0 .8-.5 1.2-1.5 1.2zm.1-2.1h-.5v1.7h.5c.7 0 1.1-.3 1.1-.9-.1-.5-.4-.8-1.1-.8zM158.4 192.1h-.4v-3.7h1c.9 0 1.4.4 1.4 1.1 0 .6-.4.9-.9 1.1l1 1.6h-.4l-1-1.5h-.7v1.4zm.7-1.9c.5 0 .9-.3.9-.8s-.4-.7-1-.7h-.6v1.6l.7-.1zM163 192.2c-1 0-1.8-.8-1.8-1.9 0-1.1.8-2 1.8-2s1.8.8 1.8 1.9c0 1.2-.8 2-1.8 2zm-.1-3.6c-.8 0-1.4.6-1.4 1.6s.6 1.6 1.5 1.6c.8 0 1.4-.7 1.4-1.6 0-.9-.6-1.6-1.5-1.6zM167 192.1h-.4l-1.4-3.7h.4l1.2 3.4 1.2-3.4h.4l-1.4 3.7zM169.1 192.1v-3.7h2.3v.4h-1.9v1.3h1.6v.3h-1.6v1.3h1.9v.4h-2.3zM175.5 188.8l-1.2 3.3h-.4l-1.2-3.3-.1 3.3h-.4l.1-3.7h.5l1.3 3.3 1.2-3.3h.5l.1 3.7h-.4v-3.3zM177 192.1v-3.7h2.3v.4h-1.9v1.3h1.6v.3h-1.6v1.3h1.9v.4H177zM182.6 188.4h.4v3.8h-.4l-2.1-3.2v3.2h-.4v-3.7h.4l2.1 3.2v-3.3zM185.5 188.7v3.4h-.4v-3.4h-1.3v-.4h3v.4h-1.3z"/></g><g><g class="st12"><path class="st9" d="M20.2 202.5H108v7.9H20.2z"/><path class="st4" d="M21.9 206.7h-.6v1.4h-.6v-4.4h1.2c1.2 0 1.7.6 1.7 1.4.1 1.1-.6 1.6-1.7 1.6zm0-2.3h-.6v1.8h.6c.7 0 1.1-.3 1.1-.9.1-.6-.3-.9-1.1-.9zM25.5 208.3c-.4 0-.8-.1-1.1-.3l.1-.5c.3.2.7.3 1 .3.4 0 .6-.2.6-.5s-.4-.4-.8-.5c-.5-.1-1-.4-1-.9 0-.6.5-1 1.1-1 .4 0 .7.1 1 .2l-.1.5c-.3-.1-.7-.2-.9-.2-.3 0-.6.1-.6.4 0 .3.3.4.7.5.5.1 1 .4 1 1s-.3 1-1 1zM29 208.2l-.2.6c-.3.8-.6 1.1-1.1 1.1-.2 0-.5-.1-.7-.2l.2-.5c.2.1.4.2.5.2.2 0 .4-.1.6-.7l.2-.5-1.2-3.1h.6l.9 2.5.9-2.5h.6l-1.3 3.1zM32.3 208.3c-1 0-1.6-.7-1.6-1.7s.7-1.7 1.6-1.7c.4 0 .7.1 1 .3l-.1.5c-.3-.2-.6-.3-.9-.3-.7 0-1 .4-1 1.2 0 .7.4 1.2 1 1.2.3 0 .7-.1.9-.3l.1.5c-.3.2-.6.3-1 .3zM36.3 208.2v-2c0-.6-.2-.7-.6-.7-.4 0-.7.2-.9.4v2.4h-.6v-4.7l.6-.1v2c.3-.3.7-.5 1.1-.5.6 0 1 .4 1 1.1v2.2h-.6zM40.8 208.3c-1 0-1.6-.7-1.6-1.7s.7-1.7 1.6-1.7c.4 0 .7.1 1 .3l-.1.5c-.3-.2-.6-.3-.9-.3-.7 0-1 .4-1 1.2 0 .7.4 1.2 1 1.2.3 0 .7-.1.9-.3l.1.5c-.2.2-.6.3-1 .3zM44 208.3c-.9 0-1.5-.7-1.5-1.7s.7-1.7 1.6-1.7c.9 0 1.5.7 1.5 1.7s-.7 1.7-1.6 1.7zm.1-2.9c-.6 0-1 .5-1 1.2s.4 1.2 1 1.2 1-.5 1-1.2-.4-1.2-1-1.2zM48.6 208.2v-2c0-.6-.2-.7-.7-.7-.3 0-.7.2-.8.4v2.4h-.6V205l.6-.1v.5c.3-.3.7-.5 1-.5.7 0 1 .4 1 1.1v2.2h-.5zM52.4 203.5l.6-.1v4.8h-.6v-.3c-.2.2-.5.4-.9.4-.9 0-1.4-.7-1.4-1.7s.7-1.7 1.6-1.7c.2 0 .5 0 .7.1v-1.5zm-.7 1.9c-.7 0-1 .5-1 1.2s.4 1.2 1 1.2c.3 0 .6-.1.8-.3v-1.8c-.2-.2-.5-.3-.8-.3zM54.4 204.3c-.3 0-.4-.2-.4-.4s.1-.4.4-.4c.3 0 .4.2.4.4s-.1.4-.4.4zm-.3 3.9V205l.6-.1v3.3h-.6zM56.9 208.3c-.6 0-1-.3-.9-1v-1.8h-.5v-.4l.5-.1v-.7h.6v.7h1v.5h-1v1.8c0 .3.1.5.4.5.2 0 .4 0 .6-.1l.1.5c-.4.1-.6.1-.8.1zM58.7 204.3c-.3 0-.4-.2-.4-.4s.1-.4.4-.4c.3 0 .4.2.4.4-.1.2-.2.4-.4.4zm-.3 3.9V205l.6-.1v3.3h-.6zM61.4 208.3c-.9 0-1.5-.7-1.5-1.7s.7-1.7 1.6-1.7c.9 0 1.5.7 1.5 1.7s-.7 1.7-1.6 1.7zm0-2.9c-.6 0-1 .5-1 1.2s.4 1.2 1 1.2 1-.5 1-1.2-.3-1.2-1-1.2zM66 208.2v-2c0-.6-.2-.7-.7-.7-.3 0-.7.2-.8.4v2.4h-.6V205l.6-.1v.5c.3-.3.7-.5 1-.5.7 0 1 .4 1 1.1v2.2H66zM69.5 204.3c-.3 0-.4-.2-.4-.4s.1-.4.4-.4c.3 0 .4.2.4.4s-.1.4-.4.4zm-.3 3.9V205l.6-.1v3.3h-.6zM74.9 208.2v-2c0-.6-.2-.8-.6-.8-.4 0-.6.2-.8.4V208.2h-.6v-2c0-.6-.2-.8-.6-.8-.4 0-.6.2-.8.3v2.4h-.6V205l.6-.1v.4c.3-.3.6-.4 1-.4s.7.2.8.5c.3-.3.7-.5 1.2-.5.6 0 1 .4 1 1.1v2.2h-.6zM78 204.9c.9 0 1.4.7 1.4 1.7s-.7 1.7-1.6 1.7c-.2 0-.5 0-.7-.1v1.6h-.6V205l.6-.1v.4c.3-.2.6-.4.9-.4zm-.8 2.7c.2.2.4.2.7.2.7 0 1-.5 1-1.2s-.4-1.2-1-1.2c-.3 0-.6.1-.8.3.1 0 .1 1.9.1 1.9zM81 208.2h-.6V205l.6-.1v.6c.2-.4.5-.6.9-.6.2 0 .4.1.6.2l-.1.5c-.2-.1-.4-.1-.5-.1-.3 0-.6.2-.8.7v2zM84.5 208.3c-.9 0-1.5-.7-1.5-1.7s.7-1.7 1.6-1.7c.9 0 1.5.7 1.5 1.7s-.7 1.7-1.6 1.7zm0-2.9c-.6 0-1 .5-1 1.2s.4 1.2 1 1.2 1-.5 1-1.2-.4-1.2-1-1.2zM88.3 208.2h-.5l-1.3-3.2h.6l.9 2.5 1-2.5h.6l-1.3 3.2zM90.5 206.7c0 .6.4 1.1 1.1 1.1.3 0 .7-.1 1-.3l.1.5c-.3.2-.7.3-1.1.3-1 0-1.6-.7-1.6-1.7s.7-1.7 1.6-1.7c.8 0 1.2.5 1.2 1.3 0 .2 0 .4-.1.5h-2.2zm1.7-.5c0-.5-.2-.8-.7-.8-.5 0-.9.4-.9.9l1.6-.1zM95.8 203.5l.6-.1v4.8h-.6v-.3c-.2.2-.5.4-.9.4-.9 0-1.4-.7-1.4-1.7s.7-1.7 1.6-1.7c.2 0 .5 0 .7.1v-1.5zm-.7 1.9c-.7 0-1 .5-1 1.2s.4 1.2 1 1.2c.3 0 .6-.1.8-.3v-1.8c-.3-.2-.5-.3-.8-.3z"/></g><path class="st1" d="M14.4 209H8.7c-.1 0-.2-.1-.2-.2v-5.6c0-.1.1-.2.2-.2h5.6c.1 0 .2.1.2.2v5.6c0 .1 0 .2-.1.2z"/></g><g><g class="st12"><path class="st9" d="M119.3 202.5h87.8v7.9h-87.8z"/><path class="st4" d="M121.8 208.3c-1.3 0-2.2-.9-2.2-2.3 0-1.3.9-2.3 2.2-2.3 1.3 0 2.2.9 2.2 2.3 0 1.3-.9 2.3-2.2 2.3zm0-4c-.9 0-1.6.7-1.6 1.7 0 1.1.7 1.8 1.6 1.8.9 0 1.6-.7 1.6-1.8s-.6-1.7-1.6-1.7zM126.1 208.3c-.6 0-1-.3-.9-1v-1.8h-.5v-.4l.5-.2v-.7h.6v.7h1v.5h-1v1.8c0 .3.1.5.4.5.2 0 .4 0 .6-.1l.1.5c-.3.2-.6.2-.8.2zM129.7 208.2v-2c0-.6-.2-.7-.6-.7-.4 0-.7.2-.9.4v2.4h-.6v-4.7l.6-.1v2c.3-.3.7-.5 1.1-.5.6 0 1 .4 1 1.1v2.2h-.6zM131.8 206.7c0 .6.4 1.1 1.1 1.1.3 0 .7-.1 1-.3l.1.5c-.3.2-.7.3-1.1.3-1 0-1.6-.7-1.6-1.7s.7-1.7 1.6-1.7c.8 0 1.2.5 1.2 1.3 0 .2 0 .4-.1.5h-2.2zm1.6-.5c0-.5-.2-.8-.7-.8-.5 0-.9.4-.9.9l1.6-.1zM135.5 208.2h-.6V205l.6-.1v.6c.2-.4.5-.6.9-.6.2 0 .4.1.6.2l-.1.5c-.2-.1-.4-.1-.5-.1-.3 0-.6.2-.8.7v2zM140.7 204.9c.9 0 1.4.7 1.4 1.7s-.7 1.7-1.6 1.7c-.2 0-.5 0-.7-.1v1.6h-.6V205l.6-.1v.4c.3-.2.5-.4.9-.4zm-.9 2.7c.2.2.4.2.7.2.7 0 1-.5 1-1.2s-.4-1.2-1-1.2c-.3 0-.6.1-.8.3.1 0 .1 1.9.1 1.9zM143.9 208.3c-.4 0-.8-.1-1.1-.3l.1-.5c.3.2.7.3 1 .3.4 0 .6-.2.6-.5s-.4-.4-.8-.5c-.5-.1-1-.4-1-.9 0-.6.5-1 1.1-1 .4 0 .7.1 1 .2l-.1.5c-.3-.1-.7-.2-.9-.2-.3 0-.6.1-.6.4 0 .3.3.4.7.5.5.1 1 .4 1 1s-.3 1-1 1zM147.5 208.2l-.2.6c-.3.8-.6 1.1-1.1 1.1-.2 0-.5-.1-.7-.2l.2-.5c.2.1.4.2.5.2.2 0 .4-.1.6-.7l.2-.5-1.2-3.1h.6l.9 2.5.9-2.5h.6l-1.3 3.1zM150.7 208.3c-1 0-1.6-.7-1.6-1.7s.7-1.7 1.6-1.7c.4 0 .7.1 1 .3l-.1.5c-.3-.2-.6-.3-.9-.3-.7 0-1 .4-1 1.2 0 .7.4 1.2 1 1.2.3 0 .7-.1.9-.3l.1.5c-.2.2-.6.3-1 .3zM154.7 208.2v-2c0-.6-.2-.7-.6-.7-.4 0-.7.2-.9.4v2.4h-.6v-4.7l.6-.1v2c.3-.3.7-.5 1.1-.5.6 0 1 .4 1 1.1v2.2h-.6zM158.2 204.3c-.3 0-.4-.2-.4-.4s.1-.4.4-.4c.3 0 .4.2.4.4s-.1.4-.4.4zm-.3 3.9V205l.6-.1v3.3h-.6zM163.6 208.2v-2c0-.6-.2-.8-.6-.8-.4 0-.6.2-.8.4V208.2h-.6v-2c0-.6-.2-.8-.6-.8-.4 0-.6.2-.8.3v2.4h-.6V205l.6-.1v.4c.3-.3.6-.4 1-.4s.7.2.8.5c.3-.3.7-.5 1.2-.5.6 0 1 .4 1 1.1v2.2h-.6zM166.8 204.9c.9 0 1.4.7 1.4 1.7s-.7 1.7-1.6 1.7c-.2 0-.5 0-.7-.1v1.6h-.6V205l.6-.1v.4c.2-.2.5-.4.9-.4zm-.9 2.7c.2.2.4.2.7.2.7 0 1-.5 1-1.2s-.4-1.2-1-1.2c-.3 0-.6.1-.8.3.1 0 .1 1.9.1 1.9zM169.7 208.2h-.6V205l.6-.1v.6c.2-.4.5-.6.9-.6.2 0 .4.1.6.2l-.1.5c-.2-.1-.4-.1-.5-.1-.3 0-.6.2-.8.7v2zM173.2 208.3c-.9 0-1.5-.7-1.5-1.7s.7-1.7 1.6-1.7c.9 0 1.5.7 1.5 1.7s-.7 1.7-1.6 1.7zm0-2.9c-.6 0-1 .5-1 1.2s.4 1.2 1 1.2 1-.5 1-1.2c.1-.7-.3-1.2-1-1.2zM177 208.2h-.5l-1.3-3.2h.6l.9 2.5.9-2.5h.6l-1.2 3.2zM179.3 206.7c0 .6.4 1.1 1.1 1.1.3 0 .7-.1 1-.3l.1.5c-.3.2-.7.3-1.1.3-1 0-1.6-.7-1.6-1.7s.7-1.7 1.6-1.7c.8 0 1.2.5 1.2 1.3 0 .2 0 .4-.1.5h-2.2zm1.6-.5c0-.5-.2-.8-.7-.8-.5 0-.9.4-.9.9l1.6-.1zM186.4 208.2v-2c0-.6-.2-.8-.6-.8-.4 0-.6.2-.8.4V208.2h-.6v-2c0-.6-.2-.8-.6-.8-.4 0-.6.2-.8.3v2.4h-.6V205l.6-.1v.4c.3-.3.6-.4 1-.4s.7.2.8.5c.3-.3.7-.5 1.2-.5.6 0 1 .4 1 1.1v2.2h-.6zM188.5 206.7c0 .6.4 1.1 1.1 1.1.3 0 .7-.1 1-.3l.1.5c-.3.2-.7.3-1.1.3-1 0-1.6-.7-1.6-1.7s.7-1.7 1.6-1.7c.8 0 1.2.5 1.2 1.3 0 .2 0 .4-.1.5h-2.2zm1.7-.5c0-.5-.2-.8-.7-.8-.5 0-.9.4-.9.9l1.6-.1zM193.7 208.2v-2c0-.6-.2-.7-.7-.7-.3 0-.7.2-.8.4v2.4h-.6V205l.6-.1v.5c.3-.3.7-.5 1-.5.7 0 1 .4 1 1.1v2.2h-.5zM196.4 208.3c-.6 0-1-.3-.9-1v-1.8h-.5v-.4l.5-.2v-.7h.6v.7h1v.5h-1v1.8c0 .3.1.5.4.5.2 0 .4 0 .6-.1l.1.5c-.3.2-.6.2-.8.2z"/></g><path class="st2" d="M113.5 209h-5.6c-.1 0-.2-.1-.2-.2v-5.6c0-.1.1-.2.2-.2h5.6c.1 0 .2.1.2.2v5.6c0 .1-.1.2-.2.2z"/></g><g><g class="st12"><path class="st9" d="M217.7 202.5H292v7.9h-74.3z"/><path class="st4" d="M221.2 203.8h.6v4.4h-.6l-2.3-3.6v3.5h-.6v-4.4h.7l2.3 3.5v-3.4zM224.4 208.3c-.9 0-1.5-.7-1.5-1.7s.7-1.7 1.6-1.7c.9 0 1.5.7 1.5 1.7-.1 1-.7 1.7-1.6 1.7zm0-2.9c-.6 0-1 .5-1 1.2s.4 1.2 1 1.2 1-.5 1-1.2-.4-1.2-1-1.2zM229.8 204.9c.9 0 1.4.7 1.4 1.7s-.7 1.7-1.6 1.7c-.2 0-.5 0-.7-.1v1.6h-.6V205l.6-.1v.4c.3-.2.6-.4.9-.4zm-.9 2.7c.2.2.4.2.7.2.7 0 1-.5 1-1.2s-.4-1.2-1-1.2c-.3 0-.6.1-.8.3.1 0 .1 1.9.1 1.9zM233.1 208.3c-.4 0-.8-.1-1.1-.3l.1-.5c.3.2.7.3 1 .3.4 0 .6-.2.6-.5s-.4-.4-.8-.5c-.5-.1-1-.4-1-.9 0-.6.5-1 1.1-1 .4 0 .7.1 1 .2l-.1.5c-.3-.1-.7-.2-.9-.2-.3 0-.6.1-.6.4 0 .3.3.4.7.5.5.1 1 .4 1 1s-.3 1-1 1zM236.6 208.2l-.2.6c-.3.8-.6 1.1-1.1 1.1-.2 0-.5-.1-.7-.2l.2-.5c.2.1.4.2.5.2.2 0 .4-.1.6-.7l.2-.5-1.2-3.1h.6l.9 2.5.9-2.5h.6l-1.3 3.1zM239.9 208.3c-1 0-1.6-.7-1.6-1.7s.7-1.7 1.6-1.7c.4 0 .7.1 1 .3l-.1.5c-.3-.2-.6-.3-.9-.3-.7 0-1 .4-1 1.2 0 .7.4 1.2 1 1.2.3 0 .7-.1.9-.3l.1.5c-.3.2-.6.3-1 .3zM243.9 208.2v-2c0-.6-.2-.7-.6-.7-.4 0-.7.2-.9.4v2.4h-.6v-4.7l.6-.1v2c.3-.3.7-.5 1.1-.5.6 0 1 .4 1 1.1v2.2h-.6zM247.3 204.3c-.3 0-.4-.2-.4-.4s.1-.4.4-.4c.3 0 .4.2.4.4s-.1.4-.4.4zm-.2 3.9V205l.6-.1v3.3h-.6zM252.8 208.2v-2c0-.6-.2-.8-.6-.8-.4 0-.6.2-.8.4V208.2h-.6v-2c0-.6-.2-.8-.6-.8-.4 0-.6.2-.8.3v2.4h-.6V205l.6-.1v.4c.3-.3.6-.4 1-.4s.7.2.8.5c.3-.3.7-.5 1.2-.5.6 0 1 .4 1 1.1v2.2h-.6zM255.9 204.9c.9 0 1.4.7 1.4 1.7s-.7 1.7-1.6 1.7c-.2 0-.5 0-.7-.1v1.6h-.6V205l.6-.1v.4c.2-.2.5-.4.9-.4zm-.9 2.7c.2.2.4.2.7.2.7 0 1-.5 1-1.2s-.4-1.2-1-1.2c-.3 0-.6.1-.8.3.1 0 .1 1.9.1 1.9zM258.8 208.2h-.6V205l.6-.1v.6c.2-.4.5-.6.9-.6.2 0 .4.1.6.2l-.1.5c-.2-.1-.4-.1-.5-.1-.3 0-.6.2-.8.7v2zM262.4 208.3c-.9 0-1.5-.7-1.5-1.7s.7-1.7 1.6-1.7c.9 0 1.5.7 1.5 1.7-.1 1-.7 1.7-1.6 1.7zm0-2.9c-.6 0-1 .5-1 1.2s.4 1.2 1 1.2 1-.5 1-1.2-.4-1.2-1-1.2zM266.2 208.2h-.5l-1.3-3.2h.6l.9 2.5.9-2.5h.6l-1.2 3.2zM268.4 206.7c0 .6.4 1.1 1.1 1.1.3 0 .7-.1 1-.3l.1.5c-.3.2-.7.3-1.1.3-1 0-1.6-.7-1.6-1.7s.7-1.7 1.6-1.7c.8 0 1.2.5 1.2 1.3 0 .2 0 .4-.1.5h-2.2zm1.7-.5c0-.5-.2-.8-.7-.8-.5 0-.9.4-.9.9l1.6-.1zM275.6 208.2v-2c0-.6-.2-.8-.6-.8-.4 0-.6.2-.8.4V208.2h-.6v-2c0-.6-.2-.8-.6-.8-.4 0-.6.2-.8.3v2.4h-.6V205l.6-.1v.4c.3-.3.6-.4 1-.4s.7.2.8.5c.3-.3.7-.5 1.2-.5.6 0 1 .4 1 1.1v2.2h-.6zM277.6 206.7c0 .6.4 1.1 1.1 1.1.3 0 .7-.1 1-.3l.1.5c-.3.2-.7.3-1.1.3-1 0-1.6-.7-1.6-1.7s.7-1.7 1.6-1.7c.8 0 1.2.5 1.2 1.3 0 .2 0 .4-.1.5h-2.2zm1.7-.5c0-.5-.2-.8-.7-.8-.5 0-.9.4-.9.9l1.6-.1zM282.9 208.2v-2c0-.6-.2-.7-.7-.7-.3 0-.7.2-.8.4v2.4h-.6V205l.6-.1v.5c.3-.3.7-.5 1-.5.7 0 1 .4 1 1.1v2.2h-.5zM285.5 208.3c-.6 0-1-.3-.9-1v-1.8h-.5v-.4l.5-.2v-.7h.6v.7h1v.5h-1v1.8c0 .3.1.5.4.5.2 0 .4 0 .6-.1l.1.5c-.3.2-.5.2-.8.2z"/></g><path class="st3" d="M211.8 209h-5.6c-.1 0-.2-.1-.2-.2v-5.6c0-.1.1-.2.2-.2h5.6c.1 0 .2.1.2.2v5.6c0 .1-.1.2-.2.2z"/></g><g><path class="st10" d="M96.7 18.7l.2.5c-1.2.3-2 1-2.2 2 .3-.3.8-.5 1.3-.5.8 0 1.4.6 1.4 1.5s-.6 1.7-1.6 1.7c-1.2 0-1.7-1-1.7-2.1-.2-1.3.7-2.6 2.6-3.1zm-1 4.7c.6 0 1-.4 1-1s-.4-1-.9-1-.9.2-1.1.4v.3c-.1.7.3 1.3 1 1.3zM101.2 22.4c0 1-.8 1.6-1.8 1.6-.5 0-1.1-.2-1.4-.3l.1-.6c.3.2.8.4 1.3.4.6 0 1.1-.3 1.1-.9 0-.5-.4-.9-1.1-.9-.2 0-.5 0-.7.1v-.5c1-.2 1.7-.6 1.7-1.1 0-.4-.3-.7-.9-.7-.4 0-.9.2-1.2.5l-.2-.6c.4-.3.9-.5 1.5-.5.9 0 1.5.4 1.5 1.2 0 .6-.5 1-1.3 1.3 1-.2 1.4.4 1.4 1zM103.2 21.3c-.8 0-1.3-.6-1.3-1.3 0-.7.5-1.3 1.3-1.3s1.3.6 1.3 1.3c.1.7-.4 1.3-1.3 1.3zm0-2.2c-.6 0-.9.4-.9.9s.3.9.9.9c.6 0 .9-.4.9-.9s-.3-.9-.9-.9zM103 24h-.5l4-5.2h.5l-4 5.2zm3.3 0c-.8 0-1.3-.6-1.3-1.3 0-.7.5-1.3 1.3-1.3s1.3.6 1.3 1.3c0 .7-.5 1.3-1.3 1.3zm0-2.2c-.6 0-.9.4-.9.9s.3.9.9.9.9-.4.9-.9-.4-.9-.9-.9z"/></g><g><path class="st4" d="M194 24l-.2-.5c1.2-.3 2-1 2.2-2-.3.3-.8.5-1.3.5-.8 0-1.4-.6-1.4-1.5s.6-1.7 1.6-1.7c1.2 0 1.7 1 1.7 2.1.2 1.3-.7 2.6-2.6 3.1zm1-4.7c-.6 0-1 .4-1 1s.4 1 .9 1 .9-.2 1.1-.4v-.3c.1-.7-.2-1.3-1-1.3zM198.8 21.3c-.8 0-1.3-.6-1.3-1.3 0-.7.5-1.3 1.3-1.3s1.3.6 1.3 1.3c0 .7-.5 1.3-1.3 1.3zm0-2.2c-.6 0-.9.4-.9.9s.3.9.9.9c.6 0 .9-.4.9-.9s-.3-.9-.9-.9zm-.2 4.9h-.5l4-5.2h.5l-4 5.2zm3.2 0c-.8 0-1.3-.6-1.3-1.3 0-.7.5-1.3 1.3-1.3s1.3.6 1.3 1.3c.1.7-.4 1.3-1.3 1.3zm0-2.2c-.6 0-.9.4-.9.9s.3.9.9.9.9-.4.9-.9-.3-.9-.9-.9z"/></g><g><path class="st4" d="M243 23.8v-.6c1.5-1.4 2.4-2.1 2.4-3 0-.5-.4-.9-.9-.9-.4 0-.9.2-1.2.5l-.2-.6c.3-.3.9-.6 1.5-.6.9 0 1.6.6 1.6 1.5 0 1-.8 1.6-2.4 3h2.5v.6H243zM248.7 24c-1.2 0-1.7-.6-1.7-1.4 0-.7.6-1.1 1-1.3-.5-.2-.9-.6-.9-1.1 0-.8.6-1.4 1.6-1.4 1.1 0 1.6.6 1.6 1.4 0 .6-.5 1-.9 1.2.5.3.9.6.9 1.2.1.7-.5 1.4-1.6 1.4zm-.2-2.5c-.5.2-.8.5-.8 1s.4.9 1.1.9c.7 0 1-.3 1-.8 0-.6-.6-.9-1.3-1.1zm.2-2.2c-.6 0-1 .4-1 .8 0 .5.6.8 1.2 1 .4-.2.7-.5.7-1 .1-.5-.3-.8-.9-.8zM252.4 21.3c-.8 0-1.3-.6-1.3-1.3 0-.7.5-1.3 1.3-1.3s1.3.6 1.3 1.3c0 .7-.5 1.3-1.3 1.3zm0-2.2c-.6 0-.9.4-.9.9s.3.9.9.9c.6 0 .9-.4.9-.9s-.3-.9-.9-.9zm-.2 4.9h-.5l4-5.2h.5l-4 5.2zm3.2 0c-.8 0-1.3-.6-1.3-1.3 0-.7.5-1.3 1.3-1.3s1.3.6 1.3 1.3c.1.7-.5 1.3-1.3 1.3zm0-2.2c-.6 0-.9.4-.9.9s.3.9.9.9.9-.4.9-.9-.3-.9-.9-.9z"/></g></g></svg>