<svg xmlns="http://www.w3.org/2000/svg" viewBox="0 0 44.79 45.58"><style>.st0{display:none}.st1{fill:#bd7894}</style><g id="Type"><path class="st1" d="M30.05 11.89l-2.76 6.77-7.29.54 5.59 4.71-1.75 7.1 6.21-3.85 6.22 3.85-1.75-7.1 5.59-4.71-7.29-.54zM12.98 19.62c3.95 0 6.54 2.11 6.54 5.55 0 3.68-2.59 6.3-6.93 6.3-1.84 0-4.01-.48-5.36-1.21l.42-3.04c1.18.72 3.13 1.33 4.85 1.33 2.11 0 3.65-1.12 3.65-3.25 0-1.87-1.45-3.07-3.95-3.07-1.66 0-3.1.36-3.98.75l-.54-.57 1.27-10.13h10.19l.09 3.04h-7.59l-.57 4.49c.44-.1 1.1-.19 1.91-.19z"/><path id="Path_409" d="M22.22 43.52c-11.62 0-21.03-9.42-21.03-21.03S10.6 1.46 22.22 1.46s21.03 9.42 21.03 21.03c-.01 11.61-9.42 21.02-21.03 21.03zm0-40.43c-10.72 0-19.4 8.69-19.4 19.4s8.69 19.4 19.4 19.4 19.4-8.69 19.4-19.4c-.01-10.71-8.69-19.39-19.4-19.4z" fill="#9e2065"/></g></svg>