<svg xmlns="http://www.w3.org/2000/svg" viewBox="0 0 485 208.6"><style>.st1{fill:#231f20}.st6{fill:#9e2065}.st7{fill:#f9b990}.st8{fill:none}.st10{enable-background:new}</style><path fill="#f6f8f9" d="M23.7 1.5h458.9v143.8H23.7z" id="Background"/><g id="Type"><path class="st1" d="M5.1 91v.4h1.1v.5H2.9V91c0-.9.5-1.3 1.1-1.3.7 0 1.1.5 1.1 1.3zm-1.8 0v.4h1.4v-.5c0-.6-.3-.8-.7-.8-.5 0-.7.3-.7.9zM6.2 89H2.9v-2.1h.4v1.7h1v-1.4h.4v1.4h1v-1.7h.4V89zM6.2 85.7v.5H2.9v-1c0-.8.4-1.2 1-1.2.5 0 .8.3 1 .8l1.4-.9v.5l-1.3.8v.6h1.2zm-1.7-.6c0-.4-.2-.8-.6-.8-.4 0-.6.3-.6.8v.5h1.2v-.5zM3.5 80.7c-.2.3-.3.6-.3.9 0 .7.5 1.2 1.3 1.2s1.4-.5 1.4-1.2c0-.4-.1-.7-.3-.9l.4-.1c.2.3.3.7.3 1 0 1-.7 1.7-1.7 1.7s-1.8-.7-1.8-1.7c0-.4.1-.8.3-1.1l.4.2zM6.2 79.8H2.9v-2.1h.4v1.7h1V78h.4v1.4h1v-1.7h.4v2.1zM2.9 74.7v-.4h3.4v.5l-2.7 1.8h2.7v.4H2.9v-.5l2.7-1.8H2.9zM3.3 72h2.9v.4H3.3v1.2h-.4v-2.8h.4V72zM6.2 67.9v.5l-.9.3v1.4l.9.3v.5l-3.3-1.3v-.5l3.3-1.2zm-2.9 1.5l1.6.6v-1.1l-1.6.5zM6.3 65.9c0 1-.7 1.7-1.7 1.7s-1.8-.7-1.8-1.7c0-.4.1-.8.3-1.1l.4.1c-.2.3-.3.6-.3 1 0 .7.5 1.2 1.3 1.2s1.4-.5 1.4-1.2c0-.3-.1-.5-.2-.7h-.8v.9h-.4v-1.4H6c.2.4.3.8.3 1.2zM6.2 63.8H2.9v-2.1h.4v1.7h1V62h.4v1.4h1v-1.7h.4v2.1zM5 59.5c-1.3 0-2.2-.9-2.5-1.5l.3-.2c.3.6 1.1 1.3 2.3 1.3 1.1 0 1.9-.7 2.3-1.3l.2.2c-.4.7-1.2 1.5-2.6 1.5zM4.5 56.6c0 .5-.4.9-.9.9s-.9-.3-.9-.9c0-.5.4-.9.9-.9s.9.3.9.9zm1.8.1v.3l-3.5-2.7V54l3.5 2.7zM3 56.6c0 .4.3.6.6.6s.6-.2.6-.6c0-.4-.3-.6-.6-.6s-.6.2-.6.6zm3.3-2c0 .5-.4.9-.9.9s-.9-.3-.9-.9c0-.5.4-.9.9-.9s.9.3.9.9zm-1.5 0c0 .4.3.6.6.6s.6-.2.6-.6c0-.4-.2-.6-.6-.6-.3 0-.6.2-.6.6zM7.3 53.3C7 52.7 6.1 52 5 52c-1.1 0-1.9.7-2.3 1.3l-.3-.2c.3-.6 1.2-1.5 2.5-1.5s2.2.9 2.5 1.5l-.1.2zM16.6 61.1l.1.4c-.9.2-1.5.7-1.7 1.5.2-.2.6-.4 1-.4.6 0 1.1.5 1.1 1.2s-.5 1.2-1.2 1.2c-.9 0-1.3-.7-1.3-1.6-.1-1 .6-2 2-2.3zm-.8 3.5c.4 0 .7-.3.7-.8s-.3-.7-.7-.7c-.3 0-.7.2-.8.3v.2c0 .5.3 1 .8 1zM18.9 65c-.8 0-1.3-.7-1.3-2 0-1.2.5-2 1.3-2s1.3.7 1.3 2c0 1.2-.5 2-1.3 2zm0-3.5c-.4 0-.8.4-.8 1.5s.4 1.5.8 1.5.8-.5.8-1.5-.3-1.5-.8-1.5zM15.7 76.3c.7 0 1.3.4 1.3 1.1 0 .7-.5 1.2-1.3 1.2-.4 0-.8-.1-1-.3l.1-.5c.2.1.6.3.9.3.5 0 .8-.3.8-.8 0-.4-.3-.7-.8-.7-.3 0-.6.1-.8.2l-.1-.1.3-2H17v.5h-1.5l-.1 1.1h.3zM19 78.6c-.8 0-1.3-.7-1.3-2 0-1.2.5-2 1.3-2s1.3.7 1.3 2-.5 2-1.3 2zm0-3.5c-.4 0-.8.4-.8 1.5s.4 1.5.8 1.5c.5 0 .8-.5.8-1.5s-.4-1.5-.8-1.5zM16.5 91.2v1h-.4v-1h-1.7l-.1-.3 1.7-2.5h.5v2.4h.6v.4h-.6zm-.4-2.2l-1.2 1.8h1.2V89zM18.9 92.3c-.8 0-1.3-.7-1.3-2 0-1.2.5-2 1.3-2s1.3.7 1.3 2c0 1.2-.5 2-1.3 2zm0-3.5c-.4 0-.8.4-.8 1.5s.4 1.5.8 1.5.8-.5.8-1.5-.3-1.5-.8-1.5zM18.9 146.9c-.8 0-1.3-.7-1.3-2 0-1.2.5-2 1.3-2s1.3.7 1.3 2c0 1.2-.5 2-1.3 2zm0-3.5c-.4 0-.8.4-.8 1.5s.4 1.5.8 1.5.8-.5.8-1.5-.3-1.5-.8-1.5zM17 104.8c0 .7-.6 1.2-1.3 1.2-.4 0-.8-.1-1.1-.3l.1-.5c.2.1.6.3 1 .3s.8-.2.8-.7c0-.4-.3-.7-.9-.7-.2 0-.4 0-.6.1v-.4c.7-.2 1.3-.4 1.3-.8 0-.3-.2-.5-.7-.5-.3 0-.7.1-.9.4l-.2-.4c.3-.2.7-.4 1.1-.4.7 0 1.2.3 1.2.9 0 .4-.3.8-1 .9.8 0 1.2.4 1.2.9zM18.9 105.9c-.8 0-1.3-.7-1.3-2 0-1.2.5-2 1.3-2s1.3.7 1.3 2-.5 2-1.3 2zm0-3.5c-.4 0-.8.4-.8 1.5s.4 1.5.8 1.5c.5 0 .8-.5.8-1.5s-.3-1.5-.8-1.5zM12.8 7.1l-.9.3v-.5l1.4-.4v3.8h-.5V7.1zM15.7 10.4c-.8 0-1.3-.7-1.3-2 0-1.2.5-2 1.3-2s1.3.7 1.3 2c0 1.2-.5 2-1.3 2zm0-3.5c-.4 0-.8.4-.8 1.5s.4 1.5.8 1.5c.5 0 .8-.5.8-1.5s-.3-1.5-.8-1.5zM18.9 10.4c-.8 0-1.3-.7-1.3-2 0-1.2.5-2 1.3-2s1.3.7 1.3 2c0 1.2-.5 2-1.3 2zm0-3.5c-.4 0-.8.4-.8 1.5s.4 1.5.8 1.5.8-.5.8-1.5-.3-1.5-.8-1.5zM15 24l-.1-.4c.9-.2 1.5-.7 1.7-1.5-.2.2-.6.4-1 .4-.6 0-1-.5-1-1.2s.5-1.2 1.2-1.2c.9 0 1.3.7 1.3 1.6 0 1-.7 2-2.1 2.3zm.7-3.4c-.4 0-.7.3-.7.8s.3.7.7.7c.3 0 .7-.2.8-.3v-.2c.1-.6-.2-1-.8-1zM19 24c-.8 0-1.3-.7-1.3-2 0-1.2.5-2 1.3-2s1.3.7 1.3 2-.5 2-1.3 2zm0-3.5c-.4 0-.8.4-.8 1.5s.4 1.5.8 1.5c.5 0 .8-.5.8-1.5s-.4-1.5-.8-1.5zM15.8 37.7c-.9 0-1.3-.5-1.3-1s.4-.8.7-1c-.4-.2-.7-.4-.7-.9 0-.6.5-1.1 1.2-1.1.8 0 1.2.5 1.2 1s-.3.8-.6.9c.4.2.7.4.7.9 0 .7-.4 1.2-1.2 1.2zm-.2-1.8c-.4.1-.6.4-.6.7 0 .4.3.7.8.7s.8-.2.8-.6c-.1-.4-.5-.7-1-.8zm.2-1.7c-.5 0-.7.3-.7.6 0 .4.4.6.9.8.3-.1.5-.4.5-.7 0-.5-.3-.7-.7-.7zM18.9 37.7c-.8 0-1.3-.7-1.3-2 0-1.2.5-2 1.3-2s1.3.7 1.3 2c0 1.2-.5 2-1.3 2zm0-3.5c-.4 0-.8.4-.8 1.5s.4 1.5.8 1.5.8-.5.8-1.5-.3-1.5-.8-1.5zM14.6 48v-.5H17l.1.4-1.7 3.3H15l1.7-3.3h-2.1zM18.9 51.3c-.8 0-1.3-.7-1.3-2 0-1.2.5-2 1.3-2s1.3.7 1.3 2-.5 2-1.3 2zm0-3.5c-.4 0-.8.4-.8 1.5s.4 1.5.8 1.5c.5 0 .8-.5.8-1.5s-.3-1.5-.8-1.5zM14.6 119.5v-.5c1.1-1.1 1.8-1.6 1.8-2.2 0-.4-.3-.7-.7-.7-.3 0-.7.2-.9.4l-.2-.4c.2-.2.7-.4 1.1-.4.7 0 1.2.4 1.2 1.1 0 .7-.6 1.2-1.8 2.3H17v.4h-2.4zM18.9 119.6c-.8 0-1.3-.7-1.3-2 0-1.2.5-2 1.3-2s1.3.7 1.3 2c0 1.2-.5 2-1.3 2zm0-3.5c-.4 0-.8.4-.8 1.5s.4 1.5.8 1.5c.5 0 .8-.5.8-1.5s-.3-1.5-.8-1.5zM16 129.9l-.9.3v-.5l1.4-.4v3.8H16v-3.2zM18.9 133.2c-.8 0-1.3-.7-1.3-2 0-1.2.5-2 1.3-2s1.3.7 1.3 2-.5 2-1.3 2zm0-3.5c-.4 0-.8.4-.8 1.5s.4 1.5.8 1.5c.5 0 .8-.5.8-1.5s-.3-1.5-.8-1.5z"/><linearGradient id="SVGID_1_" gradientUnits="userSpaceOnUse" x1="26.631" y1="148.589" x2="26.631" y2="148.589"><stop offset="0" stop-color="#d8d8d9" stop-opacity=".25"/><stop offset=".164" stop-color="#dcdcdd" stop-opacity=".487"/><stop offset=".332" stop-color="#e8e8e9" stop-opacity=".731"/><stop offset=".502" stop-color="#fdfdfd" stop-opacity=".978"/><stop offset=".518" stop-color="#fff"/></linearGradient><path fill="url(#SVGID_1_)" d="M26.6 149.5v-1.8"/><linearGradient id="SVGID_00000041265666118462468490000016410968626421250448_" gradientUnits="userSpaceOnUse" x1="39.413" y1="148.589" x2="39.413" y2="148.589"><stop offset="0" stop-color="#d8d8d9" stop-opacity=".25"/><stop offset=".164" stop-color="#dcdcdd" stop-opacity=".487"/><stop offset=".332" stop-color="#e8e8e9" stop-opacity=".731"/><stop offset=".502" stop-color="#fdfdfd" stop-opacity=".978"/><stop offset=".518" stop-color="#fff"/></linearGradient><path fill="url(#SVGID_00000041265666118462468490000016410968626421250448_)" d="M39.4 149.5v-1.8"/><linearGradient id="SVGID_00000124124962943054761110000011723730859715002535_" gradientUnits="userSpaceOnUse" x1="52.195" y1="148.589" x2="52.195" y2="148.589"><stop offset="0" stop-color="#d8d8d9" stop-opacity=".25"/><stop offset=".164" stop-color="#dcdcdd" stop-opacity=".487"/><stop offset=".332" stop-color="#e8e8e9" stop-opacity=".731"/><stop offset=".502" stop-color="#fdfdfd" stop-opacity=".978"/><stop offset=".518" stop-color="#fff"/></linearGradient><path fill="url(#SVGID_00000124124962943054761110000011723730859715002535_)" d="M52.2 149.5v-1.8"/><linearGradient id="SVGID_00000103954905494187702480000016311213649897873055_" gradientUnits="userSpaceOnUse" x1="64.977" y1="148.589" x2="64.977" y2="148.589"><stop offset="0" stop-color="#d8d8d9" stop-opacity=".25"/><stop offset=".164" stop-color="#dcdcdd" stop-opacity=".487"/><stop offset=".332" stop-color="#e8e8e9" stop-opacity=".731"/><stop offset=".502" stop-color="#fdfdfd" stop-opacity=".978"/><stop offset=".518" stop-color="#fff"/></linearGradient><path fill="url(#SVGID_00000103954905494187702480000016311213649897873055_)" d="M65 149.5v-1.8"/><path class="st6" d="M35.6 40h11v105.3h-11z"/><path class="st7" d="M49.8 19.3h11v126h-11z"/><path class="st8" d="M27.9 149.4h42.8V170H27.9z"/><path class="st1" d="M30.9 154.3v-3.7h2.4v.5h-1.9v1.2H33v.5h-1.6v1.2h1.9v.5h-2.4zM36.7 150.5h.5v3.8h-.6l-2-3.1v3h-.5v-3.7h.6l2 3v-3zM40 154.4c-1.1 0-1.9-.8-1.9-2s.8-2 1.9-2c.4 0 .9.1 1.2.3l-.2.5c-.3-.2-.7-.3-1.1-.3-.8 0-1.4.6-1.4 1.5s.6 1.5 1.4 1.5c.3 0 .6-.1.8-.2v-.9h-1v-.5h1.5v1.6c-.2.3-.8.5-1.2.5zM45.3 154.3h-.5l-.4-1h-1.6l-.4 1h-.5l1.4-3.7h.6l1.4 3.7zm-1.7-3.2l-.6 1.8h1.3l-.7-1.8zM47.5 154.4c-1.1 0-1.9-.8-1.9-2s.8-2 1.9-2c.4 0 .9.1 1.2.3l-.2.5c-.3-.2-.7-.3-1.1-.3-.8 0-1.4.6-1.4 1.5s.6 1.5 1.4 1.5c.3 0 .6-.1.8-.2v-.9h-1v-.5h1.5v1.6c-.2.3-.8.5-1.2.5zM49.9 154.3v-3.7h2.4v.5h-1.9v1.2H52v.5h-1.6v1.2h1.9v.5h-2.4zM56.3 151.2l-1.1 3.1h-.5l-1.1-3.1v3.1H53l.1-3.7h.7l1.2 3.1 1.1-3.1h.7l.1 3.7h-.5l-.1-3.1zM57.9 154.3v-3.7h2.4v.5h-1.9v1.2H60v.5h-1.6v1.2h1.9v.5h-2.4zM63.7 150.5h.5v3.8h-.6l-2-3.1v3h-.5v-3.7h.6l2 3v-3zM66.8 151v3.3h-.5V151H65v-.5h3.1v.5h-1.3zM33.7 160.3h-.5l-1.1-3.7h.5l.8 3.1.9-3.1h.6l.9 3.1.8-3.1h.5l-1.1 3.7h-.5l-.9-3.1-.9 3.1zM37.9 160.3v-3.7h.5v3.7h-.5zM40.9 157v3.3h-.5V157h-1.3v-.5h3.1v.5h-1.3zM45.5 160.3v-1.7h-2.1v1.7H43v-3.7h.5v1.6h2.1v-1.6h.4v3.7h-.5zM48.4 156.5h2.3v.5h-1.8v1.2h1.5v.5h-1.5v1.6h-.5v-3.8zM54.2 160.3h-.5l-.4-1h-1.6l-.4 1h-.5l1.4-3.7h.6l1.4 3.7zm-1.7-3.2l-.6 1.8h1.3l-.7-1.8zM58.1 157.2l-1.1 3.1h-.5l-1.1-3.1v3.1h-.5l.1-3.7h.7l1.2 3.1 1.1-3.1h.7l.1 3.7h-.5l-.2-3.1zM59.7 160.3v-3.7h.5v3.7h-.5zM61.3 160.3v-3.7h.5v3.3h1.8v.5h-2.3zM65.4 158.8v1.5h-.5v-1.5l-1.3-2.3h.6l1 1.8 1-1.8h.6l-1.4 2.3zM40.1 165c0-1.5 1-2.5 1.7-2.9l.2.3c-.6.4-1.5 1.3-1.5 2.5 0 1.3.8 2.2 1.5 2.5l-.2.3c-.7-.2-1.7-1.2-1.7-2.7zM44.1 166.3v-1.7c0-.5-.2-.6-.6-.6-.3 0-.6.1-.7.3v2.1h-.5v-2.8l.5-.1v.4c.3-.3.6-.4.9-.4.6 0 .9.4.9.9v1.9h-.5zM45.5 164.5v-.4h2.4v.4h-2.4zm0 1.1v-.4h2.3v.4h-2.3zM49.4 163.1l-.9.3v-.5l1.4-.4v3.8h-.5v-3.2zM52.1 163.1l-.9.3v-.5l1.4-.4v3.8h-.5v-3.2zM55.7 162.5l.1.4c-.9.2-1.5.7-1.7 1.5.2-.2.6-.4 1-.4.6 0 1.1.5 1.1 1.2s-.5 1.2-1.2 1.2c-.9 0-1.3-.7-1.3-1.6-.1-1 .6-2 2-2.3zm-.7 3.4c.4 0 .7-.3.7-.8s-.3-.7-.7-.7c-.3 0-.7.2-.8.3v.2c-.1.6.2 1 .8 1zM56.6 167.5c.7-.4 1.5-1.3 1.5-2.5 0-1.3-.8-2.2-1.5-2.5l.2-.3c.7.4 1.7 1.4 1.7 2.9s-1 2.5-1.7 2.9l-.2-.5z"/><path class="st6" d="M86.2 41.8h11v103.5h-11z"/><path class="st7" d="M100.5 16h11v129.3h-11z"/><g><path class="st8" d="M74.4 149.3h49v22.2h-49z"/><path class="st1" d="M77.1 154.2H76v-3.7h1.1c1.2 0 2 .7 2 1.8s-.7 1.9-2 1.9zm0-3.3h-.6v2.8h.6c.9 0 1.5-.5 1.5-1.4 0-.9-.6-1.4-1.5-1.4zM82.8 154.2h-.5l-.4-1h-1.6l-.4 1h-.5l1.4-3.7h.6l1.4 3.7zm-1.7-3.3l-.6 1.8h1.3l-.7-1.8zM83.5 154.2v-3.7h.5v3.7h-.5zM85.1 154.2v-3.7h.5v3.3h1.8v.5h-2.3zM89.2 152.7v1.5h-.5v-1.5l-1.3-2.3h.6l1 1.8 1-1.8h.6l-1.4 2.3zM92.4 150.4h2.3v.5h-1.8v1.2h1.5v.5h-1.5v1.6h-.5v-3.8zM96.9 154.3c-.9 0-1.5-.6-1.5-1.5v-2.4h.6v2.3c0 .7.3 1.1 1 1.1.6 0 .9-.3.9-1v-2.3h.5v2.3c0 .9-.5 1.5-1.5 1.5zM102 150.4h.5v3.8h-.5l-2-3.1v3h-.5v-3.7h.6l2 3v-3zM106.3 151.1c-.3-.2-.6-.3-1-.3-.8 0-1.4.6-1.4 1.5s.6 1.5 1.4 1.5c.4 0 .8-.2 1.1-.4l.1.5c-.3.2-.7.3-1.2.3-1.1 0-1.9-.8-1.9-2s.8-2 1.9-2c.4 0 .9.1 1.2.3l-.2.6zM108.9 150.9v3.3h-.5v-3.3h-1.3v-.5h3.1v.5h-1.3zM111 154.2v-3.7h.5v3.7h-.5zM114.3 154.3c-1.1 0-1.9-.8-1.9-2 0-1.1.8-2 1.9-2 1.1 0 1.9.8 1.9 1.9 0 1.2-.8 2.1-1.9 2.1zm0-3.5c-.8 0-1.4.6-1.4 1.5s.6 1.5 1.4 1.5c.8 0 1.4-.6 1.4-1.5-.1-.9-.6-1.5-1.4-1.5zM119.6 150.4h.5v3.8h-.6l-2-3.1v3h-.5v-3.7h.6l2 3v-3zM121.5 152.4c-.2 0-.4-.2-.4-.4s.2-.4.4-.4.4.2.4.4-.2.4-.4.4zm0 1.9c-.2 0-.4-.2-.4-.4s.2-.4.4-.4.4.2.4.4-.2.4-.4.4zM89.6 157l-1.1 3.1H88l-1.1-3.1v3.1h-.5l.1-3.7h.5l1.2 3.1 1.1-3.1h.7l.1 3.7h-.5V157zM92.8 160.3c-1.1 0-1.9-.8-1.9-2 0-1.1.8-2 1.9-2 1.1 0 1.9.8 1.9 1.9 0 1.2-.8 2.1-1.9 2.1zm0-3.5c-.8 0-1.4.6-1.4 1.5s.6 1.5 1.4 1.5c.8 0 1.4-.6 1.4-1.5s-.6-1.5-1.4-1.5zM98.3 159.1c0 .6-.4 1.1-1.4 1.1h-1.3v-3.7h1.2c.9 0 1.3.4 1.3 1 0 .4-.2.7-.6.8.5.1.8.4.8.8zm-1.4-2.2h-.8v1.2h.7c.5 0 .8-.2.8-.6 0-.4-.2-.6-.7-.6zm-.1 1.6h-.7v1.2h.8c.6 0 .8-.2.8-.6.1-.4-.3-.6-.9-.6zM99.2 160.2v-3.7h.5v3.7h-.5zM100.8 160.2v-3.7h.5v3.3h1.8v.5h-2.3zM103.9 160.2v-3.7h.5v3.7h-.5zM106.9 156.9v3.3h-.5v-3.3h-1.3v-.5h3.1v.5h-1.3zM110.5 158.7v1.5h-.5v-1.5l-1.3-2.3h.6l1 1.8 1-1.8h.6l-1.4 2.3zM90.7 164.9c0-1.5 1-2.5 1.7-2.9l.2.3c-.6.4-1.5 1.3-1.5 2.5 0 1.3.8 2.2 1.5 2.5l-.2.3c-.7-.2-1.7-1.3-1.7-2.7zM94.7 166.2v-1.7c0-.5-.2-.6-.6-.6-.3 0-.6.1-.7.3v2.1h-.5v-2.8l.5-.1v.4c.3-.3.6-.4.9-.4.6 0 .9.4.9.9v1.9h-.5zM96.1 164.4v-.4h2.4v.4h-2.4zm-.1 1.1v-.4h2.3v.4H96zM100.4 166.3c-.9 0-1.3-.5-1.3-1s.4-.8.7-1c-.4-.2-.7-.4-.7-.9 0-.6.5-1.1 1.2-1.1.8 0 1.2.5 1.2 1s-.3.8-.6.9c.4.2.7.4.7.9.1.7-.4 1.2-1.2 1.2zm-.2-1.9c-.3.1-.6.4-.6.8s.3.7.8.7.8-.2.8-.6c0-.5-.5-.7-1-.9zm.2-1.7c-.5 0-.7.3-.7.6 0 .4.4.6.9.8.3-.1.5-.4.5-.7 0-.4-.3-.7-.7-.7zM104.7 165.1c0 .7-.6 1.2-1.3 1.2-.4 0-.8-.1-1.1-.3l.1-.5c.2.1.6.3 1 .3s.8-.2.8-.7c0-.4-.3-.7-.9-.7-.2 0-.4 0-.6.1v-.4c.7-.2 1.3-.4 1.3-.8 0-.3-.2-.5-.7-.5-.3 0-.7.1-.9.4l-.2-.4c.3-.2.7-.4 1.1-.4.7 0 1.2.3 1.2.9 0 .4-.3.8-1 .9.9 0 1.2.4 1.2.9zM105.2 167.4c.7-.4 1.5-1.3 1.5-2.5 0-1.3-.8-2.2-1.5-2.5l.2-.3c.7.4 1.7 1.4 1.7 2.9s-1 2.5-1.7 2.9l-.2-.5z"/></g><path class="st6" d="M136.9 43.2h11v102.1h-11z"/><path class="st7" d="M151.2 15.9h11v129.4h-11z"/><g><path class="st8" d="M129.2 149.4H172v26.2h-42.8z"/><path class="st1" d="M132.3 154.3v-3.7h2.4v.5h-1.9v1.2h1.6v.5h-1.6v1.2h1.9v.5h-2.4zM138.1 150.5h.5v3.8h-.6l-2-3.1v3h-.5v-3.7h.6l2 3v-3zM141.4 154.4c-1.1 0-1.9-.8-1.9-2s.8-2 1.9-2c.4 0 .9.1 1.2.3l-.2.5c-.3-.2-.7-.3-1.1-.3-.8 0-1.4.6-1.4 1.5s.6 1.5 1.4 1.5c.3 0 .6-.1.8-.2v-.9h-1v-.5h1.5v1.6c-.3.3-.8.5-1.2.5zM146.6 154.3h-.5l-.4-1h-1.6l-.4 1h-.5l1.4-3.7h.6l1.4 3.7zm-1.6-3.2l-.6 1.8h1.3l-.7-1.8zM148.9 154.4c-1.1 0-1.9-.8-1.9-2s.8-2 1.9-2c.4 0 .9.1 1.2.3l-.2.5c-.3-.2-.7-.3-1.1-.3-.8 0-1.4.6-1.4 1.5s.6 1.5 1.4 1.5c.3 0 .6-.1.8-.2v-.9h-1v-.5h1.5v1.6c-.3.3-.8.5-1.2.5zM151.2 154.3v-3.7h2.4v.5h-1.9v1.2h1.6v.5h-1.6v1.2h1.9v.5h-2.4zM157.7 151.2l-1.1 3.1h-.6l-1.1-3.1v3.1h-.5l.1-3.7h.7l1.2 3.1 1.1-3.1h.7l.1 3.7h-.5l-.1-3.1zM159.3 154.3v-3.7h2.4v.5h-1.9v1.2h1.6v.5h-1.6v1.2h1.9v.5h-2.4zM165 150.5h.5v3.8h-.5l-2-3.1v3h-.5v-3.7h.6l2 3v-3zM168.1 151v3.3h-.5V151h-1.3v-.5h3.1v.5h-1.3zM135.6 160.3v-3.7h.5v3.7h-.5zM139.8 156.5h.5v3.8h-.6l-2-3.1v3h-.5v-3.7h.6l2 3v-3zM144.3 160.4c-1.1 0-1.9-.8-1.9-2 0-1.1.8-2 1.9-2 1.1 0 1.9.8 1.9 1.9 0 1.2-.8 2.1-1.9 2.1zm0-3.5c-.8 0-1.4.6-1.4 1.5s.6 1.5 1.4 1.5c.8 0 1.4-.6 1.4-1.5s-.6-1.5-1.4-1.5zM148.5 160.4c-.9 0-1.5-.6-1.5-1.5v-2.4h.5v2.3c0 .7.3 1.1 1 1.1.6 0 .9-.3.9-1v-2.3h.5v2.3c.1.9-.4 1.5-1.4 1.5zM152.6 157v3.3h-.5V157h-1.3v-.5h3.1v.5h-1.3zM156.5 159.3c0-.4-.3-.5-.9-.7-.5-.1-1.1-.4-1.1-1.1 0-.6.5-1.1 1.3-1.1.4 0 .8.1 1.2.3l-.2.4c-.3-.2-.7-.3-1-.3-.5 0-.8.2-.8.6 0 .4.3.5.9.7.5.1 1.1.4 1.1 1.1 0 .6-.5 1.1-1.3 1.1-.4 0-.9-.1-1.3-.4l.2-.5c.3.2.7.4 1.1.4.4.1.8-.1.8-.5zM157.9 160.3v-3.7h.5v3.7h-.5zM160.6 160.3h-1.1v-3.7h1.1c1.2 0 2 .7 2 1.8s-.7 1.9-2 1.9zm0-3.3h-.6v2.8h.6c.9 0 1.5-.5 1.5-1.4 0-.9-.6-1.4-1.5-1.4zM163.5 160.3v-3.7h2.4v.5H164v1.2h1.6v.5H164v1.2h1.9v.5h-2.4zM135.2 162.5h2.3v.5h-1.8v1.2h1.5v.5h-1.5v1.6h-.5v-3.8zM139.7 166.4c-.9 0-1.5-.6-1.5-1.5v-2.4h.5v2.3c0 .7.3 1.1 1 1.1.6 0 .9-.3.9-1v-2.3h.5v2.3c.1.9-.4 1.5-1.4 1.5zM144.8 162.5h.5v3.8h-.6l-2-3.1v3h-.5v-3.7h.6l2 3v-3zM149.1 163.2c-.3-.2-.6-.3-1-.3-.8 0-1.4.6-1.4 1.5s.6 1.5 1.4 1.5c.4 0 .8-.2 1.1-.4l.1.5c-.3.2-.7.3-1.2.3-1.1 0-1.9-.8-1.9-2s.8-2 1.9-2c.4 0 .9.1 1.2.3l-.2.6zM151.7 163v3.3h-.5V163h-1.3v-.5h3.1v.5h-1.3zM153.8 166.3v-3.7h.5v3.7h-.5zM157.1 166.4c-1.1 0-1.9-.8-1.9-2 0-1.1.8-2 1.9-2 1.1 0 1.9.8 1.9 1.9 0 1.2-.8 2.1-1.9 2.1zm0-3.5c-.8 0-1.4.6-1.4 1.5s.6 1.5 1.4 1.5c.8 0 1.4-.6 1.4-1.5-.1-.9-.6-1.5-1.4-1.5zM162.4 162.5h.5v3.8h-.6l-2-3.1v3h-.5v-3.7h.6l2 3v-3zM165.9 165.3c0-.4-.3-.5-.9-.7-.5-.1-1.1-.4-1.1-1.1 0-.6.5-1.1 1.3-1.1.4 0 .8.1 1.2.3l-.2.4c-.3-.2-.7-.3-1-.3-.5 0-.8.2-.8.6 0 .4.3.5.9.7.5.1 1.1.4 1.1 1.1 0 .6-.5 1.1-1.3 1.1-.4 0-.9-.1-1.3-.4l.2-.5c.3.2.7.4 1.1.4.4.1.8-.1.8-.5zM141.2 171c0-1.5 1-2.5 1.7-2.9l.2.3c-.6.4-1.5 1.3-1.5 2.5 0 1.3.8 2.2 1.5 2.5l-.2.3c-.7-.2-1.7-1.2-1.7-2.7zM145.2 172.3v-1.7c0-.5-.2-.6-.6-.6-.3 0-.6.1-.7.3v2.1h-.5v-2.8l.5-.1v.4c.3-.3.6-.4.9-.4.6 0 .9.4.9.9v1.9h-.5zM146.6 170.5v-.4h2.4v.4h-2.4zm0 1.1v-.4h2.3v.4h-2.3zM150.5 169.1l-.9.3v-.5l1.4-.4v3.8h-.5v-3.2zM153.4 172.4c-.8 0-1.3-.7-1.3-2 0-1.2.5-2 1.3-2s1.3.7 1.3 2c0 1.2-.6 2-1.3 2zm0-3.5c-.4 0-.8.4-.8 1.5s.4 1.5.8 1.5.8-.5.8-1.5c0-1.1-.4-1.5-.8-1.5zM155.7 172.4l-.1-.4c.9-.2 1.5-.7 1.7-1.5-.2.2-.6.4-1 .4-.6 0-1-.5-1-1.2s.5-1.2 1.2-1.2c.9 0 1.3.7 1.3 1.6 0 .9-.7 1.9-2.1 2.3zm.8-3.5c-.4 0-.7.3-.7.8s.3.7.7.7c.3 0 .7-.2.8-.3v-.2c0-.6-.3-1-.8-1zM158.2 173.5c.7-.4 1.5-1.3 1.5-2.5 0-1.3-.8-2.2-1.5-2.5l.2-.3c.7.4 1.7 1.4 1.7 2.9s-1 2.5-1.7 2.9l-.2-.5z"/></g><path class="st6" d="M187.5 46.6h11v98.7h-11z"/><path class="st7" d="M201.8 21.1h11v124.2h-11z"/><g><path class="st8" d="M171.2 149.3h70.9v26.3h-70.9z"/><path class="st1" d="M184.9 154.2h-1.1v-3.7h1.1c1.2 0 2 .7 2 1.8s-.8 1.9-2 1.9zm0-3.3h-.6v2.8h.6c.9 0 1.5-.5 1.5-1.4 0-.9-.6-1.4-1.5-1.4zM190.6 154.2h-.5l-.4-1h-1.6l-.4 1h-.5l1.4-3.7h.6l1.4 3.7zm-1.7-3.3l-.6 1.8h1.3l-.7-1.8zM191.3 154.2v-3.7h.5v3.7h-.5zM192.9 154.2v-3.7h.5v3.3h1.8v.5h-2.3zM197 152.7v1.5h-.5v-1.5l-1.3-2.3h.6l1 1.8 1-1.8h.6l-1.4 2.3zM200.2 150.4h2.3v.5h-1.8v1.2h1.5v.5h-1.5v1.6h-.5v-3.8zM204.7 154.3c-.9 0-1.5-.6-1.5-1.5v-2.4h.5v2.3c0 .7.3 1.1 1 1.1.6 0 .9-.3.9-1v-2.3h.5v2.3c.1.9-.4 1.5-1.4 1.5zM209.8 150.4h.5v3.8h-.6l-2-3.1v3h-.5v-3.7h.6l2 3v-3zM214.1 151.1c-.3-.2-.6-.3-1-.3-.8 0-1.4.6-1.4 1.5s.6 1.5 1.4 1.5c.4 0 .8-.2 1.1-.4l.1.5c-.3.2-.7.3-1.2.3-1.1 0-1.9-.8-1.9-2s.8-2 1.9-2c.4 0 .9.1 1.2.3l-.2.6zM216.7 150.9v3.3h-.5v-3.3h-1.3v-.5h3.1v.5h-1.3zM218.7 154.2v-3.7h.5v3.7h-.5zM222.1 154.3c-1.1 0-1.9-.8-1.9-2 0-1.1.8-2 1.9-2 1.1 0 1.9.8 1.9 1.9-.1 1.2-.8 2.1-1.9 2.1zm-.1-3.5c-.8 0-1.4.6-1.4 1.5s.6 1.5 1.4 1.5c.8 0 1.4-.6 1.4-1.5s-.5-1.5-1.4-1.5zM227.4 150.4h.5v3.8h-.6l-2-3.1v3h-.5v-3.7h.6l2 3v-3zM229.3 152.4c-.2 0-.4-.2-.4-.4s.2-.4.4-.4.4.2.4.4-.2.4-.4.4zm0 1.9c-.2 0-.4-.2-.4-.4s.2-.4.4-.4.4.2.4.4-.2.4-.4.4zM198.3 159.2c0-.4-.3-.5-.9-.7-.5-.1-1.1-.4-1.1-1.1 0-.6.5-1.1 1.3-1.1.4 0 .8.1 1.2.3l-.2.4c-.3-.2-.7-.3-1-.3-.5 0-.8.2-.8.6 0 .4.3.5.9.7.5.1 1.1.4 1.1 1.1 0 .6-.5 1.1-1.3 1.1-.4 0-.9-.1-1.3-.4l.2-.5c.3.2.7.4 1.1.4.5.1.8-.2.8-.5zM200.6 158.9h-.5v1.2h-.5v-3.7h1c1 0 1.5.5 1.5 1.2 0 .9-.6 1.3-1.5 1.3zm0-2h-.5v1.6h.5c.6 0 1-.3 1-.8s-.4-.8-1-.8zM202.7 160.2v-3.7h2.4v.5h-1.9v1.2h1.6v.5h-1.6v1.2h1.9v.5h-2.4zM205.8 160.2v-3.7h2.4v.5h-1.9v1.2h1.6v.5h-1.6v1.2h1.9v.5h-2.4zM211.5 157.1c-.3-.2-.6-.3-1-.3-.8 0-1.4.6-1.4 1.5s.6 1.5 1.4 1.5c.4 0 .8-.2 1.1-.4l.1.5c-.3.2-.7.3-1.2.3-1.1 0-1.9-.8-1.9-2s.8-2 1.9-2c.4 0 .9.1 1.2.3l-.2.6zM214.9 160.2v-1.7h-2.1v1.7h-.5v-3.7h.5v1.6h2.1v-1.6h.5v3.7h-.5zM216 161.4h-.4l1.5-5.4h.4l-1.5 5.4zM186.6 163.1c-.3-.2-.6-.3-1-.3-.8 0-1.4.6-1.4 1.5s.6 1.5 1.4 1.5c.4 0 .8-.2 1.1-.4l.1.5c-.3.2-.7.3-1.2.3-1.1 0-1.9-.8-1.9-2s.8-2 1.9-2c.4 0 .9.1 1.2.3l-.2.6zM189.1 166.3c-1.1 0-1.9-.8-1.9-2 0-1.1.8-2 1.9-2 1.1 0 1.9.8 1.9 1.9 0 1.2-.8 2.1-1.9 2.1zm0-3.5c-.8 0-1.4.6-1.4 1.5s.6 1.5 1.4 1.5c.8 0 1.4-.6 1.4-1.5-.1-.9-.6-1.5-1.4-1.5zM195 163l-1.1 3.1h-.5l-1.1-3.1v3.1h-.5l.1-3.7h.7l1.2 3.1 1.1-3.1h.7l.1 3.7h-.7V163zM199.6 163l-1.1 3.1h-.5l-1.1-3.1v3.1h-.5l.1-3.7h.7l1.2 3.1 1.1-3.1h.7l.1 3.7h-.5l-.2-3.1zM202.5 166.3c-.9 0-1.5-.6-1.5-1.5v-2.4h.5v2.3c0 .7.3 1.1 1 1.1.6 0 .9-.3.9-1v-2.3h.5v2.3c.1.9-.4 1.5-1.4 1.5zM207.5 162.4h.5v3.8h-.6l-2-3.1v3h-.5v-3.7h.6l2 3v-3zM208.9 166.2v-3.7h.5v3.7h-.5zM213.1 163.1c-.3-.2-.6-.3-1-.3-.8 0-1.4.6-1.4 1.5s.6 1.5 1.4 1.5c.4 0 .8-.2 1.1-.4l.1.5c-.3.2-.7.3-1.2.3-1.1 0-1.9-.8-1.9-2s.8-2 1.9-2c.4 0 .9.1 1.2.3l-.2.6zM217 166.2h-.5l-.4-1h-1.6l-.4 1h-.5l1.4-3.7h.6l1.4 3.7zm-1.7-3.3l-.6 1.8h1.3l-.7-1.8zM218.6 162.9v3.3h-.5v-3.3h-1.3v-.5h3.1v.5h-1.3zM220.5 166.2v-3.7h.5v3.7h-.5zM223.7 166.3c-1.1 0-1.9-.8-1.9-2 0-1.1.8-2 1.9-2 1.1 0 1.9.8 1.9 1.9 0 1.2-.8 2.1-1.9 2.1zm0-3.5c-.8 0-1.4.6-1.4 1.5s.6 1.5 1.4 1.5c.8 0 1.4-.6 1.4-1.5s-.6-1.5-1.4-1.5zM228.9 162.4h.5v3.8h-.6l-2-3.1v3h-.5v-3.7h.6l2 3v-3zM197.2 170.9c0-1.5 1-2.5 1.7-2.9l.2.3c-.6.4-1.5 1.3-1.5 2.5 0 1.3.8 2.2 1.5 2.5l-.2.3c-.7-.2-1.7-1.3-1.7-2.7zM201.2 172.2v-1.7c0-.5-.2-.6-.6-.6-.3 0-.6.1-.7.3v2.1h-.5v-2.8l.5-.1v.4c.3-.3.6-.4.9-.4.6 0 .9.4.9.9v1.9h-.5zM202.6 170.4v-.4h2.4v.4h-2.4zm0 1.1v-.4h2.3v.4h-2.3zM206.4 169l-.9.3v-.5l1.4-.4v3.8h-.5V169zM209.3 172.3c-.8 0-1.3-.7-1.3-2 0-1.2.5-2 1.3-2s1.3.7 1.3 2c0 1.2-.5 2-1.3 2zm0-3.5c-.4 0-.8.4-.8 1.5s.4 1.5.8 1.5c.5 0 .8-.5.8-1.5 0-1.1-.3-1.5-.8-1.5zM212.5 172.3c-.9 0-1.3-.5-1.3-1s.4-.8.7-1c-.4-.2-.7-.4-.7-.9 0-.6.5-1.1 1.2-1.1.8 0 1.2.5 1.2 1s-.3.8-.6.9c.4.2.7.4.7.9.1.7-.4 1.2-1.2 1.2zm-.2-1.9c-.3.1-.6.4-.6.8s.3.7.8.7.8-.2.8-.6c0-.5-.5-.7-1-.9zm.2-1.7c-.5 0-.7.3-.7.6 0 .4.4.6.9.8.3-.1.5-.4.5-.7 0-.4-.3-.7-.7-.7zM214.2 173.4c.7-.4 1.5-1.3 1.5-2.5 0-1.3-.8-2.2-1.5-2.5l.2-.3c.7.4 1.7 1.4 1.7 2.9s-1 2.5-1.7 2.9l-.2-.5z"/></g><path class="st6" d="M238.8 47.4h11v97.9h-11z"/><path class="st7" d="M253.1 18.5h11v126.8h-11z"/><g><path class="st8" d="M231.2 149.4H274v12.7h-42.8z"/><path class="st1" d="M237.9 153.3c0-.4-.3-.5-.9-.7-.5-.1-1.1-.4-1.1-1.1 0-.6.5-1.1 1.3-1.1.4 0 .8.1 1.2.3l-.2.4c-.3-.2-.7-.3-1-.3-.5 0-.8.2-.8.6 0 .4.3.5.9.7.5.1 1.1.4 1.1 1.1 0 .6-.5 1.1-1.3 1.1-.4 0-.9-.1-1.3-.4l.2-.5c.3.2.7.4 1.1.4.4.1.8-.1.8-.5zM240.9 154.4c-1.1 0-1.9-.8-1.9-2 0-1.1.8-2 1.9-2 1.1 0 1.9.8 1.9 1.9 0 1.2-.8 2.1-1.9 2.1zm0-3.5c-.8 0-1.4.6-1.4 1.5s.6 1.5 1.4 1.5c.8 0 1.4-.6 1.4-1.5s-.6-1.5-1.4-1.5zM246.4 151.2c-.3-.2-.6-.3-1-.3-.8 0-1.4.6-1.4 1.5s.6 1.5 1.4 1.5c.4 0 .8-.2 1.1-.4l.1.5c-.3.2-.7.3-1.2.3-1.1 0-1.9-.8-1.9-2s.8-2 1.9-2c.4 0 .9.1 1.2.3l-.2.6zM247.4 154.3v-3.7h.5v3.7h-.5zM252 154.3h-.5l-.4-1h-1.6l-.4 1h-.5l1.4-3.7h.6l1.4 3.7zm-1.7-3.2l-.6 1.8h1.3l-.7-1.8zM252.7 154.3v-3.7h.5v3.3h1.8v.5h-2.3zM255.7 154.3v-3.7h.5v3.7h-.5zM257 154.3v-.4l2.1-2.9H257v-.5h2.7v.4l-2.1 2.9h2.1v.5H257zM260.5 154.3v-3.7h.5v3.7h-.5zM264.7 150.5h.5v3.8h-.6l-2-3.1v3h-.5v-3.7h.6l2 3v-3zM268 154.4c-1.1 0-1.9-.8-1.9-2s.8-2 1.9-2c.4 0 .9.1 1.2.3l-.2.5c-.3-.2-.7-.3-1.1-.3-.8 0-1.4.6-1.4 1.5s.6 1.5 1.4 1.5c.3 0 .6-.1.8-.2v-.9h-1v-.5h1.5v1.6c-.3.3-.8.5-1.2.5zM243.2 159c0-1.5 1-2.5 1.7-2.9l.2.3c-.6.4-1.5 1.3-1.5 2.5 0 1.3.8 2.2 1.5 2.5l-.2.3c-.7-.2-1.7-1.2-1.7-2.7zM247.2 160.3v-1.7c0-.5-.2-.6-.6-.6-.3 0-.6.1-.7.3v2.1h-.5v-2.8l.5-.1v.4c.3-.3.6-.4.9-.4.6 0 .9.4.9.9v1.9h-.5zM248.6 158.5v-.4h2.4v.4h-2.4zm0 1.1v-.4h2.3v.4h-2.3zM252.4 157.1l-.9.3v-.5l1.4-.4v3.8h-.5v-3.2zM254 160.3v-.5c1.1-1.1 1.8-1.6 1.8-2.2 0-.4-.3-.7-.7-.7-.3 0-.7.2-.9.4l-.2-.4c.2-.2.7-.4 1.1-.4.7 0 1.2.4 1.2 1.1 0 .7-.6 1.2-1.8 2.3h1.9v.4H254zM258.2 158c.7 0 1.3.4 1.3 1.1 0 .7-.5 1.2-1.3 1.2-.4 0-.8-.1-1-.3l.1-.5c.2.1.6.3.9.3.5 0 .8-.3.8-.8 0-.4-.3-.7-.8-.7-.3 0-.6.1-.8.2l-.1-.1.3-2h1.9v.5H258l-.1 1.1c0 .1.1 0 .3 0zM260.2 161.5c.7-.4 1.5-1.3 1.5-2.5 0-1.3-.8-2.2-1.5-2.5l.2-.3c.7.4 1.7 1.4 1.7 2.9s-1 2.5-1.7 2.9l-.2-.5z"/></g><path class="st6" d="M289.5 54h11v91.3h-11z"/><path class="st7" d="M303.8 15.9h11v129.4h-11z"/><g><path class="st8" d="M277.7 149.3h49v19.2h-49z"/><path class="st1" d="M280.4 154.2h-1.1v-3.7h1.1c1.2 0 2 .7 2 1.8s-.7 1.9-2 1.9zm0-3.3h-.6v2.8h.6c.9 0 1.5-.5 1.5-1.4 0-.9-.6-1.4-1.5-1.4zM286.1 154.2h-.5l-.4-1h-1.6l-.4 1h-.5l1.4-3.7h.6l1.4 3.7zm-1.7-3.3l-.6 1.8h1.3l-.7-1.8zM286.8 154.2v-3.7h.5v3.7h-.5zM288.4 154.2v-3.7h.5v3.3h1.8v.5h-2.3zM292.5 152.7v1.5h-.5v-1.5l-1.3-2.3h.6l1 1.8 1-1.8h.6l-1.4 2.3zM295.7 150.4h2.3v.5h-1.8v1.2h1.5v.5h-1.5v1.6h-.5v-3.8zM300.2 154.3c-.9 0-1.5-.6-1.5-1.5v-2.4h.5v2.3c0 .7.3 1.1 1 1.1.6 0 .9-.3.9-1v-2.3h.5v2.3c.1.9-.4 1.5-1.4 1.5zM305.3 150.4h.5v3.8h-.6l-2-3.1v3h-.5v-3.7h.6l2 3v-3zM309.6 151.1c-.3-.2-.6-.3-1-.3-.8 0-1.4.6-1.4 1.5s.6 1.5 1.4 1.5c.4 0 .8-.2 1.1-.4l.1.5c-.3.2-.7.3-1.2.3-1.1 0-1.9-.8-1.9-2s.8-2 1.9-2c.4 0 .9.1 1.2.3l-.2.6zM312.2 150.9v3.3h-.5v-3.3h-1.3v-.5h3.1v.5h-1.3zM314.3 154.2v-3.7h.5v3.7h-.5zM317.6 154.3c-1.1 0-1.9-.8-1.9-2 0-1.1.8-2 1.9-2 1.1 0 1.9.8 1.9 1.9 0 1.2-.8 2.1-1.9 2.1zm0-3.5c-.8 0-1.4.6-1.4 1.5s.6 1.5 1.4 1.5c.8 0 1.4-.6 1.4-1.5-.1-.9-.6-1.5-1.4-1.5zM322.9 150.4h.5v3.8h-.6l-2-3.1v3h-.5v-3.7h.6l2 3v-3zM324.8 152.4c-.2 0-.4-.2-.4-.4s.2-.4.4-.4.4.2.4.4-.2.4-.4.4zm0 1.9c-.2 0-.4-.2-.4-.4s.2-.4.4-.4.4.2.4.4-.2.4-.4.4zM292.8 160.2v-3.7h2.4v.5h-1.9v1.2h1.6v.5h-1.6v1.2h1.9v.5h-2.4zM299.1 160.2h-.5l-.4-1h-1.6l-.4 1h-.5l1.4-3.7h.6l1.4 3.7zm-1.7-3.3l-.6 1.8h1.3l-.7-1.8zM300.9 156.9v3.3h-.5v-3.3H299v-.5h3.1v.5h-1.2zM302.9 160.2v-3.7h.5v3.7h-.5zM307.1 156.4h.5v3.8h-.6l-2-3.1v3h-.5v-3.7h.6l2 3v-3zM310.4 160.3c-1.1 0-1.9-.8-1.9-2s.8-2 1.9-2c.4 0 .9.1 1.2.3l-.2.5c-.3-.2-.7-.3-1.1-.3-.8 0-1.4.6-1.4 1.5s.6 1.5 1.4 1.5c.3 0 .6-.1.8-.2v-.9h-1v-.5h1.5v1.6c-.3.3-.8.5-1.2.5zM293.9 164.9c0-1.5 1-2.5 1.7-2.9l.2.3c-.6.4-1.5 1.3-1.5 2.5 0 1.3.8 2.2 1.5 2.5l-.2.3c-.7-.2-1.7-1.3-1.7-2.7zM297.9 166.2v-1.7c0-.5-.2-.6-.6-.6-.3 0-.6.1-.7.3v2.1h-.5v-2.8l.5-.1v.4c.3-.3.6-.4.9-.4.6 0 .9.4.9.9v1.9h-.5zM299.3 164.4v-.4h2.4v.4h-2.4zm0 1.1v-.4h2.3v.4h-2.3zM302.8 166.2l-.1-.4c.9-.2 1.5-.7 1.7-1.5-.2.2-.6.4-1 .4-.6 0-1-.5-1-1.2s.5-1.2 1.2-1.2c.9 0 1.3.7 1.3 1.6 0 1-.7 2-2.1 2.3zm.8-3.4c-.4 0-.7.3-.7.8s.3.7.7.7c.3 0 .7-.2.8-.3v-.2c0-.6-.3-1-.8-1zM306.6 163.9c.7 0 1.3.4 1.3 1.1 0 .7-.5 1.2-1.3 1.2-.4 0-.8-.1-1-.3l.1-.5c.2.1.6.3.9.3.5 0 .8-.3.8-.8 0-.4-.3-.7-.8-.7-.3 0-.6.1-.8.2l-.1-.1.3-2h1.9v.5h-1.5l-.1 1.1h.3zM308.5 167.4c.7-.4 1.5-1.3 1.5-2.5 0-1.3-.8-2.2-1.5-2.5l.2-.3c.7.4 1.7 1.4 1.7 2.9s-1 2.5-1.7 2.9l-.2-.5z"/></g><path class="st6" d="M340.2 63.7h11v81.6h-11z"/><path class="st7" d="M354.5 19.9h11v125.4h-11z"/><g><path class="st8" d="M328.9 149.4H379v21.2h-50.1z"/><path class="st1" d="M332.2 154.3h-1.1v-3.7h1.1c1.2 0 2 .7 2 1.8s-.8 1.9-2 1.9zm0-3.3h-.6v2.8h.6c.9 0 1.5-.5 1.5-1.4 0-.9-.6-1.4-1.5-1.4zM337.9 154.3h-.5l-.4-1h-1.6l-.4 1h-.5l1.4-3.7h.6l1.4 3.7zm-1.7-3.2l-.6 1.8h1.3l-.7-1.8zM338.6 154.3v-3.7h.5v3.7h-.5zM340.2 154.3v-3.7h.5v3.3h1.8v.5h-2.3zM344.3 152.8v1.5h-.5v-1.5l-1.3-2.3h.6l1 1.8 1-1.8h.6l-1.4 2.3zM347.5 150.5h2.3v.5H348v1.2h1.5v.5H348v1.6h-.5v-3.8zM352 154.4c-.9 0-1.5-.6-1.5-1.5v-2.4h.5v2.3c0 .7.3 1.1 1 1.1.6 0 .9-.3.9-1v-2.3h.5v2.3c.1.9-.4 1.5-1.4 1.5zM357.1 150.5h.5v3.8h-.6l-2-3.1v3h-.5v-3.7h.6l2 3v-3zM361.4 151.2c-.3-.2-.6-.3-1-.3-.8 0-1.4.6-1.4 1.5s.6 1.5 1.4 1.5c.4 0 .8-.2 1.1-.4l.1.5c-.3.2-.7.3-1.2.3-1.1 0-1.9-.8-1.9-2s.8-2 1.9-2c.4 0 .9.1 1.2.3l-.2.6zM364 151v3.3h-.5V151h-1.3v-.5h3.1v.5H364zM366.1 154.3v-3.7h.5v3.7h-.5zM369.4 154.4c-1.1 0-1.9-.8-1.9-2 0-1.1.8-2 1.9-2 1.1 0 1.9.8 1.9 1.9-.1 1.2-.8 2.1-1.9 2.1zm-.1-3.5c-.8 0-1.4.6-1.4 1.5s.6 1.5 1.4 1.5c.8 0 1.4-.6 1.4-1.5s-.5-1.5-1.4-1.5zM374.7 150.5h.5v3.8h-.6l-2-3.1v3h-.5v-3.7h.6l2 3v-3zM376.6 152.5c-.2 0-.4-.2-.4-.4s.2-.4.4-.4.4.2.4.4-.2.4-.4.4zm0 1.9c-.2 0-.4-.2-.4-.4s.2-.4.4-.4.4.2.4.4-.2.4-.4.4zM330.3 160.3v-3.7h.5v3.3h1.8v.5h-2.3zM333.3 160.3v-3.7h.5v3.7h-.5zM336.5 160.3h-.6l-1.4-3.7h.5l1.2 3.2 1.2-3.2h.5l-1.4 3.7zM338.5 160.3v-3.7h.5v3.7h-.5zM342.7 156.5h.5v3.8h-.6l-2-3.1v3h-.5v-3.7h.6l2 3v-3zM346 160.4c-1.1 0-1.9-.8-1.9-2s.8-2 1.9-2c.4 0 .9.1 1.2.3l-.2.5c-.3-.2-.7-.3-1.1-.3-.8 0-1.4.6-1.4 1.5s.6 1.5 1.4 1.5c.3 0 .6-.1.8-.2v-.9h-1v-.5h1.5v1.6c-.3.3-.8.5-1.2.5zM352.5 160.3h-.5l-.4-1H350l-.4 1h-.5l1.4-3.7h.6l1.4 3.7zm-1.7-3.2l-.6 1.8h1.3l-.7-1.8zM355.7 157.2c-.3-.2-.6-.3-1-.3-.8 0-1.4.6-1.4 1.5s.6 1.5 1.4 1.5c.4 0 .8-.2 1.1-.4l.1.5c-.3.2-.7.3-1.2.3-1.1 0-1.9-.8-1.9-2s.8-2 1.9-2c.4 0 .9.1 1.2.3l-.2.6zM358.3 157v3.3h-.5V157h-1.3v-.5h3.1v.5h-1.3zM360.3 160.3v-3.7h.5v3.7h-.5zM363.5 160.3h-.6l-1.4-3.7h.5l1.2 3.2 1.2-3.2h.5l-1.4 3.7zM365.5 160.3v-3.7h.5v3.7h-.5zM368.6 157v3.3h-.5V157h-1.3v-.5h3.1v.5h-1.3zM370.6 160.3v-3.7h.5v3.7h-.5zM372.2 160.3v-3.7h2.4v.5h-1.9v1.2h1.6v.5h-1.6v1.2h1.9v.5h-2.4zM377.4 159.3c0-.4-.3-.5-.9-.7-.5-.1-1.1-.4-1.1-1.1 0-.6.5-1.1 1.3-1.1.4 0 .8.1 1.2.3l-.2.4c-.3-.2-.7-.3-1-.3-.5 0-.8.2-.8.6 0 .4.3.5.9.7.5.1 1.1.4 1.1 1.1 0 .6-.5 1.1-1.3 1.1-.4 0-.9-.1-1.3-.4l.2-.5c.3.2.7.4 1.1.4.4.1.8-.1.8-.5zM345.8 165c0-1.5 1-2.5 1.7-2.9l.2.3c-.6.4-1.5 1.3-1.5 2.5 0 1.3.8 2.2 1.5 2.5l-.2.3c-.8-.2-1.7-1.2-1.7-2.7zM349.8 166.3v-1.7c0-.5-.2-.6-.6-.6-.3 0-.6.1-.7.3v2.1h-.5v-2.8l.5-.1v.4c.3-.3.6-.4.9-.4.6 0 .9.4.9.9v1.9h-.5zM351.1 164.5v-.4h2.4v.4h-2.4zm0 1.1v-.4h2.3v.4h-2.3zM354.6 166.4l-.1-.4c.9-.2 1.5-.7 1.7-1.5-.2.2-.6.4-1 .4-.6 0-1-.5-1-1.2s.5-1.2 1.2-1.2c.9 0 1.3.7 1.3 1.6 0 .9-.7 1.9-2.1 2.3zm.8-3.5c-.4 0-.7.3-.7.8s.3.7.7.7c.3 0 .7-.2.8-.3v-.2c0-.6-.3-1-.8-1zM358.6 166.4c-.8 0-1.3-.7-1.3-2 0-1.2.5-2 1.3-2s1.3.7 1.3 2c0 1.2-.5 2-1.3 2zm0-3.5c-.4 0-.8.4-.8 1.5s.4 1.5.8 1.5.8-.5.8-1.5c0-1.1-.3-1.5-.8-1.5zM360.3 167.5c.7-.4 1.5-1.3 1.5-2.5 0-1.3-.8-2.2-1.5-2.5l.2-.3c.7.4 1.7 1.4 1.7 2.9s-1 2.5-1.7 2.9l-.2-.5z"/></g><path class="st6" d="M390.8 80h11v65.3h-11z"/><path class="st7" d="M405.1 34.8h11v110.5h-11z"/><g><path class="st8" d="M379 149.3h49v14.5h-49z"/><path class="st1" d="M383.2 154.2h-.5l-.4-1h-1.6l-.4 1h-.5l1.4-3.7h.6l1.4 3.7zm-1.7-3.3l-.6 1.8h1.3l-.7-1.8zM386.5 153.1c0 .6-.4 1.1-1.4 1.1h-1.3v-3.7h1.2c.9 0 1.3.4 1.3 1 0 .4-.2.7-.6.8.6.1.8.4.8.8zm-1.4-2.2h-.8v1.2h.7c.5 0 .8-.2.8-.6.1-.4-.2-.6-.7-.6zm0 1.6h-.7v1.2h.8c.6 0 .8-.2.8-.6 0-.4-.4-.6-.9-.6zM387.4 154.2v-3.7h.5v3.7h-.5zM389.1 154.2v-3.7h.5v3.3h1.8v.5h-2.3zM392.1 154.2v-3.7h.5v3.7h-.5zM395.2 150.9v3.3h-.5v-3.3h-1.3v-.5h3.1v.5h-1.3zM398.8 152.7v1.5h-.5v-1.5l-1.3-2.3h.6l1 1.8 1-1.8h.6l-1.4 2.3zM403.5 150.9v3.3h-.5v-3.3h-1.3v-.5h3.1v.5h-1.3zM407.1 154.3c-1.1 0-1.9-.8-1.9-2 0-1.1.8-2 1.9-2 1.1 0 1.9.8 1.9 1.9 0 1.2-.8 2.1-1.9 2.1zm0-3.5c-.8 0-1.4.6-1.4 1.5s.6 1.5 1.4 1.5c.8 0 1.4-.6 1.4-1.5s-.6-1.5-1.4-1.5zM412.4 154.2h-.5l-1.1-3.7h.5l.8 3.1.9-3.1h.6l.9 3.1.8-3.1h.5l-1.1 3.7h-.5l-.9-3.1-.9 3.1zM418.2 154.3c-1.1 0-1.9-.8-1.9-2 0-1.1.8-2 1.9-2 1.1 0 1.9.8 1.9 1.9 0 1.2-.8 2.1-1.9 2.1zm0-3.5c-.8 0-1.4.6-1.4 1.5s.6 1.5 1.4 1.5c.8 0 1.4-.6 1.4-1.5s-.6-1.5-1.4-1.5zM421.5 154.2h-.5v-3.7h1.1c.9 0 1.4.4 1.4 1.1 0 .6-.3.9-.8 1.1l1 1.6h-.7l-.9-1.5h-.6v1.4zm.6-1.9c.5 0 .9-.3.9-.7 0-.4-.4-.7-.9-.7h-.6v1.4h.6zM424.9 152.2l1.6-1.8h.6l-1.7 1.9 1.8 1.9h-.7l-1.6-1.8v1.8h-.5v-3.7h.5v1.7zM395.4 158.9c0-1.5 1-2.5 1.7-2.9l.2.3c-.6.4-1.5 1.3-1.5 2.5 0 1.3.8 2.2 1.5 2.5l-.2.3c-.8-.2-1.7-1.3-1.7-2.7zM399.4 160.2v-1.7c0-.5-.2-.6-.6-.6-.3 0-.6.1-.7.3v2.1h-.5v-2.8l.5-.1v.4c.3-.3.6-.4.9-.4.6 0 .9.4.9.9v1.9h-.5zM400.8 158.4v-.4h2.4v.4h-2.4zm-.1 1.1v-.4h2.3v.4h-2.3zM404.2 160.2l-.1-.4c.9-.2 1.5-.7 1.7-1.5-.2.2-.6.4-1 .4-.6 0-1-.5-1-1.2s.5-1.2 1.2-1.2c.9 0 1.3.7 1.3 1.6 0 1-.7 2-2.1 2.3zm.8-3.4c-.4 0-.7.3-.7.8s.3.7.7.7c.3 0 .7-.2.8-.3v-.2c0-.6-.3-1-.8-1zM409.3 159.1c0 .7-.6 1.2-1.3 1.2-.4 0-.8-.1-1.1-.3l.1-.5c.2.1.6.3 1 .3s.8-.2.8-.7c0-.4-.3-.7-.9-.7-.2 0-.4 0-.6.1v-.4c.7-.2 1.3-.4 1.3-.8 0-.3-.2-.5-.7-.5-.3 0-.7.1-.9.4l-.2-.4c.3-.2.7-.4 1.1-.4.7 0 1.2.3 1.2.9 0 .4-.3.8-1 .9.8 0 1.2.4 1.2.9zM409.7 161.4c.7-.4 1.5-1.3 1.5-2.5 0-1.3-.8-2.2-1.5-2.5l.2-.3c.7.4 1.7 1.4 1.7 2.9s-1 2.5-1.7 2.9l-.2-.5z"/></g><path class="st6" d="M441.3 82.1h11v63.2h-11z"/><path class="st7" d="M455.6 36.3h11v109h-11z"/><g><path class="st8" d="M429.5 149.3h49V170h-49z"/><path class="st1" d="M442.7 154.2h-.5l-.4-1h-1.6l-.4 1h-.5l1.4-3.7h.6l1.4 3.7zm-1.7-3.3l-.6 1.8h1.3l-.7-1.8zM446 153.1c0 .6-.4 1.1-1.4 1.1h-1.3v-3.7h1.2c.9 0 1.3.4 1.3 1 0 .4-.2.7-.6.8.6.1.8.4.8.8zm-1.4-2.2h-.8v1.2h.7c.5 0 .8-.2.8-.6.1-.4-.2-.6-.7-.6zm0 1.6h-.7v1.2h.8c.6 0 .8-.2.8-.6 0-.4-.4-.6-.9-.6zM446.9 154.2v-3.7h.5v3.7h-.5zM448.5 154.2v-3.7h.5v3.3h1.8v.5h-2.3zM451.6 154.2v-3.7h.5v3.7h-.5zM454.7 150.9v3.3h-.5v-3.3h-1.3v-.5h3.1v.5h-1.3zM458.3 152.7v1.5h-.5v-1.5l-1.3-2.3h.6l1 1.8 1-1.8h.6l-1.4 2.3zM463 150.9v3.3h-.5v-3.3h-1.3v-.5h3.1v.5H463zM466.6 154.3c-1.1 0-1.9-.8-1.9-2 0-1.1.8-2 1.9-2 1.1 0 1.9.8 1.9 1.9 0 1.2-.8 2.1-1.9 2.1zm0-3.5c-.8 0-1.4.6-1.4 1.5s.6 1.5 1.4 1.5c.8 0 1.4-.6 1.4-1.5-.1-.9-.6-1.5-1.4-1.5zM434.4 160.2h-.5l-.4-1h-1.6l-.4 1h-.5l1.4-3.7h.6l1.4 3.7zm-1.7-3.3l-.6 1.8h1.3l-.7-1.8zM436.2 156.9v3.3h-.5v-3.3h-1.3v-.5h3.1v.5h-1.3zM439.8 156.9v3.3h-.5v-3.3H438v-.5h3.1v.5h-1.3zM441.9 160.2v-3.7h2.4v.5h-1.9v1.2h1.6v.5h-1.6v1.2h1.9v.5h-2.4zM447.7 156.4h.5v3.8h-.6l-2-3.1v3h-.5v-3.7h.6l2 3v-3zM450.4 160.2h-1.1v-3.7h1.1c1.2 0 2 .7 2 1.8s-.7 1.9-2 1.9zm0-3.3h-.6v2.8h.6c.9 0 1.5-.5 1.5-1.4 0-.9-.6-1.4-1.5-1.4zM456.3 159.2c0-.4-.3-.5-.9-.7-.5-.1-1.1-.4-1.1-1.1 0-.6.5-1.1 1.3-1.1.4 0 .8.1 1.2.3l-.2.4c-.3-.2-.7-.3-1-.3-.5 0-.8.2-.8.6 0 .4.3.5.9.7.5.1 1.1.4 1.1 1.1 0 .6-.5 1.1-1.3 1.1-.4 0-.9-.1-1.3-.4l.2-.5c.3.2.7.4 1.1.4.5.1.8-.2.8-.5zM460.4 157.1c-.3-.2-.6-.3-1-.3-.8 0-1.4.6-1.4 1.5s.6 1.5 1.4 1.5c.4 0 .8-.2 1.1-.4l.1.5c-.3.2-.7.3-1.2.3-1.1 0-1.9-.8-1.9-2s.8-2 1.9-2c.4 0 .9.1 1.2.3l-.2.6zM463.9 160.2v-1.7h-2.1v1.7h-.5v-3.7h.5v1.6h2.1v-1.6h.5v3.7h-.5zM467.2 160.3c-1.1 0-1.9-.8-1.9-2 0-1.1.8-2 1.9-2 1.1 0 1.9.8 1.9 1.9 0 1.2-.8 2.1-1.9 2.1zm0-3.5c-.8 0-1.4.6-1.4 1.5s.6 1.5 1.4 1.5c.8 0 1.4-.6 1.4-1.5s-.5-1.5-1.4-1.5zM471.7 160.3c-1.1 0-1.9-.8-1.9-2 0-1.1.8-2 1.9-2 1.1 0 1.9.8 1.9 1.9 0 1.2-.8 2.1-1.9 2.1zm0-3.5c-.8 0-1.4.6-1.4 1.5s.6 1.5 1.4 1.5c.8 0 1.4-.6 1.4-1.5s-.6-1.5-1.4-1.5zM474.5 160.2v-3.7h.5v3.3h1.8v.5h-2.3zM445.7 164.9c0-1.5 1-2.5 1.7-2.9l.2.3c-.6.4-1.5 1.3-1.5 2.5 0 1.3.8 2.2 1.5 2.5l-.2.3c-.7-.2-1.7-1.3-1.7-2.7zM449.7 166.2v-1.7c0-.5-.2-.6-.6-.6-.3 0-.6.1-.7.3v2.1h-.5v-2.8l.5-.1v.4c.3-.3.6-.4.9-.4.6 0 .9.4.9.9v1.9h-.5zM451.1 164.4v-.4h2.4v.4h-2.4zm0 1.1v-.4h2.3v.4h-2.3zM456.3 162.3l.1.4c-.9.2-1.5.7-1.7 1.5.2-.2.6-.4 1-.4.6 0 1.1.5 1.1 1.2s-.5 1.2-1.2 1.2c-.9 0-1.3-.7-1.3-1.6 0-.9.6-1.9 2-2.3zm-.7 3.5c.4 0 .7-.3.7-.8s-.3-.7-.7-.7c-.3 0-.7.2-.8.3v.2c-.1.6.2 1 .8 1zM457.3 162.9v-.5h2.4l.1.4-1.7 3.3h-.5l1.7-3.3h-2zM460.4 167.4c.7-.4 1.5-1.3 1.5-2.5 0-1.3-.8-2.2-1.5-2.5l.2-.3c.7.4 1.7 1.4 1.7 2.9s-1 2.5-1.7 2.9l-.2-.5z"/></g><path d="M482 206.9H2.8c-.4 0-.6-.3-.6-.6v-17.4c0-.4.3-.6.6-.6H482c.4 0 .6.3.6.6v17.4c0 .3-.3.6-.6.6z" fill="#fff" stroke="#231f20" stroke-width=".61" stroke-miterlimit="10"/><g><path class="st8" d="M89.3 179.5h301.6v8H89.3z"/><path class="st1" d="M152.9 183.6v-3.7h.4v3.7h-.4zM157.7 180.3l-1.2 3.3h-.4l-1.2-3.3-.1 3.3h-.4l.1-3.7h.5l1.3 3.3 1.2-3.3h.5l.1 3.7h-.4v-3.3zM160.1 182.3h-.5v1.3h-.4v-3.7h.9c1 0 1.5.5 1.5 1.2s-.6 1.2-1.5 1.2zm0-2.1h-.5v1.7h.5c.7 0 1.1-.3 1.1-.9 0-.5-.4-.8-1.1-.8zM162.8 183.6h-.4v-3.7h1c.9 0 1.4.4 1.4 1.1 0 .6-.4.9-.9 1.1l1 1.6h-.4l-1-1.5h-.8v1.4zm.7-1.9c.5 0 .9-.3.9-.8s-.4-.7-1-.7h-.6v1.6l.7-.1zM167.3 183.7c-1 0-1.8-.8-1.8-1.9 0-1.1.8-2 1.8-2s1.8.8 1.8 1.9c.1 1.1-.7 2-1.8 2zm0-3.6c-.8 0-1.4.6-1.4 1.6s.6 1.6 1.5 1.6c.8 0 1.4-.7 1.4-1.6 0-.9-.6-1.6-1.5-1.6zM171.4 183.6h-.4l-1.4-3.7h.4l1.2 3.4 1.2-3.4h.4l-1.4 3.7zM173.5 183.6v-3.7h2.3v.4h-1.9v1.3h1.6v.3h-1.6v1.3h1.9v.4h-2.3zM179.8 180.3l-1.2 3.3h-.4l-1.2-3.3-.1 3.3h-.4l.1-3.7h.5l1.3 3.3 1.2-3.3h.5l.1 3.7h-.4v-3.3zM181.3 183.6v-3.7h2.3v.4h-1.9v1.3h1.6v.3h-1.6v1.3h1.9v.4h-2.3zM187 179.8h.4v3.8h-.4l-2.1-3.2v3.2h-.4v-3.7h.4l2.1 3.2v-3.3zM189.8 180.2v3.4h-.4v-3.4h-1.3v-.4h3v.4h-1.3zM193.1 183.6v-3.7h.4v3.7h-.4zM197.2 179.8h.4v3.8h-.4l-2.1-3.2v3.2h-.4v-3.7h.4l2.1 3.2v-3.3zM202.8 183.6h-.4l-.4-1.1h-1.7l-.4 1.1h-.4l1.4-3.7h.4l1.5 3.7zm-1.6-3.4l-.7 1.9h1.4l-.7-1.9zM206 180.4c-.3-.2-.6-.3-1-.3-.8 0-1.4.6-1.4 1.6s.6 1.6 1.4 1.6c.4 0 .8-.1 1-.3l.1.4c-.3.2-.7.3-1.1.3-1.1 0-1.8-.8-1.8-1.9 0-1.2.8-2 1.8-2 .5 0 .9.1 1.2.3l-.2.3zM208.5 180.2v3.4h-.4v-3.4h-1.3v-.4h3v.4h-1.3zM210.6 183.6v-3.7h.4v3.7h-.4zM213.5 183.6h-.5l-1.4-3.7h.4l1.2 3.4 1.2-3.4h.4l-1.3 3.7zM215.6 183.6v-3.7h.4v3.7h-.4zM218.4 180.2v3.4h-.4v-3.4h-1.3v-.4h3v.4h-1.3zM220.5 183.6v-3.7h.4v3.7h-.4zM222 183.6v-3.7h2.3v.4h-1.9v1.3h1.6v.3h-1.6v1.3h1.9v.4H222zM227 182.6c0-.4-.4-.6-.9-.8-.5-.2-1.1-.4-1.1-1s.5-1 1.2-1c.4 0 .8.1 1.1.3l-.1.3c-.3-.2-.6-.3-1-.3-.6 0-.8.3-.8.6 0 .4.4.6.9.7.5.2 1.1.4 1.1 1.1 0 .6-.5 1.1-1.3 1.1-.4 0-.9-.1-1.2-.3l.1-.3c.3.2.7.3 1.1.3.5 0 .9-.3.9-.7zM228.4 181.8c-.2 0-.3-.1-.3-.3 0-.2.1-.3.3-.3.2 0 .3.1.3.3 0 .1-.1.3-.3.3zm0 1.9c-.2 0-.3-.1-.3-.3s.1-.3.3-.3c.2 0 .3.1.3.3s-.1.3-.3.3zM231.9 182.3h-.5v1.3h-.4v-3.7h.9c1 0 1.5.5 1.5 1.2s-.6 1.2-1.5 1.2zm0-2.1h-.5v1.7h.5c.7 0 1.1-.3 1.1-.9 0-.5-.4-.8-1.1-.8zM234.2 183.6v-3.7h2.3v.4h-1.9v1.3h1.6v.3h-1.6v1.3h1.9v.4h-2.3zM237.7 183.6h-.4v-3.7h1c.9 0 1.4.4 1.4 1.1 0 .6-.4.9-.9 1.1l1 1.6h-.4l-1-1.5h-.7v1.4zm.7-1.9c.5 0 .9-.3.9-.8s-.4-.7-1-.7h-.6v1.6l.7-.1zM243.2 180.4c-.3-.2-.6-.3-1-.3-.8 0-1.4.6-1.4 1.6s.6 1.6 1.4 1.6c.4 0 .8-.1 1-.3l.1.4c-.3.2-.7.3-1.1.3-1.1 0-1.8-.8-1.8-1.9 0-1.2.8-2 1.8-2 .5 0 .9.1 1.2.3l-.2.3zM244.2 183.6v-3.7h2.3v.4h-1.9v1.3h1.6v.3h-1.6v1.3h1.9v.4h-2.3zM249.8 179.8h.4v3.8h-.4l-2.1-3.2v3.2h-.4v-3.7h.4l2.1 3.2v-3.3zM252.7 180.2v3.4h-.4v-3.4H251v-.4h3v.4h-1.3zM257.2 183.6h-.4l-.4-1.1h-1.7l-.4 1.1h-.4l1.4-3.7h.4l1.5 3.7zm-1.6-3.4l-.7 1.9h1.4l-.7-1.9zM259.4 183.7c-1.1 0-1.8-.8-1.8-1.9 0-1.2.8-2 1.8-2 .5 0 .9.1 1.2.3l-.1.3c-.3-.2-.7-.3-1.1-.3-.8 0-1.4.6-1.4 1.6s.6 1.6 1.4 1.6c.4 0 .7-.1.9-.2v-1h-1.1v-.3h1.5v1.6c-.4.1-.8.3-1.3.3zM261.7 183.6v-3.7h2.3v.4h-1.9v1.3h1.6v.3h-1.6v1.3h1.9v.4h-2.3zM267.8 183.7c-1 0-1.8-.8-1.8-1.9 0-1.1.8-2 1.8-2s1.8.8 1.8 1.9c0 1.1-.8 2-1.8 2zm0-3.6c-.8 0-1.4.6-1.4 1.6s.6 1.6 1.5 1.6c.8 0 1.4-.7 1.4-1.6-.1-.9-.7-1.6-1.5-1.6zM270.5 179.8h2.2v.4h-1.8v1.4h1.5v.4h-1.5v1.6h-.4v-3.8zM274.8 183.6v-3.7h.4v3.7h-.4zM279.6 180.3l-1.2 3.3h-.4l-1.2-3.3-.1 3.3h-.4l.1-3.7h.5l1.3 3.3 1.2-3.3h.5l.1 3.7h-.4v-3.3zM282 182.3h-.5v1.3h-.4v-3.7h.9c1 0 1.5.5 1.5 1.2s-.6 1.2-1.5 1.2zm0-2.1h-.5v1.7h.5c.7 0 1.1-.3 1.1-.9 0-.5-.4-.8-1.1-.8zM284.6 183.6h-.4v-3.7h1c.9 0 1.4.4 1.4 1.1 0 .6-.4.9-.9 1.1l1 1.6h-.4l-1-1.5h-.8v1.4zm.7-1.9c.5 0 .9-.3.9-.8s-.4-.7-1-.7h-.6v1.6l.7-.1zM289.2 183.7c-1 0-1.8-.8-1.8-1.9 0-1.1.8-2 1.8-2s1.8.8 1.8 1.9c0 1.1-.8 2-1.8 2zm0-3.6c-.8 0-1.4.6-1.4 1.6s.6 1.6 1.5 1.6c.8 0 1.4-.7 1.4-1.6-.1-.9-.7-1.6-1.5-1.6zM293.2 183.6h-.4l-1.4-3.7h.4l1.2 3.4 1.2-3.4h.4l-1.4 3.7zM295.3 183.6v-3.7h2.3v.4h-1.9v1.3h1.6v.3h-1.6v1.3h1.9v.4h-2.3zM299.4 183.6h-1v-3.7h1c1.2 0 2 .7 2 1.8 0 1.2-.7 1.9-2 1.9zm0-3.4h-.6v3h.6c1 0 1.6-.5 1.6-1.5 0-.9-.6-1.5-1.6-1.5zM304.4 182.3h-.5v1.3h-.4v-3.7h.9c1 0 1.5.5 1.5 1.2s-.5 1.2-1.5 1.2zm.1-2.1h-.5v1.7h.5c.7 0 1.1-.3 1.1-.9 0-.5-.4-.8-1.1-.8zM309.4 183.6h-.4l-.4-1.1h-1.7l-.4 1.1h-.4l1.4-3.7h.4l1.5 3.7zm-1.6-3.4l-.7 1.9h1.4l-.7-1.9zM311.1 180.2v3.4h-.4v-3.4h-1.3v-.4h3v.4h-1.3zM313.2 183.6v-3.7h.4v3.7h-.4zM314.7 183.6v-3.7h2.3v.4h-1.9v1.3h1.6v.3h-1.6v1.3h1.9v.4h-2.3zM320.3 179.8h.4v3.8h-.4l-2.1-3.2v3.2h-.4v-3.7h.4l2.1 3.2v-3.3zM323.2 180.2v3.4h-.4v-3.4h-1.3v-.4h3v.4h-1.3zM327.1 182.6c0-.4-.4-.6-.9-.8-.5-.2-1.1-.4-1.1-1s.5-1 1.2-1c.4 0 .8.1 1.1.3l-.1.3c-.3-.2-.6-.3-1-.3-.6 0-.8.3-.8.6 0 .4.4.6.9.7.5.2 1.1.4 1.1 1.1 0 .6-.5 1.1-1.3 1.1-.4 0-.9-.1-1.2-.3l.1-.3c.3.2.7.3 1.1.3.5 0 .9-.3.9-.7z"/></g><g><g class="st10"><path class="st8" d="M257.9 194h78.9v7.9h-78.9z"/><path class="st1" d="M260.6 198.5c0-.4-.3-.6-1.1-.8-.6-.2-1.3-.4-1.3-1.3 0-.7.6-1.2 1.5-1.2.5 0 1 .1 1.4.4l-.2.5c-.3-.2-.8-.4-1.2-.4-.6 0-.9.3-.9.7 0 .4.4.6 1.1.8.6.2 1.3.5 1.3 1.3s-.6 1.3-1.5 1.3c-.5 0-1-.1-1.5-.4l.2-.5c.4.2.8.4 1.3.4s.9-.3.9-.8zM263.5 199.8c-.9 0-1.5-.7-1.5-1.7s.7-1.7 1.6-1.7c.9 0 1.5.7 1.5 1.7s-.7 1.7-1.6 1.7zm0-2.9c-.6 0-1 .5-1 1.2s.4 1.2 1 1.2 1-.5 1-1.2-.3-1.2-1-1.2zM270 199.7v-2c0-.6-.2-.8-.6-.8-.4 0-.6.2-.8.4V199.7h-.6v-2c0-.6-.2-.8-.6-.8-.4 0-.6.2-.8.3v2.4h-.6v-3.2l.6-.1v.4c.3-.3.6-.4 1-.4s.7.2.8.5c.3-.3.7-.5 1.2-.5.6 0 1 .4 1 1.1v2.2h-.6zM272.1 198.2c0 .6.4 1.1 1.1 1.1.3 0 .7-.1 1-.3l.1.5c-.3.2-.7.3-1.1.3-1 0-1.6-.7-1.6-1.7s.7-1.7 1.6-1.7c.8 0 1.2.5 1.2 1.3 0 .2 0 .4-.1.5-.1-.1-2.2-.1-2.2 0zm1.7-.5c0-.5-.2-.8-.7-.8-.5 0-.9.4-.9.9l1.6-.1zM275.8 199.7l-1-3.2h.6l.7 2.4.7-2.4h.5l.8 2.4.6-2.4h.6l-1 3.2h-.3l-.8-2.4-.8 2.4h-.6zM282.3 199.7v-2c0-.6-.2-.7-.6-.7-.4 0-.7.2-.9.4v2.4h-.6V195l.6-.1v2c.3-.3.7-.5 1.1-.5.6 0 1 .4 1 1.1v2.2h-.6zM285.7 199.3c-.2.3-.5.4-.9.4-.6 0-1-.4-1-.9 0-.6.4-1.1 1.9-1.1v-.1c0-.5-.2-.7-.7-.7-.3 0-.7.2-1 .4l-.1-.5c.3-.2.7-.4 1.2-.4.9 0 1.3.4 1.2 1.2v1.3c0 .3 0 .3.3.3v.5c-.6.1-.8-.1-.9-.4zm0-1.2c-1 .1-1.3.3-1.3.7 0 .3.2.5.6.5.3 0 .6-.1.7-.3v-.9zM288.3 199.8c-.6 0-1-.3-.9-1V197h-.5v-.4l.5-.2v-.7h.6v.7h1v.5h-1v1.8c0 .3.1.5.4.5.2 0 .4 0 .6-.1l.1.5c-.3.1-.5.2-.8.2zM291.7 195.8c-.3 0-.4-.2-.4-.4s.1-.4.4-.4c.3 0 .4.2.4.4s-.2.4-.4.4zm-.3 3.9v-3.2l.6-.1v3.3h-.6zM297.1 199.7v-2c0-.6-.2-.8-.6-.8-.4 0-.6.2-.8.4V199.7h-.6v-2c0-.6-.2-.8-.6-.8-.4 0-.6.2-.8.3v2.4h-.6v-3.2l.6-.1v.4c.3-.3.6-.4 1-.4s.7.2.8.5c.3-.3.7-.5 1.2-.5.6 0 1 .4 1 1.1v2.2h-.6zM300.2 196.4c.9 0 1.4.7 1.4 1.7s-.7 1.7-1.6 1.7c-.2 0-.5 0-.7-.1v1.6h-.6v-4.9l.6-.1v.4c.3-.1.6-.3.9-.3zm-.9 2.6c.2.2.4.2.7.2.7 0 1-.5 1-1.2s-.4-1.2-1-1.2c-.3 0-.6.1-.8.3.1.1.1 1.9.1 1.9zM303.2 199.7h-.6v-3.2l.6-.1v.6c.2-.4.5-.6.9-.6.2 0 .4.1.6.2l-.1.5c-.2-.1-.4-.1-.5-.1-.3 0-.6.2-.8.7v2zM306.7 199.8c-.9 0-1.5-.7-1.5-1.7s.7-1.7 1.6-1.7c.9 0 1.5.7 1.5 1.7s-.7 1.7-1.6 1.7zm0-2.9c-.6 0-1 .5-1 1.2s.4 1.2 1 1.2 1-.5 1-1.2-.4-1.2-1-1.2zM310.5 199.7h-.5l-1.3-3.2h.6l.9 2.5.9-2.5h.6l-1.2 3.2zM312.7 198.2c0 .6.4 1.1 1.1 1.1.3 0 .7-.1 1-.3l.1.5c-.3.2-.7.3-1.1.3-1 0-1.6-.7-1.6-1.7s.7-1.7 1.6-1.7c.8 0 1.2.5 1.2 1.3 0 .2 0 .4-.1.5 0-.1-2.2-.1-2.2 0zm1.7-.5c0-.5-.2-.8-.7-.8-.5 0-.9.4-.9.9l1.6-.1zM318 195l.6-.1v4.8h-.6v-.3c-.2.2-.5.4-.9.4-.9 0-1.4-.7-1.4-1.7s.7-1.7 1.6-1.7c.2 0 .5 0 .7.1V195zm-.7 1.9c-.7 0-1 .5-1 1.2s.4 1.2 1 1.2c.3 0 .6-.1.8-.3v-1.8c-.3-.2-.5-.3-.8-.3z"/></g><path class="st7" d="M252.1 200.4h-5.6c-.1 0-.2-.1-.2-.2v-5.6c0-.1.1-.2.2-.2h5.6c.1 0 .2.1.2.2v5.6c0 .2-.1.2-.2.2z"/></g><g><g class="st10"><path class="st8" d="M174.5 194H248v7.9h-73.5z"/><path class="st1" d="M177.2 198.5c0-.4-.3-.6-1.1-.8-.6-.2-1.3-.4-1.3-1.3 0-.7.6-1.2 1.5-1.2.5 0 1 .1 1.4.4l-.2.5c-.3-.2-.8-.4-1.2-.4-.6 0-.9.3-.9.7 0 .4.4.6 1.1.8.6.2 1.3.5 1.3 1.3s-.6 1.3-1.5 1.3c-.5 0-1-.1-1.5-.4l.2-.5c.4.2.8.4 1.3.4s.9-.3.9-.8zM179 195.8c-.3 0-.4-.2-.4-.4s.1-.4.4-.4c.3 0 .4.2.4.4s-.2.4-.4.4zm-.3 3.9v-3.2l.6-.1v3.3h-.6zM180.2 199.2c0-.3.2-.5.5-.6-.3-.2-.5-.5-.5-1 0-.6.5-1.2 1.3-1.2.3 0 .6.1.8.2l.8-.1v.6l-.6-.1c.1.1.2.4.2.7 0 .6-.5 1.2-1.3 1.2-.2 0-.3 0-.4-.1-.1 0-.3.2-.3.3 0 .2.1.3.7.3h.3c1 0 1.4.3 1.4.9 0 .7-.8 1.2-1.7 1.2-.8 0-1.5-.4-1.5-.9 0-.4.2-.7.7-.7-.2-.3-.4-.5-.4-.7zm.3 1.2c0 .3.4.6 1 .6s1.1-.3 1.1-.7c0-.4-.3-.4-1-.4h-.6c-.2 0-.5.2-.5.5zm1.1-2.1c.4 0 .7-.3.7-.7 0-.4-.2-.7-.7-.7-.4 0-.7.3-.7.8-.1.3.2.6.7.6zM186 199.7v-2c0-.6-.2-.7-.7-.7-.3 0-.7.2-.8.4v2.4h-.6v-3.2l.6-.1v.5c.3-.3.7-.5 1-.5.7 0 1 .4 1 1.1v2.2h-.5zM188 195.8c-.3 0-.4-.2-.4-.4s.1-.4.4-.4c.3 0 .4.2.4.4s-.2.4-.4.4zm-.3 3.9v-3.2l.6-.1v3.3h-.6zM191.1 195.5c-.1-.1-.4-.1-.5-.1-.3 0-.5.2-.5.7v.4h1v.5h-1v2.7h-.6V197h-.6v-.4l.5-.2v-.4c0-.9.4-1.2 1.1-1.2.2 0 .5.1.6.2.2 0 0 .5 0 .5zm.9.3c-.3 0-.4-.2-.4-.4s.1-.4.4-.4.4.2.4.4c-.1.2-.2.4-.4.4zm-.3 3.9v-3.2l.6-.1v3.3h-.6zM194.7 199.8c-1 0-1.6-.7-1.6-1.7s.7-1.7 1.6-1.7c.4 0 .7.1 1 .3l-.1.5c-.3-.2-.6-.3-.9-.3-.7 0-1 .4-1 1.2 0 .7.4 1.2 1 1.2.3 0 .7-.1.9-.3l.1.5c-.2.2-.6.3-1 .3zM198.4 199.3c-.2.3-.5.4-.9.4-.6 0-1-.4-1-.9 0-.6.4-1.1 1.9-1.1v-.1c0-.5-.2-.7-.7-.7-.3 0-.7.2-1 .4l-.1-.5c.3-.2.7-.4 1.2-.4.9 0 1.3.4 1.2 1.2v1.3c0 .3 0 .3.3.3v.5c-.6.1-.8-.1-.9-.4zm0-1.2c-1 .1-1.3.3-1.3.7 0 .3.2.5.6.5.3 0 .6-.1.7-.3v-.9zM202.2 199.7v-2c0-.6-.2-.7-.7-.7-.3 0-.7.2-.8.4v2.4h-.6v-3.2l.6-.1v.5c.3-.3.7-.5 1-.5.7 0 1 .4 1 1.1v2.2h-.5zM204.8 199.8c-.6 0-1-.3-.9-1V197h-.5v-.4l.5-.2v-.7h.6v.7h1v.5h-1v1.8c0 .3.1.5.4.5.2 0 .4 0 .6-.1l.1.5c-.3.1-.5.2-.8.2zM206.4 199.7V195l.6-.1v4.8h-.6zM209.4 199.7l-.2.6c-.3.8-.6 1.1-1.1 1.1-.2 0-.5-.1-.7-.2l.2-.5c.2.1.4.2.5.2.2 0 .4-.1.6-.7l.2-.5-1.2-3.1h.6l.9 2.5.9-2.5h.6l-1.3 3.1zM213.2 195.8c-.3 0-.4-.2-.4-.4s.1-.4.4-.4c.3 0 .4.2.4.4s-.2.4-.4.4zm-.3 3.9v-3.2l.6-.1v3.3h-.6zM218.6 199.7v-2c0-.6-.2-.8-.6-.8-.4 0-.6.2-.8.4V199.7h-.6v-2c0-.6-.2-.8-.6-.8-.4 0-.6.2-.8.3v2.4h-.6v-3.2l.6-.1v.4c.3-.3.6-.4 1-.4s.7.2.8.5c.3-.3.7-.5 1.2-.5.6 0 1 .4 1 1.1v2.2h-.6zM221.7 196.4c.9 0 1.4.7 1.4 1.7s-.7 1.7-1.6 1.7c-.2 0-.5 0-.7-.1v1.6h-.6v-4.9l.6-.1v.4c.3-.1.6-.3.9-.3zm-.9 2.6c.2.2.4.2.7.2.7 0 1-.5 1-1.2s-.4-1.2-1-1.2c-.3 0-.6.1-.8.3.1.1.1 1.9.1 1.9zM224.7 199.7h-.6v-3.2l.6-.1v.6c.2-.4.5-.6.9-.6.2 0 .4.1.6.2l-.1.5c-.2-.1-.4-.1-.5-.1-.3 0-.6.2-.8.7v2zM228.2 199.8c-.9 0-1.5-.7-1.5-1.7s.7-1.7 1.6-1.7c.9 0 1.5.7 1.5 1.7s-.7 1.7-1.6 1.7zm0-2.9c-.6 0-1 .5-1 1.2s.4 1.2 1 1.2 1-.5 1-1.2-.4-1.2-1-1.2zM232 199.7h-.5l-1.3-3.2h.6l.9 2.5.9-2.5h.6l-1.2 3.2zM234.2 198.2c0 .6.4 1.1 1.1 1.1.3 0 .7-.1 1-.3l.1.5c-.3.2-.7.3-1.1.3-1 0-1.6-.7-1.6-1.7s.7-1.7 1.6-1.7c.8 0 1.2.5 1.2 1.3 0 .2 0 .4-.1.5 0-.1-2.2-.1-2.2 0zm1.7-.5c0-.5-.2-.8-.7-.8-.5 0-.9.4-.9.9l1.6-.1zM239.5 195l.6-.1v4.8h-.6v-.3c-.2.2-.5.4-.9.4-.9 0-1.4-.7-1.4-1.7s.7-1.7 1.6-1.7c.2 0 .5 0 .7.1V195zm-.7 1.9c-.7 0-1 .5-1 1.2s.4 1.2 1 1.2c.3 0 .6-.1.8-.3v-1.8c-.3-.2-.5-.3-.8-.3z"/></g><path class="st6" d="M168.7 200.4h-5.6c-.1 0-.2-.1-.2-.2v-5.6c0-.1.1-.2.2-.2h5.6c.1 0 .2.1.2.2v5.6c0 .2-.1.2-.2.2z"/></g></g></svg>