<svg xmlns="http://www.w3.org/2000/svg" viewBox="0 0 44.79 45.58"><style>.st0{display:none}.st2{fill:#fff}.st3{fill:none;stroke:#c3859d;stroke-width:.5;stroke-miterlimit:10}.st4{fill:#bd7894}</style><g id="Type"><path id="Path_409" d="M22.22 43.52c-11.62 0-21.03-9.42-21.03-21.03S10.6 1.46 22.22 1.46s21.03 9.42 21.03 21.03c-.01 11.61-9.42 21.02-21.03 21.03zm0-40.43c-10.72 0-19.4 8.69-19.4 19.4s8.69 19.4 19.4 19.4 19.4-8.69 19.4-19.4c-.01-10.71-8.69-19.39-19.4-19.4z" fill="#9e2065"/><path class="st2" d="M33.27 27.26c0 .47-.39.86-.86.86H11.77c-.47 0-.86-.39-.86-.86V26.2c0-.47.39-.86.86-.86h20.64c.47 0 .86.39.86.86v1.06z"/><path class="st3" d="M33.27 27.26c0 .47-.39.86-.86.86H11.77c-.47 0-.86-.39-.86-.86V26.2c0-.47.39-.86.86-.86h20.64c.47 0 .86.39.86.86v1.06z"/><path class="st4" d="M10.91 25.51h17.9v2.45h-17.9z"/><path class="st2" d="M33.27 31.73c0 .47-.39.86-.86.86H11.77c-.47 0-.86-.39-.86-.86v-1.06c0-.47.39-.86.86-.86h20.64c.47 0 .86.39.86.86v1.06z"/><path class="st3" d="M33.27 31.73c0 .47-.39.86-.86.86H11.77c-.47 0-.86-.39-.86-.86v-1.06c0-.47.39-.86.86-.86h20.64c.47 0 .86.39.86.86v1.06z"/><path class="st4" d="M10.91 29.97h13.44v2.45H10.91z"/><path class="st2" d="M33.27 36.09c0 .47-.39.86-.86.86H11.77c-.47 0-.86-.39-.86-.86v-1.06c0-.47.39-.86.86-.86h20.64c.47 0 .86.39.86.86v1.06z"/><path class="st3" d="M33.27 36.09c0 .47-.39.86-.86.86H11.77c-.47 0-.86-.39-.86-.86v-1.06c0-.47.39-.86.86-.86h20.64c.47 0 .86.39.86.86v1.06z"/><path class="st4" d="M10.91 34.34h9.57v2.45h-9.57z"/><g><circle class="st4" cx="13.14" cy="13.15" r="3.69"/><path class="st4" d="M7.16 23.12c0-3.67 2.68-6.64 5.99-6.64s5.99 2.97 5.99 6.64"/></g><g><circle class="st4" cx="31.2" cy="13.15" r="3.69"/><path class="st4" d="M25.21 23.12c0-3.67 2.68-6.64 5.99-6.64s5.99 2.97 5.99 6.64"/></g><g><circle class="st4" cx="21.89" cy="9.17" r="2.57"/><path class="st4" d="M17.71 16.13c0-2.56 1.87-4.63 4.17-4.63s4.17 2.07 4.17 4.63"/></g></g></svg>