<svg xmlns="http://www.w3.org/2000/svg" viewBox="0 0 44.79 45.58"><style>.st0{display:none}.st1{fill:#9e2065}.st2{fill:#bd7894}</style><g id="Type"><path id="Path_409" class="st1" d="M22.22 43.52c-11.62 0-21.03-9.42-21.03-21.03S10.6 1.46 22.22 1.46s21.03 9.42 21.03 21.03c-.01 11.61-9.42 21.02-21.03 21.03zm0-40.43c-10.72 0-19.4 8.69-19.4 19.4s8.69 19.4 19.4 19.4 19.4-8.69 19.4-19.4c-.01-10.71-8.69-19.39-19.4-19.4z"/><path class="st2" d="M19.93 24.3h4.58v7.97h-4.58zM11.15 16.79h4.58v4.32h-4.58zM19.93 16.79h4.58v4.32h-4.58zM28.33 16.79h4.58v4.32h-4.58zM11.15 24.3h4.58v4.32h-4.58zM28.33 24.3h4.58v4.32h-4.58z"/><path d="M10.93 13.74l22.38.06c1.26 0 2.29 1.04 2.29 2.29v13.46c0 1.26-1.03 2.29-2.29 2.29H10.94c-1.26 0-2.29-1.03-2.29-2.29V16.02c0-1.25 1.03-2.28 2.28-2.28m0-1.27a3.55 3.55 0 0 0-3.55 3.55v13.53c0 1.96 1.6 3.56 3.56 3.56h22.38c1.96 0 3.56-1.6 3.56-3.56V16.1c0-1.96-1.6-3.56-3.56-3.57l-22.39-.06z" fill="#b96f8d"/><circle cx="22.18" cy="10.76" r="4.07" fill="#fff" stroke="#b96f8d" stroke-miterlimit="10"/><path class="st1" d="M21.6 8.43h1.16v4.66H21.6z"/><path class="st1" d="M19.85 10.18h4.66v1.16h-4.66z"/><g><circle class="st1" cx="34.47" cy="35.6" r="5.76"/><path fill="none" stroke="#fff" stroke-width="1.121" stroke-linecap="round" stroke-miterlimit="10" d="M37.51 33.62l-3.95 3.95-2.12-2.11"/><g><path class="st1" d="M43.18 44.84c-.24 0-.49-.09-.68-.26l-5.67-5.07c-.42-.38-.46-1.02-.08-1.44.38-.42 1.02-.46 1.44-.08l5.67 5.07c.42.38.46 1.02.08 1.44-.2.23-.48.34-.76.34z"/></g></g></g></svg>